{"glyphs":{"0":{"ha":988,"x_min":96,"x_max":910,"o":"m 503 978 q 804 851 699 978 q 910 486 910 724 q 804 121 910 249 q 503 -7 699 -7 q 201 121 306 -7 q 96 486 96 249 q 201 851 96 724 q 503 978 306 978 m 503 872 q 233 486 233 872 q 301 197 233 294 q 503 100 369 100 q 704 197 636 100 q 772 486 772 294 q 503 872 772 872 z "},"1":{"ha":513,"x_min":8,"x_max":363,"o":"m 8 972 l 363 972 l 363 0 l 229 0 l 229 851 l 8 851 l 8 972 z "},"2":{"ha":803,"x_min":40,"x_max":756,"o":"m 756 121 l 756 0 l 53 0 l 53 103 l 429 493 q 526 615 490 554 q 563 719 563 675 q 512 822 563 785 q 372 860 461 860 q 231 828 304 860 q 97 742 157 797 l 40 843 q 209 942 119 907 q 389 978 299 978 q 616 913 531 978 q 701 738 701 847 q 521 421 701 608 l 228 121 l 756 121 z "},"3":{"ha":813,"x_min":21,"x_max":742,"o":"m 424 560 q 656 483 569 551 q 742 300 742 415 q 695 140 742 210 q 563 32 649 71 q 364 -7 478 -7 q 180 21 272 -7 q 21 94 88 49 l 78 203 q 208 132 136 157 q 356 107 281 107 q 543 158 475 107 q 611 296 611 210 q 543 427 611 382 q 351 472 475 472 l 218 472 l 218 557 l 517 851 l 68 851 l 67 972 l 692 972 l 692 888 l 365 564 l 424 560 z "},"4":{"ha":821,"x_min":22,"x_max":779,"o":"m 779 369 l 779 250 l 629 250 l 629 0 l 504 0 l 504 250 l 22 250 l 22 353 l 369 972 l 500 972 l 167 369 l 504 369 l 504 618 l 629 618 l 629 369 l 779 369 z "},"5":{"ha":854,"x_min":79,"x_max":797,"o":"m 440 610 q 628 572 547 610 q 753 468 710 535 q 797 318 797 401 q 752 147 797 221 q 624 33 707 74 q 431 -7 540 -7 q 249 23 344 -7 q 79 103 154 53 l 133 210 q 271 138 196 163 q 418 113 346 113 q 592 165 528 113 q 656 308 656 218 q 592 441 656 393 q 410 489 528 489 q 285 483 367 489 q 153 469 203 478 l 153 972 l 757 972 l 757 851 l 278 851 l 278 604 q 440 610 343 610 z "},"6":{"ha":885,"x_min":85,"x_max":813,"o":"m 726 806 q 622 851 681 835 q 506 867 563 867 q 290 769 365 867 q 215 503 215 672 q 217 463 215 476 q 325 583 253 542 q 499 625 397 625 q 728 542 644 625 q 813 317 813 458 q 771 145 813 218 q 653 33 729 72 q 475 -7 576 -7 q 266 49 354 -7 q 131 210 178 104 q 85 465 85 317 q 135 735 85 619 q 278 915 186 851 q 496 978 371 978 q 642 958 565 978 q 779 907 719 939 l 726 806 m 475 518 q 351 490 404 518 q 270 414 299 461 q 243 311 242 367 q 267 217 242 263 q 342 140 292 171 q 467 110 393 110 q 627 165 567 110 q 688 318 688 221 q 630 464 688 410 q 475 518 572 518 z "},"7":{"ha":788,"x_min":19,"x_max":747,"o":"m 19 972 l 747 972 l 747 868 l 324 0 l 182 0 l 597 851 l 140 851 l 139 711 l 19 711 l 19 972 z "},"8":{"ha":883,"x_min":81,"x_max":808,"o":"m 443 978 q 675 912 590 978 q 760 731 760 846 q 720 603 760 658 q 610 519 681 549 q 756 426 703 490 q 808 272 808 361 q 710 68 808 143 q 444 -7 613 -7 q 178 67 276 -7 q 81 269 81 142 q 135 425 81 360 q 285 519 189 490 q 169 606 210 551 q 128 735 128 661 q 213 913 128 847 q 443 978 297 978 m 444 881 q 295 839 349 881 q 242 724 242 797 q 295 607 242 649 q 444 565 349 565 q 593 607 540 565 q 646 724 646 649 q 593 839 646 797 q 444 881 540 881 m 443 460 q 269 413 332 460 q 207 285 207 367 q 269 149 207 197 q 444 100 332 100 q 619 149 556 100 q 682 283 682 197 q 619 413 682 365 q 443 460 556 460 z "},"9":{"ha":881,"x_min":81,"x_max":803,"o":"m 165 167 q 270 122 213 138 q 385 106 328 106 q 598 203 524 106 q 672 471 672 301 q 671 511 672 497 q 565 389 636 431 q 392 347 493 347 q 164 431 247 347 q 81 656 81 514 q 122 827 81 754 q 240 939 164 900 q 415 978 315 978 q 622 922 535 978 q 756 761 710 867 q 803 508 803 656 q 753 238 803 354 q 610 57 703 121 q 393 -7 517 -7 q 249 13 325 -7 q 113 65 172 33 l 165 167 m 424 863 q 265 807 325 863 q 206 654 206 751 q 263 508 206 563 q 415 454 319 454 q 538 483 486 454 q 618 559 590 511 q 646 663 646 607 q 622 756 646 710 q 547 833 597 803 q 424 863 497 863 z "},"\u0000":{"ha":0,"x_min":0,"x_max":0,"o":""},"\r":{"ha":364,"x_min":0,"x_max":0,"o":""}," ":{"ha":364,"x_min":0,"x_max":0,"o":""},"A":{"ha":1008,"x_min":4,"x_max":1006,"o":"m 861 0 l 758 236 l 246 236 l 144 0 l 4 0 l 436 972 l 575 972 l 1006 0 l 861 0 m 299 357 l 707 357 l 501 829 l 299 357 z "},"Á":{"ha":1008,"x_min":4,"x_max":1006,"o":"m 861 0 l 758 236 l 246 236 l 144 0 l 4 0 l 436 972 l 575 972 l 1006 0 l 861 0 m 299 357 l 707 357 l 501 829 l 299 357 m 581 1253 l 714 1194 l 542 1058 l 432 1072 l 581 1253 z "},"Ă":{"ha":1008,"x_min":4,"x_max":1006,"o":"m 861 0 l 758 236 l 246 236 l 144 0 l 4 0 l 436 972 l 575 972 l 1006 0 l 861 0 m 299 357 l 707 357 l 501 829 l 299 357 m 410 1244 q 439 1175 413 1203 q 504 1147 465 1147 q 569 1175 543 1147 q 599 1244 596 1203 l 689 1244 q 634 1110 686 1161 q 504 1058 582 1058 q 374 1110 425 1058 q 319 1244 322 1161 l 410 1244 z "},"Ắ":{"ha":1008,"x_min":4,"x_max":1006,"o":"m 861 0 l 758 236 l 246 236 l 144 0 l 4 0 l 436 972 l 575 972 l 1006 0 l 861 0 m 299 357 l 707 357 l 501 829 l 299 357 z "},"Ặ":{"ha":1008,"x_min":4,"x_max":1006,"o":"m 861 0 l 758 236 l 246 236 l 144 0 l 4 0 l 436 972 l 575 972 l 1006 0 l 861 0 m 299 357 l 707 357 l 501 829 l 299 357 m 500 -103 q 558 -126 535 -103 q 581 -186 581 -150 q 558 -246 581 -222 q 500 -269 535 -269 q 442 -246 465 -269 q 419 -186 419 -222 q 442 -126 419 -150 q 500 -103 465 -103 m 406 1244 q 435 1175 408 1203 q 500 1147 461 1147 q 565 1175 539 1147 q 594 1244 592 1203 l 685 1244 q 630 1110 682 1161 q 500 1058 578 1058 q 369 1110 421 1058 q 315 1244 318 1161 l 406 1244 z "},"Ằ":{"ha":1008,"x_min":4,"x_max":1006,"o":"m 861 0 l 758 236 l 246 236 l 144 0 l 4 0 l 436 972 l 575 972 l 1006 0 l 861 0 m 299 357 l 707 357 l 501 829 l 299 357 z "},"Ẳ":{"ha":1008,"x_min":4,"x_max":1006,"o":"m 861 0 l 758 236 l 246 236 l 144 0 l 4 0 l 436 972 l 575 972 l 1006 0 l 861 0 m 299 357 l 707 357 l 501 829 l 299 357 z "},"Ẵ":{"ha":1008,"x_min":4,"x_max":1006,"o":"m 861 0 l 758 236 l 246 236 l 144 0 l 4 0 l 436 972 l 575 972 l 1006 0 l 861 0 m 299 357 l 707 357 l 501 829 l 299 357 z "},"Â":{"ha":1008,"x_min":4,"x_max":1006,"o":"m 861 0 l 758 236 l 246 236 l 144 0 l 4 0 l 436 972 l 575 972 l 1006 0 l 861 0 m 299 357 l 707 357 l 501 829 l 299 357 m 718 1065 l 589 1065 l 504 1158 l 419 1065 l 290 1065 l 436 1250 l 572 1250 l 718 1065 z "},"Ấ":{"ha":1008,"x_min":4,"x_max":1006,"o":"m 861 0 l 758 236 l 246 236 l 144 0 l 4 0 l 436 972 l 575 972 l 1006 0 l 861 0 m 299 357 l 707 357 l 501 829 l 299 357 z "},"Ậ":{"ha":1008,"x_min":4,"x_max":1006,"o":"m 861 0 l 758 236 l 246 236 l 144 0 l 4 0 l 436 972 l 575 972 l 1006 0 l 861 0 m 299 357 l 707 357 l 501 829 l 299 357 m 500 -103 q 558 -126 535 -103 q 581 -186 581 -150 q 558 -246 581 -222 q 500 -269 535 -269 q 442 -246 465 -269 q 419 -186 419 -222 q 442 -126 419 -150 q 500 -103 465 -103 m 714 1065 l 585 1065 l 500 1158 l 415 1065 l 286 1065 l 432 1250 l 568 1250 l 714 1065 z "},"Ầ":{"ha":1008,"x_min":4,"x_max":1006,"o":"m 861 0 l 758 236 l 246 236 l 144 0 l 4 0 l 436 972 l 575 972 l 1006 0 l 861 0 m 299 357 l 707 357 l 501 829 l 299 357 z "},"Ẩ":{"ha":1008,"x_min":4,"x_max":1006,"o":"m 861 0 l 758 236 l 246 236 l 144 0 l 4 0 l 436 972 l 575 972 l 1006 0 l 861 0 m 299 357 l 707 357 l 501 829 l 299 357 z "},"Ẫ":{"ha":1008,"x_min":4,"x_max":1006,"o":"m 861 0 l 758 236 l 246 236 l 144 0 l 4 0 l 436 972 l 575 972 l 1006 0 l 861 0 m 299 357 l 707 357 l 501 829 l 299 357 z "},"Ȁ":{"ha":1008,"x_min":4,"x_max":1006,"o":"m 861 0 l 758 236 l 246 236 l 144 0 l 4 0 l 436 972 l 575 972 l 1006 0 l 861 0 m 299 357 l 707 357 l 501 829 l 299 357 m 344 1261 l 460 1071 l 361 1058 l 233 1208 l 344 1261 m 560 1261 l 675 1071 l 576 1058 l 449 1208 l 560 1261 z "},"Ä":{"ha":1008,"x_min":4,"x_max":1006,"o":"m 861 0 l 758 236 l 246 236 l 144 0 l 4 0 l 436 972 l 575 972 l 1006 0 l 861 0 m 299 357 l 707 357 l 501 829 l 299 357 m 386 1210 q 438 1189 417 1210 q 458 1135 458 1168 q 438 1081 458 1103 q 386 1058 417 1058 q 334 1081 356 1058 q 313 1135 313 1103 q 333 1189 313 1168 q 386 1210 354 1210 m 625 1210 q 678 1189 657 1210 q 699 1135 699 1168 q 677 1081 699 1103 q 625 1058 656 1058 q 573 1081 594 1058 q 551 1135 551 1103 q 572 1189 551 1168 q 625 1210 593 1210 z "},"Ạ":{"ha":1008,"x_min":4,"x_max":1006,"o":"m 861 0 l 758 236 l 246 236 l 144 0 l 4 0 l 436 972 l 575 972 l 1006 0 l 861 0 m 299 357 l 707 357 l 501 829 l 299 357 m 500 -103 q 558 -126 535 -103 q 581 -186 581 -150 q 558 -246 581 -222 q 500 -269 535 -269 q 442 -246 465 -269 q 419 -186 419 -222 q 442 -126 419 -150 q 500 -103 465 -103 z "},"À":{"ha":1008,"x_min":4,"x_max":1006,"o":"m 861 0 l 758 236 l 246 236 l 144 0 l 4 0 l 436 972 l 575 972 l 1006 0 l 861 0 m 299 357 l 707 357 l 501 829 l 299 357 m 424 1253 l 572 1072 l 463 1058 l 290 1194 l 424 1253 z "},"Ả":{"ha":1008,"x_min":4,"x_max":1006,"o":"m 861 0 l 758 236 l 246 236 l 144 0 l 4 0 l 436 972 l 575 972 l 1006 0 l 861 0 m 299 357 l 707 357 l 501 829 l 299 357 m 499 1314 q 593 1285 556 1314 q 631 1203 631 1256 q 603 1118 631 1164 q 531 1035 575 1072 l 458 1068 q 503 1126 486 1094 q 519 1181 519 1157 q 506 1211 519 1199 q 472 1224 492 1224 q 418 1206 446 1224 l 375 1275 q 499 1314 433 1314 z "},"Ȃ":{"ha":1008,"x_min":4,"x_max":1006,"o":"m 861 0 l 758 236 l 246 236 l 144 0 l 4 0 l 436 972 l 575 972 l 1006 0 l 861 0 m 299 357 l 707 357 l 501 829 l 299 357 m 319 1064 q 374 1199 322 1147 q 504 1250 425 1250 q 634 1199 582 1250 q 689 1064 686 1147 l 599 1064 q 569 1134 596 1107 q 504 1161 543 1161 q 439 1134 465 1161 q 410 1064 413 1107 l 319 1064 z "},"Ā":{"ha":1008,"x_min":4,"x_max":1006,"o":"m 861 0 l 758 236 l 246 236 l 144 0 l 4 0 l 436 972 l 575 972 l 1006 0 l 861 0 m 299 357 l 707 357 l 501 829 l 299 357 m 290 1157 l 718 1157 l 718 1071 l 290 1071 l 290 1157 z "},"Ą":{"ha":1008,"x_min":4,"x_max":1006,"o":"m 1004 0 q 903 -87 933 -51 q 874 -156 874 -122 q 917 -201 874 -201 q 971 -187 944 -201 l 1003 -274 q 890 -300 950 -300 q 790 -269 828 -300 q 753 -179 753 -237 q 860 3 753 -83 l 758 236 l 246 236 l 144 0 l 4 0 l 436 972 l 575 972 l 1006 0 l 1004 0 m 299 357 l 707 357 l 501 829 l 299 357 z "},"Å":{"ha":1008,"x_min":4,"x_max":1006,"o":"m 861 0 l 758 236 l 246 236 l 144 0 l 4 0 l 436 972 l 575 972 l 1006 0 l 861 0 m 299 357 l 707 357 l 501 829 l 299 357 m 504 1336 q 608 1292 564 1336 q 651 1189 651 1249 q 608 1085 651 1129 q 504 1042 564 1042 q 401 1085 444 1042 q 357 1189 357 1129 q 401 1292 357 1249 q 504 1336 444 1336 m 504 1264 q 449 1242 472 1264 q 426 1189 426 1219 q 449 1137 426 1158 q 504 1115 472 1115 q 560 1137 536 1115 q 583 1189 583 1158 q 560 1242 583 1219 q 504 1264 536 1264 z "},"Ǻ":{"ha":1008,"x_min":4,"x_max":1006,"o":"m 861 0 l 758 236 l 246 236 l 144 0 l 4 0 l 436 972 l 575 972 l 1006 0 l 861 0 m 299 357 l 707 357 l 501 829 l 299 357 m 504 1336 q 608 1292 564 1336 q 651 1189 651 1249 q 608 1085 651 1129 q 504 1042 564 1042 q 401 1085 444 1042 q 357 1189 357 1129 q 401 1292 357 1249 q 504 1336 444 1336 m 504 1264 q 449 1242 472 1264 q 426 1189 426 1219 q 449 1137 426 1158 q 504 1115 472 1115 q 560 1137 536 1115 q 583 1189 583 1158 q 560 1242 583 1219 q 504 1264 536 1264 m 589 1554 l 700 1479 l 507 1375 l 408 1406 l 589 1554 z "},"Ã":{"ha":1008,"x_min":4,"x_max":1006,"o":"m 861 0 l 758 236 l 246 236 l 144 0 l 4 0 l 436 972 l 575 972 l 1006 0 l 861 0 m 299 357 l 707 357 l 501 829 l 299 357 m 718 1228 q 691 1106 718 1154 q 606 1058 664 1058 q 551 1069 576 1058 q 490 1103 525 1081 q 451 1125 465 1118 q 424 1132 436 1132 q 379 1064 379 1132 l 289 1064 q 316 1185 289 1138 q 401 1233 343 1233 q 455 1223 431 1233 q 517 1190 479 1213 q 556 1168 542 1175 q 583 1161 571 1161 q 628 1228 628 1161 l 718 1228 z "},"Æ":{"ha":1440,"x_min":4,"x_max":1364,"o":"m 806 122 l 1364 122 l 1364 0 l 672 0 l 672 256 l 290 256 l 144 0 l 4 0 l 574 972 l 1346 972 l 1346 850 l 806 850 l 806 551 l 1290 551 l 1290 431 l 806 431 l 806 122 m 351 361 l 672 361 l 672 861 l 638 861 l 351 361 z "},"Ǽ":{"ha":1440,"x_min":4,"x_max":1364,"o":"m 806 122 l 1364 122 l 1364 0 l 672 0 l 672 256 l 290 256 l 144 0 l 4 0 l 574 972 l 1346 972 l 1346 850 l 806 850 l 806 551 l 1290 551 l 1290 431 l 806 431 l 806 122 m 351 361 l 672 361 l 672 861 l 638 861 l 351 361 m 938 1253 l 1071 1194 l 899 1058 l 789 1072 l 938 1253 z "},"B":{"ha":989,"x_min":139,"x_max":914,"o":"m 554 972 q 788 908 703 972 q 874 729 874 843 q 826 588 874 646 q 697 511 779 531 q 856 430 799 496 q 914 265 914 364 q 820 70 914 140 q 561 0 726 0 l 139 0 l 139 972 l 554 972 m 547 560 q 687 598 638 560 q 736 707 736 636 q 687 814 736 776 q 547 850 638 851 l 272 850 l 272 560 l 547 560 m 547 122 q 717 163 656 121 q 778 282 778 206 q 717 397 778 356 q 547 439 656 439 l 272 439 l 272 122 l 547 122 z "},"C":{"ha":971,"x_min":53,"x_max":924,"o":"m 843 739 q 714 830 788 797 q 563 863 640 863 q 374 813 460 863 q 238 677 288 763 q 188 489 188 592 q 238 301 188 388 q 374 165 288 215 q 563 115 460 115 q 713 147 639 115 q 843 232 786 178 l 924 144 q 753 31 850 72 q 556 -10 656 -10 q 301 56 417 -10 q 119 236 186 122 q 53 488 53 350 q 120 737 53 624 q 304 915 188 850 q 561 981 421 981 q 758 942 663 981 q 922 835 853 904 l 843 739 z "},"Ć":{"ha":971,"x_min":53,"x_max":924,"o":"m 843 739 q 714 830 788 797 q 563 863 640 863 q 374 813 460 863 q 238 677 288 763 q 188 489 188 592 q 238 301 188 388 q 374 165 288 215 q 563 115 460 115 q 713 147 639 115 q 843 232 786 178 l 924 144 q 753 31 850 72 q 556 -10 656 -10 q 301 56 417 -10 q 119 236 186 122 q 53 488 53 350 q 120 737 53 624 q 304 915 188 850 q 561 981 421 981 q 758 942 663 981 q 922 835 853 904 l 843 739 m 658 1253 l 792 1194 l 619 1058 l 510 1072 l 658 1253 z "},"Č":{"ha":971,"x_min":53,"x_max":924,"o":"m 843 739 q 714 830 788 797 q 563 863 640 863 q 374 813 460 863 q 238 677 288 763 q 188 489 188 592 q 238 301 188 388 q 374 165 288 215 q 563 115 460 115 q 713 147 639 115 q 843 232 786 178 l 924 144 q 753 31 850 72 q 556 -10 656 -10 q 301 56 417 -10 q 119 236 186 122 q 53 488 53 350 q 120 737 53 624 q 304 915 188 850 q 561 981 421 981 q 758 942 663 981 q 922 835 853 904 l 843 739 m 635 1249 l 764 1249 l 618 1064 l 482 1064 l 336 1249 l 465 1249 l 550 1156 l 635 1249 z "},"Ç":{"ha":971,"x_min":53,"x_max":924,"o":"m 571 -72 q 655 -110 626 -81 q 683 -181 683 -140 q 640 -269 683 -236 q 531 -301 597 -301 q 403 -272 465 -301 l 431 -193 q 515 -211 475 -211 q 563 -198 546 -211 q 581 -168 581 -185 q 562 -138 581 -150 q 510 -126 543 -126 l 465 -126 l 503 -7 q 274 74 376 6 q 112 251 171 142 q 53 488 53 360 q 120 737 53 624 q 304 915 188 850 q 561 981 421 981 q 758 942 663 981 q 922 835 853 904 l 843 739 q 714 830 788 797 q 563 863 640 863 q 374 813 460 863 q 238 677 288 763 q 188 489 188 592 q 238 301 188 388 q 374 165 288 215 q 563 115 460 115 q 713 147 639 115 q 843 232 786 178 l 924 144 q 770 39 856 79 q 593 -8 685 -1 l 571 -72 z "},"Ḉ":{"ha":971,"x_min":53,"x_max":924,"o":"m 728 1194 l 556 1058 l 446 1072 l 594 1253 l 728 1194 m 571 -72 q 655 -110 626 -81 q 683 -181 683 -140 q 640 -269 683 -236 q 531 -301 597 -301 q 403 -272 465 -301 l 431 -193 q 515 -211 475 -211 q 563 -198 546 -211 q 581 -168 581 -185 q 562 -138 581 -150 q 510 -126 543 -126 l 465 -126 l 503 -7 q 274 74 376 6 q 112 251 171 142 q 53 488 53 360 q 120 737 53 624 q 304 915 188 850 q 561 981 421 981 q 758 942 663 981 q 922 835 853 904 l 843 739 q 714 830 788 797 q 563 863 640 863 q 374 813 460 863 q 238 677 288 763 q 188 489 188 592 q 238 301 188 388 q 374 165 288 215 q 563 115 460 115 q 713 147 639 115 q 843 232 786 178 l 924 144 q 770 39 856 79 q 593 -8 685 -1 l 571 -72 z "},"Ĉ":{"ha":971,"x_min":53,"x_max":924,"o":"m 843 739 q 714 830 788 797 q 563 863 640 863 q 374 813 460 863 q 238 677 288 763 q 188 489 188 592 q 238 301 188 388 q 374 165 288 215 q 563 115 460 115 q 713 147 639 115 q 843 232 786 178 l 924 144 q 753 31 850 72 q 556 -10 656 -10 q 301 56 417 -10 q 119 236 186 122 q 53 488 53 350 q 120 737 53 624 q 304 915 188 850 q 561 981 421 981 q 758 942 663 981 q 922 835 853 904 l 843 739 m 796 1065 l 667 1065 l 582 1158 l 497 1065 l 368 1065 l 514 1250 l 650 1250 l 796 1065 z "},"Ċ":{"ha":971,"x_min":53,"x_max":924,"o":"m 843 739 q 714 830 788 797 q 563 863 640 863 q 374 813 460 863 q 238 677 288 763 q 188 489 188 592 q 238 301 188 388 q 374 165 288 215 q 563 115 460 115 q 713 147 639 115 q 843 232 786 178 l 924 144 q 753 31 850 72 q 556 -10 656 -10 q 301 56 417 -10 q 119 236 186 122 q 53 488 53 350 q 120 737 53 624 q 304 915 188 850 q 561 981 421 981 q 758 942 663 981 q 922 835 853 904 l 843 739 m 582 1225 q 639 1201 615 1225 q 663 1142 663 1178 q 639 1083 663 1107 q 582 1058 615 1058 q 524 1082 547 1058 q 501 1142 501 1106 q 524 1201 501 1178 q 582 1225 547 1225 z "},"D":{"ha":1088,"x_min":139,"x_max":1036,"o":"m 535 972 q 791 909 676 972 q 971 735 906 846 q 1036 486 1036 624 q 970 238 1036 349 q 789 63 904 126 q 531 0 674 0 l 139 0 l 139 972 l 535 972 m 538 121 q 722 168 639 121 q 852 299 804 215 q 900 485 900 382 q 851 672 900 589 q 719 803 803 756 q 532 851 635 851 l 272 851 l 272 121 l 538 121 z "},"Ǆ":{"ha":2007,"x_min":139,"x_max":1951,"o":"m 535 972 q 791 909 676 972 q 971 735 906 846 q 1036 486 1036 624 q 970 238 1036 349 q 789 63 904 126 q 531 0 674 0 l 139 0 l 139 972 l 535 972 m 538 121 q 722 168 639 121 q 852 299 804 215 q 900 485 900 382 q 851 672 900 589 q 719 803 803 756 q 532 851 635 851 l 272 851 l 272 121 l 538 121 m 1163 972 l 1944 972 l 1944 874 l 1322 121 l 1951 121 l 1950 0 l 1144 0 l 1144 99 l 1767 851 l 1161 851 l 1163 972 m 1607 1249 l 1736 1249 l 1590 1064 l 1454 1064 l 1308 1249 l 1438 1249 l 1522 1156 l 1607 1249 z "},"Ð":{"ha":1088,"x_min":39,"x_max":1035,"o":"m 533 972 q 790 909 675 972 q 969 735 904 846 q 1035 486 1035 624 q 969 238 1035 349 q 789 63 904 126 q 531 0 674 0 l 139 0 l 139 446 l 39 446 l 39 526 l 139 526 l 139 972 l 533 972 m 538 122 q 722 169 639 122 q 852 299 804 217 q 900 485 900 382 q 851 672 900 589 q 718 803 803 756 q 532 850 633 850 l 272 850 l 272 526 l 574 526 l 574 446 l 272 446 l 272 122 l 538 122 z "},"Ď":{"ha":1088,"x_min":139,"x_max":1036,"o":"m 535 972 q 791 909 676 972 q 971 735 906 846 q 1036 486 1036 624 q 970 238 1036 349 q 789 63 904 126 q 531 0 674 0 l 139 0 l 139 972 l 535 972 m 538 121 q 722 168 639 121 q 852 299 804 215 q 900 485 900 382 q 851 672 900 589 q 719 803 803 756 q 532 851 635 851 l 272 851 l 272 121 l 538 121 m 567 1249 l 696 1249 l 550 1064 l 414 1064 l 268 1249 l 397 1249 l 482 1156 l 567 1249 z "},"Đ":{"ha":1088,"x_min":39,"x_max":1035,"o":"m 533 972 q 790 909 675 972 q 969 735 904 846 q 1035 486 1035 624 q 969 238 1035 349 q 789 63 904 126 q 531 0 674 0 l 139 0 l 139 446 l 39 446 l 39 526 l 139 526 l 139 972 l 533 972 m 538 122 q 722 169 639 122 q 852 299 804 217 q 900 485 900 382 q 851 672 900 589 q 718 803 803 756 q 532 850 633 850 l 272 850 l 272 526 l 574 526 l 574 446 l 272 446 l 272 122 l 538 122 z "},"Ḍ":{"ha":1088,"x_min":139,"x_max":1036,"o":"m 535 972 q 791 909 676 972 q 971 735 906 846 q 1036 486 1036 624 q 970 238 1036 349 q 789 63 904 126 q 531 0 674 0 l 139 0 l 139 972 l 535 972 m 538 121 q 722 168 639 121 q 852 299 804 215 q 900 485 900 382 q 851 672 900 589 q 719 803 803 756 q 532 851 635 851 l 272 851 l 272 121 l 538 121 m 532 -103 q 590 -126 567 -103 q 613 -186 613 -150 q 590 -246 613 -222 q 532 -269 567 -269 q 474 -246 497 -269 q 451 -186 451 -222 q 474 -126 451 -150 q 532 -103 497 -103 z "},"Ḏ":{"ha":1088,"x_min":139,"x_max":1036,"o":"m 535 972 q 791 909 676 972 q 971 735 906 846 q 1036 486 1036 624 q 970 238 1036 349 q 789 63 904 126 q 531 0 674 0 l 139 0 l 139 972 l 535 972 m 538 121 q 722 168 639 121 q 852 299 804 215 q 900 485 900 382 q 851 672 900 589 q 719 803 803 756 q 532 851 635 851 l 272 851 l 272 121 l 538 121 m 332 -114 l 731 -114 l 731 -200 l 332 -200 l 332 -114 z "},"ǅ":{"ha":1825,"x_min":139,"x_max":1769,"o":"m 535 972 q 791 909 676 972 q 971 735 906 846 q 1036 486 1036 624 q 970 238 1036 349 q 789 63 904 126 q 531 0 674 0 l 139 0 l 139 972 l 535 972 m 538 121 q 722 168 639 121 q 852 299 804 215 q 900 485 900 382 q 851 672 900 589 q 719 803 803 756 q 532 851 635 851 l 272 851 l 272 121 l 538 121 m 1168 735 l 1758 733 l 1758 642 l 1314 107 l 1769 106 l 1769 -1 l 1156 0 l 1156 92 l 1599 626 l 1168 628 l 1168 735 m 1544 1040 l 1674 1040 l 1528 856 l 1392 856 l 1246 1040 l 1375 1040 l 1460 947 l 1544 1040 z "},"E":{"ha":907,"x_min":139,"x_max":831,"o":"m 139 972 l 814 972 l 814 851 l 272 851 l 272 551 l 757 551 l 757 431 l 272 431 l 272 121 l 831 121 l 831 0 l 139 0 l 139 972 z "},"É":{"ha":907,"x_min":139,"x_max":831,"o":"m 139 972 l 814 972 l 814 851 l 272 851 l 272 551 l 757 551 l 757 431 l 272 431 l 272 121 l 831 121 l 831 0 l 139 0 l 139 972 m 564 1253 l 697 1194 l 525 1058 l 415 1072 l 564 1253 z "},"Ĕ":{"ha":907,"x_min":139,"x_max":831,"o":"m 139 972 l 814 972 l 814 851 l 272 851 l 272 551 l 757 551 l 757 431 l 272 431 l 272 121 l 831 121 l 831 0 l 139 0 l 139 972 m 393 1244 q 422 1175 396 1203 q 488 1147 449 1147 q 553 1175 526 1147 q 582 1244 579 1203 l 672 1244 q 617 1110 669 1161 q 488 1058 565 1058 q 357 1110 408 1058 q 303 1244 306 1161 l 393 1244 z "},"Ě":{"ha":907,"x_min":139,"x_max":831,"o":"m 139 972 l 814 972 l 814 851 l 272 851 l 272 551 l 757 551 l 757 431 l 272 431 l 272 121 l 831 121 l 831 0 l 139 0 l 139 972 m 540 1249 l 669 1249 l 524 1064 l 388 1064 l 242 1249 l 371 1249 l 456 1156 l 540 1249 z "},"Ḝ":{"ha":907,"x_min":139,"x_max":831,"o":"m 467 1058 q 337 1110 389 1058 q 282 1244 285 1161 l 372 1244 q 401 1175 375 1203 q 467 1147 428 1147 q 532 1175 506 1147 q 561 1244 558 1203 l 651 1244 q 597 1110 649 1161 q 467 1058 546 1058 m 544 0 l 519 -72 q 603 -110 575 -81 q 632 -181 632 -140 q 589 -269 632 -236 q 479 -301 546 -301 q 351 -272 415 -301 l 379 -193 q 464 -211 424 -211 q 512 -198 494 -211 q 529 -168 529 -185 q 510 -138 529 -150 q 458 -126 492 -126 l 414 -126 l 453 0 l 139 0 l 139 972 l 814 972 l 814 851 l 272 851 l 272 551 l 757 551 l 757 431 l 272 431 l 272 121 l 831 121 l 831 0 l 544 0 z "},"Ê":{"ha":907,"x_min":139,"x_max":831,"o":"m 139 972 l 814 972 l 814 851 l 272 851 l 272 551 l 757 551 l 757 431 l 272 431 l 272 121 l 831 121 l 831 0 l 139 0 l 139 972 m 701 1065 l 572 1065 l 488 1158 l 403 1065 l 274 1065 l 419 1250 l 556 1250 l 701 1065 z "},"Ế":{"ha":907,"x_min":139,"x_max":831,"o":"m 139 972 l 814 972 l 814 851 l 272 851 l 272 551 l 757 551 l 757 431 l 272 431 l 272 121 l 831 121 l 831 0 l 139 0 l 139 972 m 728 1050 l 589 1050 l 490 1128 l 390 1050 l 251 1050 l 399 1183 l 579 1183 l 728 1050 m 574 1406 l 685 1331 l 492 1226 l 393 1257 l 574 1406 z "},"Ệ":{"ha":907,"x_min":139,"x_max":831,"o":"m 139 972 l 814 972 l 814 851 l 272 851 l 272 551 l 757 551 l 757 431 l 272 431 l 272 121 l 831 121 l 831 0 l 139 0 l 139 972 m 485 -103 q 542 -126 519 -103 q 565 -186 565 -150 q 542 -246 565 -222 q 485 -269 519 -269 q 427 -246 450 -269 q 404 -186 404 -222 q 427 -126 404 -150 q 485 -103 450 -103 m 699 1065 l 569 1065 l 485 1158 l 400 1065 l 271 1065 l 417 1250 l 553 1250 l 699 1065 z "},"Ề":{"ha":907,"x_min":139,"x_max":831,"o":"m 139 972 l 814 972 l 814 851 l 272 851 l 272 551 l 757 551 l 757 431 l 272 431 l 272 121 l 831 121 l 831 0 l 139 0 l 139 972 m 725 1050 l 586 1050 l 488 1128 l 388 1050 l 249 1050 l 396 1183 l 576 1183 l 725 1050 m 392 1406 l 572 1257 l 474 1226 l 281 1331 l 392 1406 z "},"Ể":{"ha":907,"x_min":139,"x_max":831,"o":"m 139 972 l 814 972 l 814 851 l 272 851 l 272 551 l 757 551 l 757 431 l 272 431 l 272 121 l 831 121 l 831 0 l 139 0 l 139 972 m 746 1050 l 607 1050 l 508 1128 l 408 1050 l 269 1050 l 417 1183 l 597 1183 l 746 1050 m 499 1444 q 581 1419 550 1444 q 613 1354 613 1394 q 588 1288 613 1322 q 522 1224 564 1254 l 454 1251 q 495 1292 481 1271 q 510 1331 510 1314 q 499 1353 510 1344 q 471 1363 488 1363 q 425 1349 447 1363 l 385 1408 q 499 1444 438 1444 z "},"Ễ":{"ha":907,"x_min":139,"x_max":831,"o":"m 139 972 l 814 972 l 814 851 l 272 851 l 272 551 l 757 551 l 757 431 l 272 431 l 272 121 l 831 121 l 831 0 l 139 0 l 139 972 m 729 1050 l 590 1050 l 492 1128 l 392 1050 l 253 1050 l 400 1183 l 581 1183 l 729 1050 m 701 1385 q 675 1278 701 1318 q 592 1238 649 1238 q 535 1248 561 1238 q 474 1276 508 1258 q 403 1304 425 1304 q 365 1288 376 1304 q 354 1242 354 1272 l 278 1242 q 305 1349 278 1308 q 389 1390 332 1390 q 444 1381 418 1390 q 507 1351 469 1371 q 547 1331 531 1338 q 579 1324 564 1324 q 626 1385 626 1324 l 701 1385 z "},"Ȅ":{"ha":907,"x_min":139,"x_max":831,"o":"m 139 972 l 814 972 l 814 851 l 272 851 l 272 551 l 757 551 l 757 431 l 272 431 l 272 121 l 831 121 l 831 0 l 139 0 l 139 972 m 328 1261 l 443 1071 l 344 1058 l 217 1208 l 328 1261 m 543 1261 l 658 1071 l 560 1058 l 432 1208 l 543 1261 z "},"Ë":{"ha":907,"x_min":139,"x_max":831,"o":"m 139 972 l 814 972 l 814 851 l 272 851 l 272 551 l 757 551 l 757 431 l 272 431 l 272 121 l 831 121 l 831 0 l 139 0 l 139 972 m 369 1210 q 421 1189 400 1210 q 442 1135 442 1168 q 421 1081 442 1103 q 369 1058 400 1058 q 317 1081 339 1058 q 296 1135 296 1103 q 317 1189 296 1168 q 369 1210 338 1210 m 608 1210 q 661 1189 640 1210 q 682 1135 682 1168 q 660 1081 682 1103 q 608 1058 639 1058 q 556 1081 578 1058 q 535 1135 535 1103 q 556 1189 535 1168 q 608 1210 576 1210 z "},"Ė":{"ha":907,"x_min":139,"x_max":831,"o":"m 139 972 l 814 972 l 814 851 l 272 851 l 272 551 l 757 551 l 757 431 l 272 431 l 272 121 l 831 121 l 831 0 l 139 0 l 139 972 m 488 1225 q 544 1201 521 1225 q 568 1142 568 1178 q 544 1083 568 1107 q 488 1058 521 1058 q 430 1082 453 1058 q 407 1142 407 1106 q 430 1201 407 1178 q 488 1225 453 1225 z "},"Ẹ":{"ha":907,"x_min":139,"x_max":831,"o":"m 139 972 l 814 972 l 814 851 l 272 851 l 272 551 l 757 551 l 757 431 l 272 431 l 272 121 l 831 121 l 831 0 l 139 0 l 139 972 m 485 -103 q 542 -126 519 -103 q 565 -186 565 -150 q 542 -246 565 -222 q 485 -269 519 -269 q 427 -246 450 -269 q 404 -186 404 -222 q 427 -126 404 -150 q 485 -103 450 -103 z "},"È":{"ha":907,"x_min":139,"x_max":831,"o":"m 139 972 l 814 972 l 814 851 l 272 851 l 272 551 l 757 551 l 757 431 l 272 431 l 272 121 l 831 121 l 831 0 l 139 0 l 139 972 m 407 1253 l 556 1072 l 446 1058 l 274 1194 l 407 1253 z "},"Ẻ":{"ha":907,"x_min":139,"x_max":831,"o":"m 139 972 l 814 972 l 814 851 l 272 851 l 272 551 l 757 551 l 757 431 l 272 431 l 272 121 l 831 121 l 831 0 l 139 0 l 139 972 m 482 1314 q 576 1285 539 1314 q 614 1203 614 1256 q 586 1118 614 1164 q 514 1035 558 1072 l 442 1068 q 486 1126 469 1094 q 503 1181 503 1157 q 489 1211 503 1199 q 456 1224 475 1224 q 401 1206 429 1224 l 358 1275 q 482 1314 417 1314 z "},"Ȇ":{"ha":907,"x_min":139,"x_max":831,"o":"m 139 972 l 814 972 l 814 851 l 272 851 l 272 551 l 757 551 l 757 431 l 272 431 l 272 121 l 831 121 l 831 0 l 139 0 l 139 972 m 303 1064 q 357 1199 306 1147 q 488 1250 408 1250 q 617 1199 565 1250 q 672 1064 669 1147 l 582 1064 q 553 1134 579 1107 q 488 1161 526 1161 q 422 1134 449 1161 q 393 1064 396 1107 l 303 1064 z "},"Ē":{"ha":907,"x_min":139,"x_max":831,"o":"m 139 972 l 814 972 l 814 851 l 272 851 l 272 551 l 757 551 l 757 431 l 272 431 l 272 121 l 831 121 l 831 0 l 139 0 l 139 972 m 274 1157 l 701 1157 l 701 1071 l 274 1071 l 274 1157 z "},"Ḗ":{"ha":907,"x_min":139,"x_max":831,"o":"m 139 972 l 814 972 l 814 851 l 272 851 l 272 551 l 757 551 l 757 431 l 272 431 l 272 121 l 831 121 l 831 0 l 139 0 l 139 972 z "},"Ḕ":{"ha":907,"x_min":139,"x_max":831,"o":"m 139 972 l 814 972 l 814 851 l 272 851 l 272 551 l 757 551 l 757 431 l 272 431 l 272 121 l 831 121 l 831 0 l 139 0 l 139 972 z "},"Ę":{"ha":907,"x_min":139,"x_max":831,"o":"m 831 0 q 730 -87 760 -51 q 700 -156 700 -122 q 743 -201 700 -201 q 797 -187 771 -201 l 829 -274 q 717 -300 776 -300 q 617 -269 654 -300 q 579 -179 579 -237 q 683 0 579 -85 l 139 0 l 139 972 l 814 972 l 814 851 l 272 851 l 272 551 l 757 551 l 757 431 l 272 431 l 272 121 l 831 121 l 831 0 z "},"Ẽ":{"ha":907,"x_min":139,"x_max":831,"o":"m 139 972 l 814 972 l 814 851 l 272 851 l 272 551 l 757 551 l 757 431 l 272 431 l 272 121 l 831 121 l 831 0 l 139 0 l 139 972 m 701 1228 q 674 1106 701 1154 q 589 1058 647 1058 q 534 1069 560 1058 q 474 1103 508 1081 q 434 1125 449 1118 q 407 1132 419 1132 q 363 1064 363 1132 l 272 1064 q 299 1185 272 1138 q 385 1233 326 1233 q 438 1223 414 1233 q 500 1190 463 1213 q 540 1168 525 1175 q 567 1161 554 1161 q 611 1228 611 1161 l 701 1228 z "},"F":{"ha":789,"x_min":139,"x_max":772,"o":"m 139 972 l 772 972 l 771 851 l 272 851 l 272 532 l 721 532 l 721 411 l 272 411 l 272 0 l 139 0 l 139 972 z "},"G":{"ha":1043,"x_min":53,"x_max":933,"o":"m 811 475 l 929 475 l 929 118 q 757 25 856 60 q 561 -10 658 -10 q 304 56 421 -10 q 120 237 188 122 q 53 488 53 351 q 121 737 53 624 q 307 915 189 850 q 568 981 425 981 q 766 944 669 981 q 933 846 863 908 l 857 749 q 723 833 799 803 q 568 863 647 863 q 376 813 464 863 q 238 676 289 763 q 188 488 188 590 q 239 298 188 385 q 378 160 290 211 q 569 110 465 110 q 694 130 631 110 q 811 186 757 150 l 811 475 z "},"Ğ":{"ha":1043,"x_min":53,"x_max":933,"o":"m 811 475 l 929 475 l 929 118 q 757 25 856 60 q 561 -10 658 -10 q 304 56 421 -10 q 120 237 188 122 q 53 488 53 351 q 121 737 53 624 q 307 915 189 850 q 568 981 425 981 q 766 944 669 981 q 933 846 863 908 l 857 749 q 723 833 799 803 q 568 863 647 863 q 376 813 464 863 q 238 676 289 763 q 188 488 188 590 q 239 298 188 385 q 378 160 290 211 q 569 110 465 110 q 694 130 631 110 q 811 186 757 150 l 811 475 m 440 1244 q 469 1175 443 1203 q 535 1147 496 1147 q 600 1175 574 1147 q 629 1244 626 1203 l 719 1244 q 665 1110 717 1161 q 535 1058 613 1058 q 404 1110 456 1058 q 350 1244 353 1161 l 440 1244 z "},"Ǧ":{"ha":1043,"x_min":53,"x_max":933,"o":"m 811 475 l 929 475 l 929 118 q 757 25 856 60 q 561 -10 658 -10 q 304 56 421 -10 q 120 237 188 122 q 53 488 53 351 q 121 737 53 624 q 307 915 189 850 q 568 981 425 981 q 766 944 669 981 q 933 846 863 908 l 857 749 q 723 833 799 803 q 568 863 647 863 q 376 813 464 863 q 238 676 289 763 q 188 488 188 590 q 239 298 188 385 q 378 160 290 211 q 569 110 465 110 q 694 130 631 110 q 811 186 757 150 l 811 475 m 588 1249 l 717 1249 l 571 1064 l 435 1064 l 289 1249 l 418 1249 l 503 1156 l 588 1249 z "},"Ĝ":{"ha":1043,"x_min":53,"x_max":933,"o":"m 811 475 l 929 475 l 929 118 q 757 25 856 60 q 561 -10 658 -10 q 304 56 421 -10 q 120 237 188 122 q 53 488 53 351 q 121 737 53 624 q 307 915 189 850 q 568 981 425 981 q 766 944 669 981 q 933 846 863 908 l 857 749 q 723 833 799 803 q 568 863 647 863 q 376 813 464 863 q 238 676 289 763 q 188 488 188 590 q 239 298 188 385 q 378 160 290 211 q 569 110 465 110 q 694 130 631 110 q 811 186 757 150 l 811 475 m 749 1065 l 619 1065 l 535 1158 l 450 1065 l 321 1065 l 467 1250 l 603 1250 l 749 1065 z "},"Ģ":{"ha":1043,"x_min":53,"x_max":933,"o":"m 811 475 l 929 475 l 929 118 q 757 25 856 60 q 561 -10 658 -10 q 304 56 421 -10 q 120 237 188 122 q 53 488 53 351 q 121 737 53 624 q 307 915 189 850 q 568 981 425 981 q 766 944 669 981 q 933 846 863 908 l 857 749 q 723 833 799 803 q 568 863 647 863 q 376 813 464 863 q 238 676 289 763 q 188 488 188 590 q 239 298 188 385 q 378 160 290 211 q 569 110 465 110 q 694 130 631 110 q 811 186 757 150 l 811 475 m 475 -82 l 597 -82 l 521 -303 l 426 -303 l 475 -82 z "},"Ġ":{"ha":1043,"x_min":53,"x_max":933,"o":"m 811 475 l 929 475 l 929 118 q 757 25 856 60 q 561 -10 658 -10 q 304 56 421 -10 q 120 237 188 122 q 53 488 53 351 q 121 737 53 624 q 307 915 189 850 q 568 981 425 981 q 766 944 669 981 q 933 846 863 908 l 857 749 q 723 833 799 803 q 568 863 647 863 q 376 813 464 863 q 238 676 289 763 q 188 488 188 590 q 239 298 188 385 q 378 160 290 211 q 569 110 465 110 q 694 130 631 110 q 811 186 757 150 l 811 475 m 535 1225 q 592 1201 568 1225 q 615 1142 615 1178 q 592 1083 615 1107 q 535 1058 568 1058 q 477 1082 500 1058 q 454 1142 454 1106 q 477 1201 454 1178 q 535 1225 500 1225 z "},"Ḡ":{"ha":1043,"x_min":53,"x_max":933,"o":"m 811 475 l 929 475 l 929 118 q 757 25 856 60 q 561 -10 658 -10 q 304 56 421 -10 q 120 237 188 122 q 53 488 53 351 q 121 737 53 624 q 307 915 189 850 q 568 981 425 981 q 766 944 669 981 q 933 846 863 908 l 857 749 q 723 833 799 803 q 568 863 647 863 q 376 813 464 863 q 238 676 289 763 q 188 488 188 590 q 239 298 188 385 q 378 160 290 211 q 569 110 465 110 q 694 130 631 110 q 811 186 757 150 l 811 475 m 321 1157 l 749 1157 l 749 1071 l 321 1071 l 321 1157 z "},"H":{"ha":1101,"x_min":139,"x_max":963,"o":"m 139 972 l 272 972 l 272 539 l 828 539 l 828 972 l 963 972 l 963 0 l 828 0 l 828 418 l 272 418 l 272 0 l 139 0 l 139 972 z "},"Ħ":{"ha":1101,"x_min":21,"x_max":1083,"o":"m 1083 810 l 1083 729 l 963 729 l 963 0 l 829 0 l 829 418 l 272 418 l 272 0 l 139 0 l 139 729 l 21 729 l 21 810 l 139 810 l 139 972 l 272 972 l 272 810 l 829 810 l 829 972 l 963 972 l 963 810 l 1083 810 m 829 539 l 829 729 l 272 729 l 272 539 l 829 539 z "},"Ḫ":{"ha":1101,"x_min":139,"x_max":963,"o":"m 139 972 l 272 972 l 272 539 l 828 539 l 828 972 l 963 972 l 963 0 l 828 0 l 828 418 l 272 418 l 272 0 l 139 0 l 139 972 m 456 -69 q 485 -139 458 -111 q 550 -167 511 -167 q 615 -139 589 -167 q 644 -69 642 -111 l 735 -69 q 680 -204 732 -153 q 550 -256 628 -256 q 419 -204 471 -256 q 365 -69 368 -153 l 456 -69 z "},"Ĥ":{"ha":1101,"x_min":139,"x_max":963,"o":"m 139 972 l 272 972 l 272 539 l 828 539 l 828 972 l 963 972 l 963 0 l 828 0 l 828 418 l 272 418 l 272 0 l 139 0 l 139 972 m 769 1065 l 640 1065 l 556 1158 l 471 1065 l 342 1065 l 488 1250 l 624 1250 l 769 1065 z "},"Ḥ":{"ha":1101,"x_min":139,"x_max":963,"o":"m 139 972 l 272 972 l 272 539 l 828 539 l 828 972 l 963 972 l 963 0 l 828 0 l 828 418 l 272 418 l 272 0 l 139 0 l 139 972 m 550 -103 q 608 -126 585 -103 q 631 -186 631 -150 q 608 -246 631 -222 q 550 -269 585 -269 q 492 -246 515 -269 q 469 -186 469 -222 q 492 -126 469 -150 q 550 -103 515 -103 z "},"I":{"ha":411,"x_min":139,"x_max":272,"o":"m 139 972 l 272 972 l 272 0 l 139 0 l 139 972 z "},"Ĳ":{"ha":1114,"x_min":139,"x_max":975,"o":"m 139 972 l 272 972 l 272 0 l 139 0 l 139 972 m 975 294 q 899 73 975 151 q 686 -6 822 -6 q 533 31 604 -6 q 410 133 463 67 l 475 236 q 576 153 521 182 q 685 125 631 125 q 800 170 760 125 q 840 299 840 215 l 840 850 l 497 850 l 497 972 l 975 972 l 975 294 z "},"Í":{"ha":411,"x_min":133,"x_max":415,"o":"m 139 972 l 272 972 l 272 0 l 139 0 l 139 972 m 282 1253 l 415 1194 l 243 1058 l 133 1072 l 282 1253 z "},"Ĭ":{"ha":411,"x_min":21,"x_max":390,"o":"m 139 972 l 272 972 l 272 0 l 139 0 l 139 972 m 111 1244 q 140 1175 114 1203 q 206 1147 167 1147 q 271 1175 244 1147 q 300 1244 297 1203 l 390 1244 q 335 1110 388 1161 q 206 1058 283 1058 q 75 1110 126 1058 q 21 1244 24 1161 l 111 1244 z "},"Î":{"ha":411,"x_min":-8,"x_max":419,"o":"m 139 972 l 272 972 l 272 0 l 139 0 l 139 972 m 419 1065 l 290 1065 l 206 1158 l 121 1065 l -8 1065 l 138 1250 l 274 1250 l 419 1065 z "},"Ȉ":{"ha":411,"x_min":-65,"x_max":376,"o":"m 139 972 l 272 972 l 272 0 l 139 0 l 139 972 m 46 1261 l 161 1071 l 63 1058 l -65 1208 l 46 1261 m 261 1261 l 376 1071 l 278 1058 l 150 1208 l 261 1261 z "},"Ï":{"ha":411,"x_min":14,"x_max":400,"o":"m 139 972 l 272 972 l 272 0 l 139 0 l 139 972 m 88 1210 q 139 1189 118 1210 q 160 1135 160 1168 q 139 1081 160 1103 q 88 1058 118 1058 q 35 1081 57 1058 q 14 1135 14 1103 q 35 1189 14 1168 q 88 1210 56 1210 m 326 1210 q 379 1189 358 1210 q 400 1135 400 1168 q 378 1081 400 1103 q 326 1058 357 1058 q 274 1081 296 1058 q 253 1135 253 1103 q 274 1189 253 1168 q 326 1210 294 1210 z "},"Ḯ":{"ha":411,"x_min":18,"x_max":396,"o":"m 139 972 l 272 972 l 272 0 l 139 0 l 139 972 z "},"İ":{"ha":411,"x_min":125,"x_max":286,"o":"m 139 972 l 272 972 l 272 0 l 139 0 l 139 972 m 206 1225 q 263 1201 239 1225 q 286 1142 286 1178 q 263 1083 286 1107 q 206 1058 239 1058 q 148 1082 171 1058 q 125 1142 125 1106 q 148 1201 125 1178 q 206 1225 171 1225 z "},"Ị":{"ha":411,"x_min":125,"x_max":286,"o":"m 139 972 l 272 972 l 272 0 l 139 0 l 139 972 m 206 -103 q 263 -126 240 -103 q 286 -186 286 -150 q 263 -246 286 -222 q 206 -269 240 -269 q 148 -246 171 -269 q 125 -186 125 -222 q 148 -126 125 -150 q 206 -103 171 -103 z "},"Ì":{"ha":411,"x_min":-8,"x_max":274,"o":"m 139 972 l 272 972 l 272 0 l 139 0 l 139 972 m 125 1253 l 274 1072 l 164 1058 l -8 1194 l 125 1253 z "},"Ỉ":{"ha":411,"x_min":76,"x_max":332,"o":"m 139 972 l 272 972 l 272 0 l 139 0 l 139 972 m 200 1314 q 294 1285 257 1314 q 332 1203 332 1256 q 304 1118 332 1164 q 232 1035 276 1072 l 160 1068 q 204 1126 188 1094 q 221 1181 221 1157 q 207 1211 221 1199 q 174 1224 193 1224 q 119 1206 147 1224 l 76 1275 q 200 1314 135 1314 z "},"Ȋ":{"ha":411,"x_min":21,"x_max":390,"o":"m 139 972 l 272 972 l 272 0 l 139 0 l 139 972 m 21 1064 q 75 1199 24 1147 q 206 1250 126 1250 q 335 1199 283 1250 q 390 1064 388 1147 l 300 1064 q 271 1134 297 1107 q 206 1161 244 1161 q 140 1134 167 1161 q 111 1064 114 1107 l 21 1064 z "},"Ī":{"ha":411,"x_min":6,"x_max":404,"o":"m 139 972 l 272 972 l 272 0 l 139 0 l 139 972 m 6 1157 l 404 1157 l 404 1071 l 6 1071 l 6 1157 z "},"Į":{"ha":411,"x_min":21,"x_max":272,"o":"m 272 0 q 172 -87 201 -51 q 142 -156 142 -122 q 185 -201 142 -201 q 239 -187 213 -201 l 271 -274 q 158 -300 218 -300 q 58 -269 96 -300 q 21 -179 21 -237 q 139 11 21 -78 l 139 972 l 272 972 l 272 0 z "},"Ĩ":{"ha":411,"x_min":-10,"x_max":419,"o":"m 139 972 l 272 972 l 272 0 l 139 0 l 139 972 m 419 1228 q 392 1106 419 1154 q 307 1058 365 1058 q 252 1069 278 1058 q 192 1103 226 1081 q 152 1125 167 1118 q 125 1132 138 1132 q 81 1064 81 1132 l -10 1064 q 17 1185 -10 1138 q 103 1233 44 1233 q 156 1223 132 1233 q 218 1190 181 1213 q 258 1168 243 1175 q 285 1161 272 1161 q 329 1228 329 1161 l 419 1228 z "},"J":{"ha":681,"x_min":-1,"x_max":564,"o":"m 564 294 q 488 73 564 151 q 275 -6 411 -6 q 122 31 193 -6 q -1 133 51 67 l 64 236 q 165 153 110 182 q 274 125 219 125 q 389 170 349 125 q 429 299 429 215 l 429 850 l 86 850 l 86 972 l 564 972 l 564 294 z "},"Ĵ":{"ha":681,"x_min":-1,"x_max":564,"o":"m 564 294 q 488 73 564 151 q 275 -6 411 -6 q 122 31 193 -6 q -1 133 51 67 l 64 236 q 165 153 110 182 q 274 125 219 125 q 389 170 349 125 q 429 299 429 215 l 429 850 l 86 850 l 86 972 l 564 972 l 564 294 m 533 1065 l 404 1065 l 319 1158 l 235 1065 l 106 1065 l 251 1250 l 388 1250 l 533 1065 z "},"K":{"ha":982,"x_min":139,"x_max":954,"o":"m 954 0 l 793 0 l 451 449 l 272 254 l 272 0 l 139 0 l 139 972 l 272 972 l 272 426 l 769 972 l 929 972 l 544 553 l 954 0 z "},"Ķ":{"ha":982,"x_min":139,"x_max":954,"o":"m 954 0 l 793 0 l 451 449 l 272 254 l 272 0 l 139 0 l 139 972 l 272 972 l 272 426 l 769 972 l 929 972 l 544 553 l 954 0 m 425 -82 l 547 -82 l 471 -303 l 376 -303 l 425 -82 z "},"L":{"ha":728,"x_min":139,"x_max":697,"o":"m 139 972 l 272 972 l 272 121 l 697 121 l 697 0 l 139 0 l 139 972 z "},"Ǉ":{"ha":1410,"x_min":139,"x_max":1292,"o":"m 139 972 l 272 972 l 272 121 l 697 121 l 697 0 l 139 0 l 139 972 m 1292 294 q 1215 73 1292 151 q 1003 -6 1139 -6 q 850 31 921 -6 q 726 133 779 67 l 792 236 q 892 153 838 182 q 1001 125 947 125 q 1117 170 1076 125 q 1157 299 1157 215 l 1157 850 l 814 850 l 814 972 l 1292 972 l 1292 294 z "},"Ĺ":{"ha":728,"x_min":139,"x_max":697,"o":"m 139 972 l 272 972 l 272 121 l 697 121 l 697 0 l 139 0 l 139 972 m 288 1253 l 421 1194 l 249 1058 l 139 1072 l 288 1253 z "},"Ľ":{"ha":728,"x_min":139,"x_max":697,"o":"m 139 972 l 272 972 l 272 121 l 697 121 l 697 0 l 139 0 l 139 972 m 574 972 l 696 972 l 663 699 l 574 699 l 574 972 z "},"Ļ":{"ha":728,"x_min":139,"x_max":697,"o":"m 139 972 l 272 972 l 272 121 l 697 121 l 697 0 l 139 0 l 139 972 m 358 -82 l 481 -82 l 404 -303 l 310 -303 l 358 -82 z "},"Ŀ":{"ha":728,"x_min":139,"x_max":697,"o":"m 139 972 l 272 972 l 272 121 l 697 121 l 697 0 l 139 0 l 139 972 z "},"Ḷ":{"ha":728,"x_min":139,"x_max":697,"o":"m 139 972 l 272 972 l 272 121 l 697 121 l 697 0 l 139 0 l 139 972 m 418 -103 q 476 -126 453 -103 q 499 -186 499 -150 q 476 -246 499 -222 q 418 -269 453 -269 q 360 -246 383 -269 q 338 -186 338 -222 q 360 -126 338 -150 q 418 -103 383 -103 z "},"ǈ":{"ha":1093,"x_min":139,"x_max":996,"o":"m 139 972 l 272 972 l 272 121 l 697 121 l 697 0 l 139 0 l 139 972 m 676 -150 q 743 -164 707 -161 q 824 -128 796 -165 q 851 -18 851 -90 l 851 735 l 982 735 l 982 -36 q 927 -212 982 -150 q 772 -274 872 -274 q 646 -249 710 -274 l 676 -150 m 915 1028 q 973 1004 950 1028 q 996 944 996 981 q 973 885 996 908 q 915 861 950 861 q 858 885 881 861 q 835 944 835 908 q 858 1004 835 981 q 915 1028 881 1028 z "},"Ḻ":{"ha":728,"x_min":139,"x_max":697,"o":"m 139 972 l 272 972 l 272 121 l 697 121 l 697 0 l 139 0 l 139 972 m 218 -114 l 617 -114 l 617 -200 l 218 -200 l 218 -114 z "},"Ł":{"ha":767,"x_min":35,"x_max":735,"o":"m 311 121 l 735 121 l 735 0 l 178 0 l 178 457 l 35 381 l 35 464 l 178 540 l 178 972 l 311 972 l 311 613 l 478 701 l 478 618 l 311 529 l 311 121 z "},"M":{"ha":1304,"x_min":139,"x_max":1165,"o":"m 139 972 l 297 972 l 653 289 l 1006 972 l 1165 972 l 1165 0 l 1040 0 l 1039 776 l 693 103 l 611 103 l 263 776 l 263 0 l 139 0 l 139 972 z "},"Ṃ":{"ha":1304,"x_min":139,"x_max":1165,"o":"m 139 972 l 297 972 l 653 289 l 1006 972 l 1165 972 l 1165 0 l 1040 0 l 1039 776 l 693 103 l 611 103 l 263 776 l 263 0 l 139 0 l 139 972 m 651 -103 q 709 -126 686 -103 q 732 -186 732 -150 q 709 -246 732 -222 q 651 -269 686 -269 q 594 -246 617 -269 q 571 -186 571 -222 q 594 -126 571 -150 q 651 -103 617 -103 z "},"N":{"ha":1103,"x_min":139,"x_max":963,"o":"m 831 972 l 963 972 l 963 0 l 828 0 l 272 753 l 272 0 l 139 0 l 139 972 l 274 972 l 831 218 l 831 972 z "},"Ǌ":{"ha":1783,"x_min":139,"x_max":1667,"o":"m 831 972 l 963 972 l 963 0 l 828 0 l 272 753 l 272 0 l 139 0 l 139 972 l 274 972 l 831 218 l 831 972 m 1667 294 q 1590 73 1667 151 q 1378 -6 1514 -6 q 1225 31 1296 -6 q 1101 133 1154 67 l 1167 236 q 1267 153 1213 182 q 1376 125 1322 125 q 1492 170 1451 125 q 1532 299 1532 215 l 1532 850 l 1189 850 l 1189 972 l 1667 972 l 1667 294 z "},"Ń":{"ha":1103,"x_min":139,"x_max":963,"o":"m 831 972 l 963 972 l 963 0 l 828 0 l 272 753 l 272 0 l 139 0 l 139 972 l 274 972 l 831 218 l 831 972 m 643 1253 l 776 1194 l 604 1058 l 494 1072 l 643 1253 z "},"Ň":{"ha":1103,"x_min":139,"x_max":963,"o":"m 831 972 l 963 972 l 963 0 l 828 0 l 272 753 l 272 0 l 139 0 l 139 972 l 274 972 l 831 218 l 831 972 m 619 1249 l 749 1249 l 603 1064 l 467 1064 l 321 1249 l 450 1249 l 535 1156 l 619 1249 z "},"Ņ":{"ha":1103,"x_min":139,"x_max":963,"o":"m 831 972 l 963 972 l 963 0 l 828 0 l 272 753 l 272 0 l 139 0 l 139 972 l 274 972 l 831 218 l 831 972 m 490 -82 l 613 -82 l 536 -303 l 442 -303 l 490 -82 z "},"Ṅ":{"ha":1103,"x_min":139,"x_max":963,"o":"m 831 972 l 963 972 l 963 0 l 828 0 l 272 753 l 272 0 l 139 0 l 139 972 l 274 972 l 831 218 l 831 972 m 567 1225 q 624 1201 600 1225 q 647 1142 647 1178 q 624 1083 647 1107 q 567 1058 600 1058 q 509 1082 532 1058 q 486 1142 486 1106 q 509 1201 486 1178 q 567 1225 532 1225 z "},"Ṇ":{"ha":1103,"x_min":139,"x_max":963,"o":"m 831 972 l 963 972 l 963 0 l 828 0 l 272 753 l 272 0 l 139 0 l 139 972 l 274 972 l 831 218 l 831 972 m 550 -103 q 608 -126 585 -103 q 631 -186 631 -150 q 608 -246 631 -222 q 550 -269 585 -269 q 492 -246 515 -269 q 469 -186 469 -222 q 492 -126 469 -150 q 550 -103 515 -103 z "},"Ŋ":{"ha":1103,"x_min":139,"x_max":963,"o":"m 963 972 l 963 0 q 885 -205 963 -129 q 674 -281 807 -281 q 526 -251 594 -281 q 408 -165 458 -221 l 474 -62 q 569 -128 517 -106 q 671 -150 621 -150 q 780 -111 739 -150 q 826 1 821 -72 l 272 750 l 272 0 l 139 0 l 139 972 l 274 972 l 831 221 l 831 972 l 963 972 z "},"ǋ":{"ha":1467,"x_min":139,"x_max":1371,"o":"m 831 972 l 963 972 l 963 0 l 828 0 l 272 753 l 272 0 l 139 0 l 139 972 l 274 972 l 831 218 l 831 972 m 1051 -150 q 1118 -164 1082 -161 q 1199 -128 1171 -165 q 1226 -18 1226 -90 l 1226 735 l 1357 735 l 1357 -36 q 1302 -212 1357 -150 q 1147 -274 1247 -274 q 1021 -249 1085 -274 l 1051 -150 m 1290 1028 q 1348 1004 1325 1028 q 1371 944 1371 981 q 1348 885 1371 908 q 1290 861 1325 861 q 1233 885 1256 861 q 1210 944 1210 908 q 1233 1004 1210 981 q 1290 1028 1256 1028 z "},"Ṉ":{"ha":1103,"x_min":139,"x_max":963,"o":"m 831 972 l 963 972 l 963 0 l 828 0 l 272 753 l 272 0 l 139 0 l 139 972 l 274 972 l 831 218 l 831 972 m 350 -114 l 749 -114 l 749 -200 l 350 -200 l 350 -114 z "},"Ñ":{"ha":1103,"x_min":139,"x_max":963,"o":"m 831 972 l 963 972 l 963 0 l 828 0 l 272 753 l 272 0 l 139 0 l 139 972 l 274 972 l 831 218 l 831 972 m 781 1228 q 753 1106 781 1154 q 668 1058 726 1058 q 613 1069 639 1058 q 553 1103 588 1081 q 513 1125 528 1118 q 486 1132 499 1132 q 442 1064 442 1132 l 351 1064 q 378 1185 351 1138 q 464 1233 406 1233 q 517 1223 493 1233 q 579 1190 542 1213 q 619 1168 604 1175 q 646 1161 633 1161 q 690 1228 690 1161 l 781 1228 z "},"O":{"ha":1128,"x_min":53,"x_max":1075,"o":"m 564 981 q 822 915 704 981 q 1007 737 939 850 q 1075 488 1075 624 q 1007 237 1075 351 q 822 56 939 122 q 564 -10 704 -10 q 306 56 424 -10 q 121 237 189 122 q 53 488 53 351 q 121 737 53 624 q 306 915 189 850 q 564 981 422 981 m 565 861 q 377 811 464 861 q 239 676 290 761 q 188 488 188 590 q 239 299 188 385 q 377 162 290 213 q 565 111 464 111 q 752 162 667 111 q 888 299 838 213 q 939 488 939 385 q 888 676 939 590 q 752 811 838 761 q 565 861 667 861 z "},"Ó":{"ha":1128,"x_min":53,"x_max":1075,"o":"m 564 981 q 822 915 704 981 q 1007 737 939 850 q 1075 488 1075 624 q 1007 237 1075 351 q 822 56 939 122 q 564 -10 704 -10 q 306 56 424 -10 q 121 237 189 122 q 53 488 53 351 q 121 737 53 624 q 306 915 189 850 q 564 981 422 981 m 565 861 q 377 811 464 861 q 239 676 290 761 q 188 488 188 590 q 239 299 188 385 q 377 162 290 213 q 565 111 464 111 q 752 162 667 111 q 888 299 838 213 q 939 488 939 385 q 888 676 939 590 q 752 811 838 761 q 565 861 667 861 m 640 1253 l 774 1194 l 601 1058 l 492 1072 l 640 1253 z "},"Ŏ":{"ha":1128,"x_min":53,"x_max":1075,"o":"m 564 981 q 822 915 704 981 q 1007 737 939 850 q 1075 488 1075 624 q 1007 237 1075 351 q 822 56 939 122 q 564 -10 704 -10 q 306 56 424 -10 q 121 237 189 122 q 53 488 53 351 q 121 737 53 624 q 306 915 189 850 q 564 981 422 981 m 565 861 q 377 811 464 861 q 239 676 290 761 q 188 488 188 590 q 239 299 188 385 q 377 162 290 213 q 565 111 464 111 q 752 162 667 111 q 888 299 838 213 q 939 488 939 385 q 888 676 939 590 q 752 811 838 761 q 565 861 667 861 m 469 1244 q 499 1175 472 1203 q 564 1147 525 1147 q 629 1175 603 1147 q 658 1244 656 1203 l 749 1244 q 694 1110 746 1161 q 564 1058 642 1058 q 433 1110 485 1058 q 379 1244 382 1161 l 469 1244 z "},"Ô":{"ha":1128,"x_min":53,"x_max":1075,"o":"m 564 981 q 822 915 704 981 q 1007 737 939 850 q 1075 488 1075 624 q 1007 237 1075 351 q 822 56 939 122 q 564 -10 704 -10 q 306 56 424 -10 q 121 237 189 122 q 53 488 53 351 q 121 737 53 624 q 306 915 189 850 q 564 981 422 981 m 565 861 q 377 811 464 861 q 239 676 290 761 q 188 488 188 590 q 239 299 188 385 q 377 162 290 213 q 565 111 464 111 q 752 162 667 111 q 888 299 838 213 q 939 488 939 385 q 888 676 939 590 q 752 811 838 761 q 565 861 667 861 m 778 1065 l 649 1065 l 564 1158 l 479 1065 l 350 1065 l 496 1250 l 632 1250 l 778 1065 z "},"Ố":{"ha":1128,"x_min":53,"x_max":1075,"o":"m 564 981 q 822 915 704 981 q 1007 737 939 850 q 1075 488 1075 624 q 1007 237 1075 351 q 822 56 939 122 q 564 -10 704 -10 q 306 56 424 -10 q 121 237 189 122 q 53 488 53 351 q 121 737 53 624 q 306 915 189 850 q 564 981 422 981 m 565 861 q 377 811 464 861 q 239 676 290 761 q 188 488 188 590 q 239 299 188 385 q 377 162 290 213 q 565 111 464 111 q 752 162 667 111 q 888 299 838 213 q 939 488 939 385 q 888 676 939 590 q 752 811 838 761 q 565 861 667 861 m 804 1050 l 665 1050 l 567 1128 l 467 1050 l 328 1050 l 475 1183 l 656 1183 l 804 1050 m 650 1406 l 761 1331 l 568 1226 l 469 1257 l 650 1406 z "},"Ộ":{"ha":1128,"x_min":53,"x_max":1075,"o":"m 564 981 q 822 915 704 981 q 1007 737 939 850 q 1075 488 1075 624 q 1007 237 1075 351 q 822 56 939 122 q 564 -10 704 -10 q 306 56 424 -10 q 121 237 189 122 q 53 488 53 351 q 121 737 53 624 q 306 915 189 850 q 564 981 422 981 m 565 861 q 377 811 464 861 q 239 676 290 761 q 188 488 188 590 q 239 299 188 385 q 377 162 290 213 q 565 111 464 111 q 752 162 667 111 q 888 299 838 213 q 939 488 939 385 q 888 676 939 590 q 752 811 838 761 q 565 861 667 861 m 564 -103 q 622 -126 599 -103 q 644 -186 644 -150 q 622 -246 644 -222 q 564 -269 599 -269 q 506 -246 529 -269 q 483 -186 483 -222 q 506 -126 483 -150 q 564 -103 529 -103 m 778 1065 l 649 1065 l 564 1158 l 479 1065 l 350 1065 l 496 1250 l 632 1250 l 778 1065 z "},"Ồ":{"ha":1128,"x_min":53,"x_max":1075,"o":"m 564 981 q 822 915 704 981 q 1007 737 939 850 q 1075 488 1075 624 q 1007 237 1075 351 q 822 56 939 122 q 564 -10 704 -10 q 306 56 424 -10 q 121 237 189 122 q 53 488 53 351 q 121 737 53 624 q 306 915 189 850 q 564 981 422 981 m 565 861 q 377 811 464 861 q 239 676 290 761 q 188 488 188 590 q 239 299 188 385 q 377 162 290 213 q 565 111 464 111 q 752 162 667 111 q 888 299 838 213 q 939 488 939 385 q 888 676 939 590 q 752 811 838 761 q 565 861 667 861 m 801 1050 l 663 1050 l 564 1128 l 464 1050 l 325 1050 l 472 1183 l 653 1183 l 801 1050 m 468 1406 l 649 1257 l 550 1226 l 357 1331 l 468 1406 z "},"Ổ":{"ha":1128,"x_min":53,"x_max":1075,"o":"m 564 981 q 822 915 704 981 q 1007 737 939 850 q 1075 488 1075 624 q 1007 237 1075 351 q 822 56 939 122 q 564 -10 704 -10 q 306 56 424 -10 q 121 237 189 122 q 53 488 53 351 q 121 737 53 624 q 306 915 189 850 q 564 981 422 981 m 565 861 q 377 811 464 861 q 239 676 290 761 q 188 488 188 590 q 239 299 188 385 q 377 162 290 213 q 565 111 464 111 q 752 162 667 111 q 888 299 838 213 q 939 488 939 385 q 888 676 939 590 q 752 811 838 761 q 565 861 667 861 m 822 1050 l 683 1050 l 585 1128 l 485 1050 l 346 1050 l 493 1183 l 674 1183 l 822 1050 m 575 1444 q 658 1419 626 1444 q 689 1354 689 1394 q 665 1288 689 1322 q 599 1224 640 1254 l 531 1251 q 572 1292 557 1271 q 586 1331 586 1314 q 575 1353 586 1344 q 547 1363 564 1363 q 501 1349 524 1363 l 461 1408 q 575 1444 514 1444 z "},"Ỗ":{"ha":1128,"x_min":53,"x_max":1075,"o":"m 564 981 q 822 915 704 981 q 1007 737 939 850 q 1075 488 1075 624 q 1007 237 1075 351 q 822 56 939 122 q 564 -10 704 -10 q 306 56 424 -10 q 121 237 189 122 q 53 488 53 351 q 121 737 53 624 q 306 915 189 850 q 564 981 422 981 m 565 861 q 377 811 464 861 q 239 676 290 761 q 188 488 188 590 q 239 299 188 385 q 377 162 290 213 q 565 111 464 111 q 752 162 667 111 q 888 299 838 213 q 939 488 939 385 q 888 676 939 590 q 752 811 838 761 q 565 861 667 861 m 806 1050 l 667 1050 l 568 1128 l 468 1050 l 329 1050 l 476 1183 l 657 1183 l 806 1050 m 778 1385 q 751 1278 778 1318 q 668 1238 725 1238 q 611 1248 638 1238 q 550 1276 585 1258 q 479 1304 501 1304 q 442 1288 453 1304 q 431 1242 431 1272 l 354 1242 q 381 1349 354 1308 q 465 1390 408 1390 q 520 1381 494 1390 q 583 1351 546 1371 q 624 1331 607 1338 q 656 1324 640 1324 q 703 1385 703 1324 l 778 1385 z "},"Ȍ":{"ha":1128,"x_min":53,"x_max":1075,"o":"m 564 981 q 822 915 704 981 q 1007 737 939 850 q 1075 488 1075 624 q 1007 237 1075 351 q 822 56 939 122 q 564 -10 704 -10 q 306 56 424 -10 q 121 237 189 122 q 53 488 53 351 q 121 737 53 624 q 306 915 189 850 q 564 981 422 981 m 565 861 q 377 811 464 861 q 239 676 290 761 q 188 488 188 590 q 239 299 188 385 q 377 162 290 213 q 565 111 464 111 q 752 162 667 111 q 888 299 838 213 q 939 488 939 385 q 888 676 939 590 q 752 811 838 761 q 565 861 667 861 m 404 1261 l 519 1071 l 421 1058 l 293 1208 l 404 1261 m 619 1261 l 735 1071 l 636 1058 l 508 1208 l 619 1261 z "},"Ö":{"ha":1128,"x_min":53,"x_max":1075,"o":"m 564 981 q 822 915 704 981 q 1007 737 939 850 q 1075 488 1075 624 q 1007 237 1075 351 q 822 56 939 122 q 564 -10 704 -10 q 306 56 424 -10 q 121 237 189 122 q 53 488 53 351 q 121 737 53 624 q 306 915 189 850 q 564 981 422 981 m 565 861 q 377 811 464 861 q 239 676 290 761 q 188 488 188 590 q 239 299 188 385 q 377 162 290 213 q 565 111 464 111 q 752 162 667 111 q 888 299 838 213 q 939 488 939 385 q 888 676 939 590 q 752 811 838 761 q 565 861 667 861 m 446 1210 q 497 1189 476 1210 q 518 1135 518 1168 q 497 1081 518 1103 q 446 1058 476 1058 q 394 1081 415 1058 q 372 1135 372 1103 q 393 1189 372 1168 q 446 1210 414 1210 m 685 1210 q 738 1189 717 1210 q 758 1135 758 1168 q 737 1081 758 1103 q 685 1058 715 1058 q 633 1081 654 1058 q 611 1135 611 1103 q 632 1189 611 1168 q 685 1210 653 1210 z "},"Ȫ":{"ha":1128,"x_min":53,"x_max":1075,"o":"m 564 981 q 822 915 704 981 q 1007 737 939 850 q 1075 488 1075 624 q 1007 237 1075 351 q 822 56 939 122 q 564 -10 704 -10 q 306 56 424 -10 q 121 237 189 122 q 53 488 53 351 q 121 737 53 624 q 306 915 189 850 q 564 981 422 981 m 565 861 q 377 811 464 861 q 239 676 290 761 q 188 488 188 590 q 239 299 188 385 q 377 162 290 213 q 565 111 464 111 q 752 162 667 111 q 888 299 838 213 q 939 488 939 385 q 888 676 939 590 q 752 811 838 761 q 565 861 667 861 z "},"Ȱ":{"ha":1128,"x_min":53,"x_max":1075,"o":"m 564 981 q 822 915 704 981 q 1007 737 939 850 q 1075 488 1075 624 q 1007 237 1075 351 q 822 56 939 122 q 564 -10 704 -10 q 306 56 424 -10 q 121 237 189 122 q 53 488 53 351 q 121 737 53 624 q 306 915 189 850 q 564 981 422 981 m 565 861 q 377 811 464 861 q 239 676 290 761 q 188 488 188 590 q 239 299 188 385 q 377 162 290 213 q 565 111 464 111 q 752 162 667 111 q 888 299 838 213 q 939 488 939 385 q 888 676 939 590 q 752 811 838 761 q 565 861 667 861 z "},"Ọ":{"ha":1128,"x_min":53,"x_max":1075,"o":"m 564 981 q 822 915 704 981 q 1007 737 939 850 q 1075 488 1075 624 q 1007 237 1075 351 q 822 56 939 122 q 564 -10 704 -10 q 306 56 424 -10 q 121 237 189 122 q 53 488 53 351 q 121 737 53 624 q 306 915 189 850 q 564 981 422 981 m 565 861 q 377 811 464 861 q 239 676 290 761 q 188 488 188 590 q 239 299 188 385 q 377 162 290 213 q 565 111 464 111 q 752 162 667 111 q 888 299 838 213 q 939 488 939 385 q 888 676 939 590 q 752 811 838 761 q 565 861 667 861 m 564 -103 q 622 -126 599 -103 q 644 -186 644 -150 q 622 -246 644 -222 q 564 -269 599 -269 q 506 -246 529 -269 q 483 -186 483 -222 q 506 -126 483 -150 q 564 -103 529 -103 z "},"Ò":{"ha":1128,"x_min":53,"x_max":1075,"o":"m 564 981 q 822 915 704 981 q 1007 737 939 850 q 1075 488 1075 624 q 1007 237 1075 351 q 822 56 939 122 q 564 -10 704 -10 q 306 56 424 -10 q 121 237 189 122 q 53 488 53 351 q 121 737 53 624 q 306 915 189 850 q 564 981 422 981 m 565 861 q 377 811 464 861 q 239 676 290 761 q 188 488 188 590 q 239 299 188 385 q 377 162 290 213 q 565 111 464 111 q 752 162 667 111 q 888 299 838 213 q 939 488 939 385 q 888 676 939 590 q 752 811 838 761 q 565 861 667 861 m 483 1253 l 632 1072 l 522 1058 l 350 1194 l 483 1253 z "},"Ỏ":{"ha":1128,"x_min":53,"x_max":1075,"o":"m 564 981 q 822 915 704 981 q 1007 737 939 850 q 1075 488 1075 624 q 1007 237 1075 351 q 822 56 939 122 q 564 -10 704 -10 q 306 56 424 -10 q 121 237 189 122 q 53 488 53 351 q 121 737 53 624 q 306 915 189 850 q 564 981 422 981 m 565 861 q 377 811 464 861 q 239 676 290 761 q 188 488 188 590 q 239 299 188 385 q 377 162 290 213 q 565 111 464 111 q 752 162 667 111 q 888 299 838 213 q 939 488 939 385 q 888 676 939 590 q 752 811 838 761 q 565 861 667 861 m 558 1314 q 653 1285 615 1314 q 690 1203 690 1256 q 663 1118 690 1164 q 590 1035 635 1072 l 518 1068 q 563 1126 546 1094 q 579 1181 579 1157 q 565 1211 579 1199 q 532 1224 551 1224 q 478 1206 506 1224 l 435 1275 q 558 1314 493 1314 z "},"Ơ":{"ha":1163,"x_min":53,"x_max":1075,"o":"m 917 847 q 1033 686 992 779 q 1075 488 1075 593 q 1007 237 1075 351 q 822 56 939 122 q 564 -10 704 -10 q 306 56 424 -10 q 121 237 189 122 q 53 488 53 351 q 121 737 53 624 q 306 915 189 850 q 564 981 422 981 q 785 933 682 981 l 785 935 q 843 924 811 924 q 910 953 886 924 q 935 1025 935 982 q 904 1117 935 1074 l 1013 1157 q 1047 1031 1047 1093 q 1012 915 1047 965 q 917 847 976 865 m 565 111 q 752 162 667 111 q 888 299 838 213 q 939 488 939 385 q 888 676 939 590 q 752 811 838 761 q 565 861 667 861 q 377 811 464 861 q 239 676 290 761 q 188 488 188 590 q 239 299 188 385 q 377 162 290 213 q 565 111 464 111 z "},"Ớ":{"ha":1163,"x_min":53,"x_max":1075,"o":"m 917 847 q 1033 686 992 779 q 1075 488 1075 593 q 1007 237 1075 351 q 822 56 939 122 q 564 -10 704 -10 q 306 56 424 -10 q 121 237 189 122 q 53 488 53 351 q 121 737 53 624 q 306 915 189 850 q 564 981 422 981 q 785 933 682 981 l 785 935 q 843 924 811 924 q 910 953 886 924 q 935 1025 935 982 q 904 1117 935 1074 l 1013 1157 q 1047 1031 1047 1093 q 1012 915 1047 965 q 917 847 976 865 m 565 111 q 752 162 667 111 q 888 299 838 213 q 939 488 939 385 q 888 676 939 590 q 752 811 838 761 q 565 861 667 861 q 377 811 464 861 q 239 676 290 761 q 188 488 188 590 q 239 299 188 385 q 377 162 290 213 q 565 111 464 111 m 640 1253 l 774 1194 l 601 1058 l 492 1072 l 640 1253 z "},"Ợ":{"ha":1163,"x_min":53,"x_max":1075,"o":"m 917 847 q 1033 686 992 779 q 1075 488 1075 593 q 1007 237 1075 351 q 822 56 939 122 q 564 -10 704 -10 q 306 56 424 -10 q 121 237 189 122 q 53 488 53 351 q 121 737 53 624 q 306 915 189 850 q 564 981 422 981 q 785 933 682 981 l 785 935 q 843 924 811 924 q 910 953 886 924 q 935 1025 935 982 q 904 1117 935 1074 l 1013 1157 q 1047 1031 1047 1093 q 1012 915 1047 965 q 917 847 976 865 m 565 111 q 752 162 667 111 q 888 299 838 213 q 939 488 939 385 q 888 676 939 590 q 752 811 838 761 q 565 861 667 861 q 377 811 464 861 q 239 676 290 761 q 188 488 188 590 q 239 299 188 385 q 377 162 290 213 q 565 111 464 111 m 564 -103 q 622 -126 599 -103 q 644 -186 644 -150 q 622 -246 644 -222 q 564 -269 599 -269 q 506 -246 529 -269 q 483 -186 483 -222 q 506 -126 483 -150 q 564 -103 529 -103 z "},"Ờ":{"ha":1163,"x_min":53,"x_max":1075,"o":"m 917 847 q 1033 686 992 779 q 1075 488 1075 593 q 1007 237 1075 351 q 822 56 939 122 q 564 -10 704 -10 q 306 56 424 -10 q 121 237 189 122 q 53 488 53 351 q 121 737 53 624 q 306 915 189 850 q 564 981 422 981 q 785 933 682 981 l 785 935 q 843 924 811 924 q 910 953 886 924 q 935 1025 935 982 q 904 1117 935 1074 l 1013 1157 q 1047 1031 1047 1093 q 1012 915 1047 965 q 917 847 976 865 m 565 111 q 752 162 667 111 q 888 299 838 213 q 939 488 939 385 q 888 676 939 590 q 752 811 838 761 q 565 861 667 861 q 377 811 464 861 q 239 676 290 761 q 188 488 188 590 q 239 299 188 385 q 377 162 290 213 q 565 111 464 111 m 483 1253 l 632 1072 l 522 1058 l 350 1194 l 483 1253 z "},"Ở":{"ha":1163,"x_min":53,"x_max":1075,"o":"m 917 847 q 1033 686 992 779 q 1075 488 1075 593 q 1007 237 1075 351 q 822 56 939 122 q 564 -10 704 -10 q 306 56 424 -10 q 121 237 189 122 q 53 488 53 351 q 121 737 53 624 q 306 915 189 850 q 564 981 422 981 q 785 933 682 981 l 785 935 q 843 924 811 924 q 910 953 886 924 q 935 1025 935 982 q 904 1117 935 1074 l 1013 1157 q 1047 1031 1047 1093 q 1012 915 1047 965 q 917 847 976 865 m 565 111 q 752 162 667 111 q 888 299 838 213 q 939 488 939 385 q 888 676 939 590 q 752 811 838 761 q 565 861 667 861 q 377 811 464 861 q 239 676 290 761 q 188 488 188 590 q 239 299 188 385 q 377 162 290 213 q 565 111 464 111 m 558 1314 q 653 1285 615 1314 q 690 1203 690 1256 q 663 1118 690 1164 q 590 1035 635 1072 l 518 1068 q 563 1126 546 1094 q 579 1181 579 1157 q 565 1211 579 1199 q 532 1224 551 1224 q 478 1206 506 1224 l 435 1275 q 558 1314 493 1314 z "},"Ỡ":{"ha":1163,"x_min":53,"x_max":1075,"o":"m 917 847 q 1033 686 992 779 q 1075 488 1075 593 q 1007 237 1075 351 q 822 56 939 122 q 564 -10 704 -10 q 306 56 424 -10 q 121 237 189 122 q 53 488 53 351 q 121 737 53 624 q 306 915 189 850 q 564 981 422 981 q 785 933 682 981 l 785 935 q 843 924 811 924 q 910 953 886 924 q 935 1025 935 982 q 904 1117 935 1074 l 1013 1157 q 1047 1031 1047 1093 q 1012 915 1047 965 q 917 847 976 865 m 565 111 q 752 162 667 111 q 888 299 838 213 q 939 488 939 385 q 888 676 939 590 q 752 811 838 761 q 565 861 667 861 q 377 811 464 861 q 239 676 290 761 q 188 488 188 590 q 239 299 188 385 q 377 162 290 213 q 565 111 464 111 m 778 1228 q 751 1106 778 1154 q 665 1058 724 1058 q 610 1069 636 1058 q 550 1103 585 1081 q 510 1125 525 1118 q 483 1132 496 1132 q 439 1064 439 1132 l 349 1064 q 376 1185 349 1138 q 461 1233 403 1233 q 515 1223 490 1233 q 576 1190 539 1213 q 616 1168 601 1175 q 643 1161 631 1161 q 688 1228 688 1161 l 778 1228 z "},"Ő":{"ha":1128,"x_min":53,"x_max":1075,"o":"m 564 981 q 822 915 704 981 q 1007 737 939 850 q 1075 488 1075 624 q 1007 237 1075 351 q 822 56 939 122 q 564 -10 704 -10 q 306 56 424 -10 q 121 237 189 122 q 53 488 53 351 q 121 737 53 624 q 306 915 189 850 q 564 981 422 981 m 565 861 q 377 811 464 861 q 239 676 290 761 q 188 488 188 590 q 239 299 188 385 q 377 162 290 213 q 565 111 464 111 q 752 162 667 111 q 888 299 838 213 q 939 488 939 385 q 888 676 939 590 q 752 811 838 761 q 565 861 667 861 m 494 1261 l 606 1208 l 478 1058 l 381 1071 l 494 1261 m 710 1261 l 821 1208 l 693 1058 l 596 1071 l 710 1261 z "},"Ȏ":{"ha":1128,"x_min":53,"x_max":1075,"o":"m 564 981 q 822 915 704 981 q 1007 737 939 850 q 1075 488 1075 624 q 1007 237 1075 351 q 822 56 939 122 q 564 -10 704 -10 q 306 56 424 -10 q 121 237 189 122 q 53 488 53 351 q 121 737 53 624 q 306 915 189 850 q 564 981 422 981 m 565 861 q 377 811 464 861 q 239 676 290 761 q 188 488 188 590 q 239 299 188 385 q 377 162 290 213 q 565 111 464 111 q 752 162 667 111 q 888 299 838 213 q 939 488 939 385 q 888 676 939 590 q 752 811 838 761 q 565 861 667 861 m 379 1064 q 433 1199 382 1147 q 564 1250 485 1250 q 694 1199 642 1250 q 749 1064 746 1147 l 658 1064 q 629 1134 656 1107 q 564 1161 603 1161 q 499 1134 525 1161 q 469 1064 472 1107 l 379 1064 z "},"Ō":{"ha":1128,"x_min":53,"x_max":1075,"o":"m 564 981 q 822 915 704 981 q 1007 737 939 850 q 1075 488 1075 624 q 1007 237 1075 351 q 822 56 939 122 q 564 -10 704 -10 q 306 56 424 -10 q 121 237 189 122 q 53 488 53 351 q 121 737 53 624 q 306 915 189 850 q 564 981 422 981 m 565 861 q 377 811 464 861 q 239 676 290 761 q 188 488 188 590 q 239 299 188 385 q 377 162 290 213 q 565 111 464 111 q 752 162 667 111 q 888 299 838 213 q 939 488 939 385 q 888 676 939 590 q 752 811 838 761 q 565 861 667 861 m 350 1157 l 778 1157 l 778 1071 l 350 1071 l 350 1157 z "},"Ṓ":{"ha":1128,"x_min":53,"x_max":1075,"o":"m 564 981 q 822 915 704 981 q 1007 737 939 850 q 1075 488 1075 624 q 1007 237 1075 351 q 822 56 939 122 q 564 -10 704 -10 q 306 56 424 -10 q 121 237 189 122 q 53 488 53 351 q 121 737 53 624 q 306 915 189 850 q 564 981 422 981 m 565 861 q 377 811 464 861 q 239 676 290 761 q 188 488 188 590 q 239 299 188 385 q 377 162 290 213 q 565 111 464 111 q 752 162 667 111 q 888 299 838 213 q 939 488 939 385 q 888 676 939 590 q 752 811 838 761 q 565 861 667 861 m 381 1151 l 722 1151 l 722 1067 l 381 1067 l 381 1151 m 635 1394 l 746 1319 l 553 1215 l 454 1246 l 635 1394 z "},"Ṑ":{"ha":1128,"x_min":53,"x_max":1075,"o":"m 564 981 q 822 915 704 981 q 1007 737 939 850 q 1075 488 1075 624 q 1007 237 1075 351 q 822 56 939 122 q 564 -10 704 -10 q 306 56 424 -10 q 121 237 189 122 q 53 488 53 351 q 121 737 53 624 q 306 915 189 850 q 564 981 422 981 m 565 861 q 377 811 464 861 q 239 676 290 761 q 188 488 188 590 q 239 299 188 385 q 377 162 290 213 q 565 111 464 111 q 752 162 667 111 q 888 299 838 213 q 939 488 939 385 q 888 676 939 590 q 752 811 838 761 q 565 861 667 861 m 410 1151 l 751 1151 l 751 1067 l 410 1067 l 410 1151 m 485 1394 l 665 1246 l 567 1215 l 374 1319 l 485 1394 z "},"Ǫ":{"ha":1128,"x_min":53,"x_max":1075,"o":"m 824 57 q 735 -49 769 10 q 700 -150 700 -107 q 712 -188 700 -175 q 746 -201 724 -201 q 799 -187 771 -201 l 831 -274 q 717 -300 776 -300 q 617 -263 654 -300 q 581 -164 581 -226 q 650 -3 581 -85 q 564 -10 604 -10 q 306 56 424 -10 q 121 237 189 122 q 53 488 53 351 q 121 737 53 624 q 306 915 189 850 q 564 981 422 981 q 822 915 704 981 q 1007 737 939 850 q 1075 488 1075 624 q 1007 237 1075 351 q 824 57 939 122 m 188 488 q 239 299 188 385 q 377 162 290 213 q 565 111 464 111 q 752 162 667 111 q 888 299 838 213 q 939 488 939 385 q 888 676 939 590 q 752 811 838 761 q 565 861 667 861 q 377 811 464 861 q 239 676 290 761 q 188 488 188 590 z "},"Ø":{"ha":1128,"x_min":53,"x_max":1075,"o":"m 883 871 q 1024 703 972 803 q 1075 486 1075 603 q 1007 238 1075 351 q 822 60 939 125 q 564 -6 704 -6 q 324 51 435 -6 l 236 -76 l 122 -76 l 243 101 q 103 270 154 169 q 53 486 53 371 q 121 734 53 622 q 306 910 189 846 q 564 975 422 975 q 803 921 692 975 l 890 1049 l 1004 1049 l 883 871 m 188 486 q 222 333 188 404 q 317 208 256 261 l 732 817 q 565 856 654 856 q 376 806 463 856 q 239 672 290 757 q 188 486 188 588 m 565 115 q 752 165 667 115 q 888 300 838 215 q 939 486 939 385 q 905 642 939 569 q 811 765 871 714 l 394 156 q 565 115 472 115 z "},"Ǿ":{"ha":1128,"x_min":53,"x_max":1075,"o":"m 883 871 q 1024 703 972 803 q 1075 486 1075 603 q 1007 238 1075 351 q 822 60 939 125 q 564 -6 704 -6 q 324 51 435 -6 l 236 -76 l 122 -76 l 243 101 q 103 270 154 169 q 53 486 53 371 q 121 734 53 622 q 306 910 189 846 q 564 975 422 975 q 803 921 692 975 l 890 1049 l 1004 1049 l 883 871 m 188 486 q 222 333 188 404 q 317 208 256 261 l 732 817 q 565 856 654 856 q 376 806 463 856 q 239 672 290 757 q 188 486 188 588 m 565 115 q 752 165 667 115 q 888 300 838 215 q 939 486 939 385 q 905 642 939 569 q 811 765 871 714 l 394 156 q 565 115 472 115 m 640 1253 l 774 1194 l 601 1058 l 492 1072 l 640 1253 z "},"Õ":{"ha":1128,"x_min":53,"x_max":1075,"o":"m 564 981 q 822 915 704 981 q 1007 737 939 850 q 1075 488 1075 624 q 1007 237 1075 351 q 822 56 939 122 q 564 -10 704 -10 q 306 56 424 -10 q 121 237 189 122 q 53 488 53 351 q 121 737 53 624 q 306 915 189 850 q 564 981 422 981 m 565 861 q 377 811 464 861 q 239 676 290 761 q 188 488 188 590 q 239 299 188 385 q 377 162 290 213 q 565 111 464 111 q 752 162 667 111 q 888 299 838 213 q 939 488 939 385 q 888 676 939 590 q 752 811 838 761 q 565 861 667 861 m 778 1228 q 751 1106 778 1154 q 665 1058 724 1058 q 610 1069 636 1058 q 550 1103 585 1081 q 510 1125 525 1118 q 483 1132 496 1132 q 439 1064 439 1132 l 349 1064 q 376 1185 349 1138 q 461 1233 403 1233 q 515 1223 490 1233 q 576 1190 539 1213 q 616 1168 601 1175 q 643 1161 631 1161 q 688 1228 688 1161 l 778 1228 z "},"Ṍ":{"ha":1128,"x_min":53,"x_max":1075,"o":"m 564 981 q 822 915 704 981 q 1007 737 939 850 q 1075 488 1075 624 q 1007 237 1075 351 q 822 56 939 122 q 564 -10 704 -10 q 306 56 424 -10 q 121 237 189 122 q 53 488 53 351 q 121 737 53 624 q 306 915 189 850 q 564 981 422 981 m 565 861 q 377 811 464 861 q 239 676 290 761 q 188 488 188 590 q 239 299 188 385 q 377 162 290 213 q 565 111 464 111 q 752 162 667 111 q 888 299 838 213 q 939 488 939 385 q 888 676 939 590 q 752 811 838 761 q 565 861 667 861 z "},"Ṏ":{"ha":1128,"x_min":53,"x_max":1075,"o":"m 564 981 q 822 915 704 981 q 1007 737 939 850 q 1075 488 1075 624 q 1007 237 1075 351 q 822 56 939 122 q 564 -10 704 -10 q 306 56 424 -10 q 121 237 189 122 q 53 488 53 351 q 121 737 53 624 q 306 915 189 850 q 564 981 422 981 m 565 861 q 377 811 464 861 q 239 676 290 761 q 188 488 188 590 q 239 299 188 385 q 377 162 290 213 q 565 111 464 111 q 752 162 667 111 q 888 299 838 213 q 939 488 939 385 q 888 676 939 590 q 752 811 838 761 q 565 861 667 861 z "},"Ȭ":{"ha":1128,"x_min":53,"x_max":1075,"o":"m 564 981 q 822 915 704 981 q 1007 737 939 850 q 1075 488 1075 624 q 1007 237 1075 351 q 822 56 939 122 q 564 -10 704 -10 q 306 56 424 -10 q 121 237 189 122 q 53 488 53 351 q 121 737 53 624 q 306 915 189 850 q 564 981 422 981 m 565 861 q 377 811 464 861 q 239 676 290 761 q 188 488 188 590 q 239 299 188 385 q 377 162 290 213 q 565 111 464 111 q 752 162 667 111 q 888 299 838 213 q 939 488 939 385 q 888 676 939 590 q 752 811 838 761 q 565 861 667 861 z "},"Œ":{"ha":1521,"x_min":53,"x_max":1444,"o":"m 1444 122 l 1444 0 l 563 0 q 306 65 422 0 q 121 240 189 129 q 53 486 53 351 q 120 731 53 619 q 305 908 188 843 q 563 972 422 972 l 1428 972 l 1428 850 l 886 850 l 886 551 l 1371 551 l 1371 431 l 886 431 l 886 122 l 1444 122 m 753 119 l 753 851 l 564 851 q 374 803 461 851 q 238 670 288 754 q 188 485 188 586 q 238 300 188 383 q 374 169 288 217 q 564 121 461 121 l 753 119 z "},"P":{"ha":932,"x_min":139,"x_max":894,"o":"m 514 972 q 795 886 696 972 q 894 644 894 800 q 794 392 894 482 q 514 303 694 303 l 272 303 l 272 0 l 139 0 l 139 972 l 514 972 m 508 424 q 700 478 633 424 q 767 640 767 533 q 700 798 767 744 q 508 851 633 851 l 272 850 l 272 424 l 508 424 z "},"Þ":{"ha":936,"x_min":139,"x_max":901,"o":"m 489 831 q 795 748 689 831 q 901 510 901 665 q 795 263 901 349 q 489 176 689 176 l 272 176 l 272 0 l 139 0 l 139 972 l 272 972 l 272 831 l 489 831 m 483 288 q 764 506 764 288 q 693 665 764 611 q 483 719 622 719 l 272 719 l 272 288 l 483 288 z "},"Q":{"ha":1142,"x_min":53,"x_max":1132,"o":"m 1132 -99 q 1010 -176 1076 -149 q 878 -204 943 -204 q 713 -154 790 -204 q 572 -10 635 -104 l 564 -10 q 306 56 424 -10 q 121 237 189 122 q 53 488 53 351 q 121 737 53 624 q 306 915 189 850 q 564 981 422 981 q 822 915 704 981 q 1007 737 939 850 q 1075 488 1075 624 q 1028 278 1075 375 q 900 111 982 181 q 713 11 818 42 q 893 -87 804 -87 q 1076 -3 974 -87 l 1132 -99 m 188 488 q 239 299 188 385 q 377 162 290 213 q 565 111 464 111 q 752 162 667 111 q 888 299 838 213 q 939 488 939 385 q 888 676 939 590 q 752 811 838 761 q 565 861 667 861 q 377 811 464 861 q 239 676 290 761 q 188 488 188 590 z "},"R":{"ha":1004,"x_min":139,"x_max":919,"o":"m 767 0 l 574 306 q 519 303 540 303 l 272 303 l 272 0 l 139 0 l 139 972 l 519 972 q 805 887 704 972 q 906 644 906 801 q 851 446 906 526 q 693 329 796 365 l 919 0 l 767 0 m 519 424 q 711 478 644 424 q 778 640 778 533 q 711 798 778 744 q 519 851 644 851 l 272 851 l 272 424 l 519 424 z "},"Ŕ":{"ha":1004,"x_min":139,"x_max":919,"o":"m 767 0 l 574 306 q 519 303 540 303 l 272 303 l 272 0 l 139 0 l 139 972 l 519 972 q 805 887 704 972 q 906 644 906 801 q 851 446 906 526 q 693 329 796 365 l 919 0 l 767 0 m 519 424 q 711 478 644 424 q 778 640 778 533 q 711 798 778 744 q 519 851 644 851 l 272 851 l 272 424 l 519 424 m 554 1253 l 688 1194 l 515 1058 l 406 1072 l 554 1253 z "},"Ř":{"ha":1004,"x_min":139,"x_max":919,"o":"m 767 0 l 574 306 q 519 303 540 303 l 272 303 l 272 0 l 139 0 l 139 972 l 519 972 q 805 887 704 972 q 906 644 906 801 q 851 446 906 526 q 693 329 796 365 l 919 0 l 767 0 m 519 424 q 711 478 644 424 q 778 640 778 533 q 711 798 778 744 q 519 851 644 851 l 272 851 l 272 424 l 519 424 m 531 1249 l 660 1249 l 514 1064 l 378 1064 l 232 1249 l 361 1249 l 446 1156 l 531 1249 z "},"Ŗ":{"ha":1004,"x_min":139,"x_max":919,"o":"m 767 0 l 574 306 q 519 303 540 303 l 272 303 l 272 0 l 139 0 l 139 972 l 519 972 q 805 887 704 972 q 906 644 906 801 q 851 446 906 526 q 693 329 796 365 l 919 0 l 767 0 m 519 424 q 711 478 644 424 q 778 640 778 533 q 711 798 778 744 q 519 851 644 851 l 272 851 l 272 424 l 519 424 m 440 -82 l 563 -82 l 486 -303 l 392 -303 l 440 -82 z "},"Ȑ":{"ha":1004,"x_min":139,"x_max":919,"o":"m 767 0 l 574 306 q 519 303 540 303 l 272 303 l 272 0 l 139 0 l 139 972 l 519 972 q 805 887 704 972 q 906 644 906 801 q 851 446 906 526 q 693 329 796 365 l 919 0 l 767 0 m 519 424 q 711 478 644 424 q 778 640 778 533 q 711 798 778 744 q 519 851 644 851 l 272 851 l 272 424 l 519 424 m 318 1261 l 433 1071 l 335 1058 l 207 1208 l 318 1261 m 533 1261 l 649 1071 l 550 1058 l 422 1208 l 533 1261 z "},"Ṛ":{"ha":1004,"x_min":139,"x_max":919,"o":"m 767 0 l 574 306 q 519 303 540 303 l 272 303 l 272 0 l 139 0 l 139 972 l 519 972 q 805 887 704 972 q 906 644 906 801 q 851 446 906 526 q 693 329 796 365 l 919 0 l 767 0 m 519 424 q 711 478 644 424 q 778 640 778 533 q 711 798 778 744 q 519 851 644 851 l 272 851 l 272 424 l 519 424 m 500 -103 q 558 -126 535 -103 q 581 -186 581 -150 q 558 -246 581 -222 q 500 -269 535 -269 q 442 -246 465 -269 q 419 -186 419 -222 q 442 -126 419 -150 q 500 -103 465 -103 z "},"Ȓ":{"ha":1004,"x_min":139,"x_max":919,"o":"m 767 0 l 574 306 q 519 303 540 303 l 272 303 l 272 0 l 139 0 l 139 972 l 519 972 q 805 887 704 972 q 906 644 906 801 q 851 446 906 526 q 693 329 796 365 l 919 0 l 767 0 m 519 424 q 711 478 644 424 q 778 640 778 533 q 711 798 778 744 q 519 851 644 851 l 272 851 l 272 424 l 519 424 m 293 1064 q 347 1199 296 1147 q 478 1250 399 1250 q 608 1199 556 1250 q 663 1064 660 1147 l 572 1064 q 543 1134 569 1107 q 478 1161 517 1161 q 413 1134 439 1161 q 383 1064 386 1107 l 293 1064 z "},"Ṟ":{"ha":1004,"x_min":139,"x_max":919,"o":"m 767 0 l 574 306 q 519 303 540 303 l 272 303 l 272 0 l 139 0 l 139 972 l 519 972 q 805 887 704 972 q 906 644 906 801 q 851 446 906 526 q 693 329 796 365 l 919 0 l 767 0 m 519 424 q 711 478 644 424 q 778 640 778 533 q 711 798 778 744 q 519 851 644 851 l 272 851 l 272 424 l 519 424 m 300 -114 l 699 -114 l 699 -200 l 300 -200 l 300 -114 z "},"S":{"ha":856,"x_min":40,"x_max":782,"o":"m 707 769 q 566 834 639 813 q 432 856 493 856 q 297 823 347 856 q 246 733 246 790 q 276 649 246 682 q 351 598 307 617 q 475 554 396 579 q 635 496 574 524 q 739 413 696 468 q 782 268 782 358 q 737 122 782 185 q 610 26 692 60 q 424 -8 529 -8 q 215 33 317 -8 q 40 144 114 75 l 100 260 q 256 155 169 192 q 425 118 343 118 q 578 156 522 118 q 635 260 635 194 q 604 344 635 311 q 527 397 574 378 q 401 440 481 417 q 243 497 304 469 q 140 579 182 525 q 97 722 97 633 q 140 860 97 800 q 261 951 183 919 q 442 983 339 983 q 613 958 529 983 q 763 889 697 932 l 707 769 z "},"Ś":{"ha":856,"x_min":40,"x_max":782,"o":"m 707 769 q 566 834 639 813 q 432 856 493 856 q 297 823 347 856 q 246 733 246 790 q 276 649 246 682 q 351 598 307 617 q 475 554 396 579 q 635 496 574 524 q 739 413 696 468 q 782 268 782 358 q 737 122 782 185 q 610 26 692 60 q 424 -8 529 -8 q 215 33 317 -8 q 40 144 114 75 l 100 260 q 256 155 169 192 q 425 118 343 118 q 578 156 522 118 q 635 260 635 194 q 604 344 635 311 q 527 397 574 378 q 401 440 481 417 q 243 497 304 469 q 140 579 182 525 q 97 722 97 633 q 140 860 97 800 q 261 951 183 919 q 442 983 339 983 q 613 958 529 983 q 763 889 697 932 l 707 769 m 510 1253 l 643 1194 l 471 1058 l 361 1072 l 510 1253 z "},"Ṥ":{"ha":856,"x_min":40,"x_max":782,"o":"m 707 769 q 566 834 639 813 q 432 856 493 856 q 297 823 347 856 q 246 733 246 790 q 276 649 246 682 q 351 598 307 617 q 475 554 396 579 q 635 496 574 524 q 739 413 696 468 q 782 268 782 358 q 737 122 782 185 q 610 26 692 60 q 424 -8 529 -8 q 215 33 317 -8 q 40 144 114 75 l 100 260 q 256 155 169 192 q 425 118 343 118 q 578 156 522 118 q 635 260 635 194 q 604 344 635 311 q 527 397 574 378 q 401 440 481 417 q 243 497 304 469 q 140 579 182 525 q 97 722 97 633 q 140 860 97 800 q 261 951 183 919 q 442 983 339 983 q 613 958 529 983 q 763 889 697 932 l 707 769 z "},"Ꞌ":{"ha":354,"x_min":110,"x_max":243,"o":"m 110 972 l 243 972 l 229 418 l 110 418 l 110 972 z "},"Š":{"ha":856,"x_min":40,"x_max":782,"o":"m 707 769 q 566 834 639 813 q 432 856 493 856 q 297 823 347 856 q 246 733 246 790 q 276 649 246 682 q 351 598 307 617 q 475 554 396 579 q 635 496 574 524 q 739 413 696 468 q 782 268 782 358 q 737 122 782 185 q 610 26 692 60 q 424 -8 529 -8 q 215 33 317 -8 q 40 144 114 75 l 100 260 q 256 155 169 192 q 425 118 343 118 q 578 156 522 118 q 635 260 635 194 q 604 344 635 311 q 527 397 574 378 q 401 440 481 417 q 243 497 304 469 q 140 579 182 525 q 97 722 97 633 q 140 860 97 800 q 261 951 183 919 q 442 983 339 983 q 613 958 529 983 q 763 889 697 932 l 707 769 m 486 1249 l 615 1249 l 469 1064 l 333 1064 l 188 1249 l 317 1249 l 401 1156 l 486 1249 z "},"Ṧ":{"ha":856,"x_min":40,"x_max":782,"o":"m 707 769 q 566 834 639 813 q 432 856 493 856 q 297 823 347 856 q 246 733 246 790 q 276 649 246 682 q 351 598 307 617 q 475 554 396 579 q 635 496 574 524 q 739 413 696 468 q 782 268 782 358 q 737 122 782 185 q 610 26 692 60 q 424 -8 529 -8 q 215 33 317 -8 q 40 144 114 75 l 100 260 q 256 155 169 192 q 425 118 343 118 q 578 156 522 118 q 635 260 635 194 q 604 344 635 311 q 527 397 574 378 q 401 440 481 417 q 243 497 304 469 q 140 579 182 525 q 97 722 97 633 q 140 860 97 800 q 261 951 183 919 q 442 983 339 983 q 613 958 529 983 q 763 889 697 932 l 707 769 z "},"Ş":{"ha":856,"x_min":40,"x_max":782,"o":"m 246 733 q 276 649 246 682 q 351 598 307 617 q 475 554 396 579 q 635 496 574 524 q 739 413 696 468 q 782 268 782 358 q 703 84 782 157 q 492 -4 625 11 l 468 -72 q 552 -110 524 -81 q 581 -181 581 -140 q 538 -269 581 -236 q 428 -301 494 -301 q 300 -272 364 -301 l 328 -193 q 413 -211 372 -211 q 460 -198 443 -211 q 478 -168 478 -185 q 459 -138 478 -150 q 407 -126 440 -126 l 363 -126 l 400 -8 q 204 38 299 -3 q 40 144 110 79 l 100 260 q 256 155 169 192 q 425 118 343 118 q 578 156 522 118 q 635 260 635 194 q 604 344 635 311 q 527 397 574 378 q 401 440 481 417 q 243 497 304 469 q 140 579 182 525 q 97 722 97 633 q 140 860 97 800 q 261 951 183 919 q 442 983 339 983 q 613 958 529 983 q 763 889 697 932 l 707 769 q 566 834 639 813 q 432 856 493 856 q 297 823 347 856 q 246 733 246 790 z "},"Ŝ":{"ha":856,"x_min":40,"x_max":782,"o":"m 707 769 q 566 834 639 813 q 432 856 493 856 q 297 823 347 856 q 246 733 246 790 q 276 649 246 682 q 351 598 307 617 q 475 554 396 579 q 635 496 574 524 q 739 413 696 468 q 782 268 782 358 q 737 122 782 185 q 610 26 692 60 q 424 -8 529 -8 q 215 33 317 -8 q 40 144 114 75 l 100 260 q 256 155 169 192 q 425 118 343 118 q 578 156 522 118 q 635 260 635 194 q 604 344 635 311 q 527 397 574 378 q 401 440 481 417 q 243 497 304 469 q 140 579 182 525 q 97 722 97 633 q 140 860 97 800 q 261 951 183 919 q 442 983 339 983 q 613 958 529 983 q 763 889 697 932 l 707 769 m 647 1065 l 518 1065 l 433 1158 l 349 1065 l 219 1065 l 365 1250 l 501 1250 l 647 1065 z "},"Ș":{"ha":856,"x_min":40,"x_max":782,"o":"m 707 769 q 566 834 639 813 q 432 856 493 856 q 297 823 347 856 q 246 733 246 790 q 276 649 246 682 q 351 598 307 617 q 475 554 396 579 q 635 496 574 524 q 739 413 696 468 q 782 268 782 358 q 737 122 782 185 q 610 26 692 60 q 424 -8 529 -8 q 215 33 317 -8 q 40 144 114 75 l 100 260 q 256 155 169 192 q 425 118 343 118 q 578 156 522 118 q 635 260 635 194 q 604 344 635 311 q 527 397 574 378 q 401 440 481 417 q 243 497 304 469 q 140 579 182 525 q 97 722 97 633 q 140 860 97 800 q 261 951 183 919 q 442 983 339 983 q 613 958 529 983 q 763 889 697 932 l 707 769 m 374 -82 l 496 -82 l 419 -303 l 325 -303 l 374 -82 z "},"Ṡ":{"ha":856,"x_min":40,"x_max":782,"o":"m 707 769 q 566 834 639 813 q 432 856 493 856 q 297 823 347 856 q 246 733 246 790 q 276 649 246 682 q 351 598 307 617 q 475 554 396 579 q 635 496 574 524 q 739 413 696 468 q 782 268 782 358 q 737 122 782 185 q 610 26 692 60 q 424 -8 529 -8 q 215 33 317 -8 q 40 144 114 75 l 100 260 q 256 155 169 192 q 425 118 343 118 q 578 156 522 118 q 635 260 635 194 q 604 344 635 311 q 527 397 574 378 q 401 440 481 417 q 243 497 304 469 q 140 579 182 525 q 97 722 97 633 q 140 860 97 800 q 261 951 183 919 q 442 983 339 983 q 613 958 529 983 q 763 889 697 932 l 707 769 m 433 1225 q 490 1201 467 1225 q 514 1142 514 1178 q 490 1083 514 1107 q 433 1058 467 1058 q 376 1082 399 1058 q 353 1142 353 1106 q 376 1201 353 1178 q 433 1225 399 1225 z "},"Ṣ":{"ha":856,"x_min":40,"x_max":782,"o":"m 707 769 q 566 834 639 813 q 432 856 493 856 q 297 823 347 856 q 246 733 246 790 q 276 649 246 682 q 351 598 307 617 q 475 554 396 579 q 635 496 574 524 q 739 413 696 468 q 782 268 782 358 q 737 122 782 185 q 610 26 692 60 q 424 -8 529 -8 q 215 33 317 -8 q 40 144 114 75 l 100 260 q 256 155 169 192 q 425 118 343 118 q 578 156 522 118 q 635 260 635 194 q 604 344 635 311 q 527 397 574 378 q 401 440 481 417 q 243 497 304 469 q 140 579 182 525 q 97 722 97 633 q 140 860 97 800 q 261 951 183 919 q 442 983 339 983 q 613 958 529 983 q 763 889 697 932 l 707 769 m 433 -103 q 491 -126 468 -103 q 514 -186 514 -150 q 491 -246 514 -222 q 433 -269 468 -269 q 376 -246 399 -269 q 353 -186 353 -222 q 376 -126 353 -150 q 433 -103 399 -103 z "},"Ṩ":{"ha":856,"x_min":40,"x_max":782,"o":"m 707 769 q 566 834 639 813 q 432 856 493 856 q 297 823 347 856 q 246 733 246 790 q 276 649 246 682 q 351 598 307 617 q 475 554 396 579 q 635 496 574 524 q 739 413 696 468 q 782 268 782 358 q 737 122 782 185 q 610 26 692 60 q 424 -8 529 -8 q 215 33 317 -8 q 40 144 114 75 l 100 260 q 256 155 169 192 q 425 118 343 118 q 578 156 522 118 q 635 260 635 194 q 604 344 635 311 q 527 397 574 378 q 401 440 481 417 q 243 497 304 469 q 140 579 182 525 q 97 722 97 633 q 140 860 97 800 q 261 951 183 919 q 442 983 339 983 q 613 958 529 983 q 763 889 697 932 l 707 769 m 433 -103 q 491 -126 468 -103 q 514 -186 514 -150 q 491 -246 514 -222 q 433 -269 468 -269 q 376 -246 399 -269 q 353 -186 353 -222 q 376 -126 353 -150 q 433 -103 399 -103 m 433 1225 q 490 1201 467 1225 q 514 1142 514 1178 q 490 1083 514 1107 q 433 1058 467 1058 q 376 1082 399 1058 q 353 1142 353 1106 q 376 1201 353 1178 q 433 1225 399 1225 z "},"ẞ":{"ha":939,"x_min":117,"x_max":888,"o":"m 647 556 q 825 463 763 535 q 888 283 888 392 q 798 76 888 153 q 553 0 708 0 l 439 0 l 439 121 l 553 121 q 698 164 644 121 q 751 282 751 207 q 699 401 751 358 q 550 443 646 443 l 500 443 l 500 564 l 708 807 q 513 857 625 857 q 321 789 390 857 q 251 600 251 721 l 251 0 l 117 0 l 117 600 q 221 878 117 778 q 508 978 325 978 q 822 874 692 978 l 822 760 l 647 556 z "},"Ə":{"ha":1086,"x_min":46,"x_max":1035,"o":"m 543 -10 q 287 59 400 -10 q 110 249 174 128 q 46 521 46 369 l 901 521 q 844 694 894 617 q 716 817 794 772 q 544 861 638 861 q 378 823 456 861 q 247 717 300 785 l 151 807 q 543 981 306 981 q 792 915 679 981 q 969 737 904 850 q 1035 488 1035 624 q 969 237 1035 351 q 791 56 904 122 q 543 -10 678 -10 m 544 111 q 704 148 631 111 q 828 251 778 185 q 894 400 878 317 l 190 400 q 256 250 206 315 q 381 148 306 185 q 544 111 456 111 z "},"T":{"ha":788,"x_min":14,"x_max":774,"o":"m 14 972 l 774 972 l 774 850 l 460 850 l 460 0 l 326 0 l 326 850 l 14 850 l 14 972 z "},"Ŧ":{"ha":788,"x_min":14,"x_max":774,"o":"m 774 850 l 460 850 l 460 503 l 671 503 l 671 422 l 460 422 l 460 0 l 326 0 l 326 422 l 113 422 l 113 503 l 326 503 l 326 850 l 14 850 l 14 972 l 774 972 l 774 850 z "},"Ť":{"ha":788,"x_min":14,"x_max":774,"o":"m 14 972 l 774 972 l 774 850 l 460 850 l 460 0 l 326 0 l 326 850 l 14 850 l 14 972 m 454 1249 l 583 1249 l 438 1064 l 301 1064 l 156 1249 l 285 1249 l 369 1156 l 454 1249 z "},"Ţ":{"ha":788,"x_min":14,"x_max":774,"o":"m 453 0 l 428 -72 q 512 -110 483 -81 q 540 -181 540 -140 q 497 -269 540 -236 q 388 -301 454 -301 q 260 -272 322 -301 l 288 -193 q 372 -211 332 -211 q 420 -198 403 -211 q 438 -168 438 -185 q 419 -138 438 -150 q 367 -126 400 -126 l 322 -126 l 361 0 l 326 0 l 326 850 l 14 850 l 14 972 l 774 972 l 774 850 l 460 850 l 460 0 l 453 0 z "},"Ț":{"ha":788,"x_min":14,"x_max":774,"o":"m 14 972 l 774 972 l 774 850 l 460 850 l 460 0 l 326 0 l 326 850 l 14 850 l 14 972 m 333 -82 l 456 -82 l 379 -303 l 285 -303 l 333 -82 z "},"Ṭ":{"ha":788,"x_min":14,"x_max":774,"o":"m 14 972 l 774 972 l 774 850 l 460 850 l 460 0 l 326 0 l 326 850 l 14 850 l 14 972 m 393 -103 q 451 -126 428 -103 q 474 -186 474 -150 q 451 -246 474 -222 q 393 -269 428 -269 q 335 -246 358 -269 q 313 -186 313 -222 q 335 -126 313 -150 q 393 -103 358 -103 z "},"Ṯ":{"ha":788,"x_min":14,"x_max":774,"o":"m 14 972 l 774 972 l 774 850 l 460 850 l 460 0 l 326 0 l 326 850 l 14 850 l 14 972 m 193 -114 l 592 -114 l 592 -200 l 193 -200 l 193 -114 z "},"U":{"ha":1058,"x_min":118,"x_max":940,"o":"m 251 397 q 326 187 251 263 q 531 111 400 111 q 733 187 660 111 q 807 397 807 263 l 807 972 l 940 972 l 940 397 q 831 99 940 207 q 531 -10 722 -10 q 228 99 338 -10 q 118 397 118 207 l 118 972 l 251 972 l 251 397 z "},"Ú":{"ha":1058,"x_min":118,"x_max":940,"o":"m 251 397 q 326 187 251 263 q 531 111 400 111 q 733 187 660 111 q 807 397 807 263 l 807 972 l 940 972 l 940 397 q 831 99 940 207 q 531 -10 722 -10 q 228 99 338 -10 q 118 397 118 207 l 118 972 l 251 972 l 251 397 m 607 1253 l 740 1194 l 568 1058 l 458 1072 l 607 1253 z "},"Ŭ":{"ha":1058,"x_min":118,"x_max":940,"o":"m 251 397 q 326 187 251 263 q 531 111 400 111 q 733 187 660 111 q 807 397 807 263 l 807 972 l 940 972 l 940 397 q 831 99 940 207 q 531 -10 722 -10 q 228 99 338 -10 q 118 397 118 207 l 118 972 l 251 972 l 251 397 m 436 1244 q 465 1175 439 1203 q 531 1147 492 1147 q 596 1175 569 1147 q 625 1244 622 1203 l 715 1244 q 660 1110 713 1161 q 531 1058 608 1058 q 400 1110 451 1058 q 346 1244 349 1161 l 436 1244 z "},"Û":{"ha":1058,"x_min":118,"x_max":940,"o":"m 251 397 q 326 187 251 263 q 531 111 400 111 q 733 187 660 111 q 807 397 807 263 l 807 972 l 940 972 l 940 397 q 831 99 940 207 q 531 -10 722 -10 q 228 99 338 -10 q 118 397 118 207 l 118 972 l 251 972 l 251 397 m 744 1065 l 615 1065 l 531 1158 l 446 1065 l 317 1065 l 463 1250 l 599 1250 l 744 1065 z "},"Ȕ":{"ha":1058,"x_min":118,"x_max":940,"o":"m 251 397 q 326 187 251 263 q 531 111 400 111 q 733 187 660 111 q 807 397 807 263 l 807 972 l 940 972 l 940 397 q 831 99 940 207 q 531 -10 722 -10 q 228 99 338 -10 q 118 397 118 207 l 118 972 l 251 972 l 251 397 m 371 1261 l 486 1071 l 388 1058 l 260 1208 l 371 1261 m 586 1261 l 701 1071 l 603 1058 l 475 1208 l 586 1261 z "},"Ü":{"ha":1058,"x_min":118,"x_max":940,"o":"m 251 397 q 326 187 251 263 q 531 111 400 111 q 733 187 660 111 q 807 397 807 263 l 807 972 l 940 972 l 940 397 q 831 99 940 207 q 531 -10 722 -10 q 228 99 338 -10 q 118 397 118 207 l 118 972 l 251 972 l 251 397 m 413 1210 q 464 1189 443 1210 q 485 1135 485 1168 q 464 1081 485 1103 q 413 1058 443 1058 q 360 1081 382 1058 q 339 1135 339 1103 q 360 1189 339 1168 q 413 1210 381 1210 m 651 1210 q 704 1189 683 1210 q 725 1135 725 1168 q 703 1081 725 1103 q 651 1058 682 1058 q 599 1081 621 1058 q 578 1135 578 1103 q 599 1189 578 1168 q 651 1210 619 1210 z "},"Ụ":{"ha":1058,"x_min":118,"x_max":940,"o":"m 251 397 q 326 187 251 263 q 531 111 400 111 q 733 187 660 111 q 807 397 807 263 l 807 972 l 940 972 l 940 397 q 831 99 940 207 q 531 -10 722 -10 q 228 99 338 -10 q 118 397 118 207 l 118 972 l 251 972 l 251 397 m 531 -103 q 588 -126 565 -103 q 611 -186 611 -150 q 588 -246 611 -222 q 531 -269 565 -269 q 473 -246 496 -269 q 450 -186 450 -222 q 473 -126 450 -150 q 531 -103 496 -103 z "},"Ù":{"ha":1058,"x_min":118,"x_max":940,"o":"m 251 397 q 326 187 251 263 q 531 111 400 111 q 733 187 660 111 q 807 397 807 263 l 807 972 l 940 972 l 940 397 q 831 99 940 207 q 531 -10 722 -10 q 228 99 338 -10 q 118 397 118 207 l 118 972 l 251 972 l 251 397 m 450 1253 l 599 1072 l 489 1058 l 317 1194 l 450 1253 z "},"Ủ":{"ha":1058,"x_min":118,"x_max":940,"o":"m 251 397 q 326 187 251 263 q 531 111 400 111 q 733 187 660 111 q 807 397 807 263 l 807 972 l 940 972 l 940 397 q 831 99 940 207 q 531 -10 722 -10 q 228 99 338 -10 q 118 397 118 207 l 118 972 l 251 972 l 251 397 m 525 1314 q 619 1285 582 1314 q 657 1203 657 1256 q 629 1118 657 1164 q 557 1035 601 1072 l 485 1068 q 529 1126 513 1094 q 546 1181 546 1157 q 532 1211 546 1199 q 499 1224 518 1224 q 444 1206 472 1224 l 401 1275 q 525 1314 460 1314 z "},"Ư":{"ha":1093,"x_min":118,"x_max":1088,"o":"m 1063 1157 q 1088 1049 1088 1099 q 1049 944 1088 986 q 940 892 1011 903 l 940 397 q 831 99 940 207 q 531 -10 722 -10 q 228 99 338 -10 q 118 397 118 207 l 118 972 l 251 972 l 251 397 q 326 187 251 263 q 531 111 400 111 q 733 187 660 111 q 807 397 807 263 l 807 972 l 889 972 q 960 992 936 972 q 983 1044 983 1011 q 963 1118 983 1076 l 1063 1157 z "},"Ứ":{"ha":1093,"x_min":118,"x_max":1088,"o":"m 1063 1157 q 1088 1049 1088 1099 q 1049 944 1088 986 q 940 892 1011 903 l 940 397 q 831 99 940 207 q 531 -10 722 -10 q 228 99 338 -10 q 118 397 118 207 l 118 972 l 251 972 l 251 397 q 326 187 251 263 q 531 111 400 111 q 733 187 660 111 q 807 397 807 263 l 807 972 l 889 972 q 960 992 936 972 q 983 1044 983 1011 q 963 1118 983 1076 l 1063 1157 m 607 1253 l 740 1194 l 568 1058 l 458 1072 l 607 1253 z "},"Ự":{"ha":1093,"x_min":118,"x_max":1088,"o":"m 1063 1157 q 1088 1049 1088 1099 q 1049 944 1088 986 q 940 892 1011 903 l 940 397 q 831 99 940 207 q 531 -10 722 -10 q 228 99 338 -10 q 118 397 118 207 l 118 972 l 251 972 l 251 397 q 326 187 251 263 q 531 111 400 111 q 733 187 660 111 q 807 397 807 263 l 807 972 l 889 972 q 960 992 936 972 q 983 1044 983 1011 q 963 1118 983 1076 l 1063 1157 m 531 -103 q 588 -126 565 -103 q 611 -186 611 -150 q 588 -246 611 -222 q 531 -269 565 -269 q 473 -246 496 -269 q 450 -186 450 -222 q 473 -126 450 -150 q 531 -103 496 -103 z "},"Ừ":{"ha":1093,"x_min":118,"x_max":1088,"o":"m 1063 1157 q 1088 1049 1088 1099 q 1049 944 1088 986 q 940 892 1011 903 l 940 397 q 831 99 940 207 q 531 -10 722 -10 q 228 99 338 -10 q 118 397 118 207 l 118 972 l 251 972 l 251 397 q 326 187 251 263 q 531 111 400 111 q 733 187 660 111 q 807 397 807 263 l 807 972 l 889 972 q 960 992 936 972 q 983 1044 983 1011 q 963 1118 983 1076 l 1063 1157 m 450 1253 l 599 1072 l 489 1058 l 317 1194 l 450 1253 z "},"Ử":{"ha":1093,"x_min":118,"x_max":1088,"o":"m 1063 1157 q 1088 1049 1088 1099 q 1049 944 1088 986 q 940 892 1011 903 l 940 397 q 831 99 940 207 q 531 -10 722 -10 q 228 99 338 -10 q 118 397 118 207 l 118 972 l 251 972 l 251 397 q 326 187 251 263 q 531 111 400 111 q 733 187 660 111 q 807 397 807 263 l 807 972 l 889 972 q 960 992 936 972 q 983 1044 983 1011 q 963 1118 983 1076 l 1063 1157 m 525 1314 q 619 1285 582 1314 q 657 1203 657 1256 q 629 1118 657 1164 q 557 1035 601 1072 l 485 1068 q 529 1126 513 1094 q 546 1181 546 1157 q 532 1211 546 1199 q 499 1224 518 1224 q 444 1206 472 1224 l 401 1275 q 525 1314 460 1314 z "},"Ữ":{"ha":1093,"x_min":118,"x_max":1088,"o":"m 1063 1157 q 1088 1049 1088 1099 q 1049 944 1088 986 q 940 892 1011 903 l 940 397 q 831 99 940 207 q 531 -10 722 -10 q 228 99 338 -10 q 118 397 118 207 l 118 972 l 251 972 l 251 397 q 326 187 251 263 q 531 111 400 111 q 733 187 660 111 q 807 397 807 263 l 807 972 l 889 972 q 960 992 936 972 q 983 1044 983 1011 q 963 1118 983 1076 l 1063 1157 m 744 1228 q 717 1106 744 1154 q 632 1058 690 1058 q 577 1069 603 1058 q 517 1103 551 1081 q 477 1125 492 1118 q 450 1132 463 1132 q 406 1064 406 1132 l 315 1064 q 342 1185 315 1138 q 428 1233 369 1233 q 481 1223 457 1233 q 543 1190 506 1213 q 583 1168 568 1175 q 610 1161 597 1161 q 654 1228 654 1161 l 744 1228 z "},"Ű":{"ha":1058,"x_min":118,"x_max":940,"o":"m 251 397 q 326 187 251 263 q 531 111 400 111 q 733 187 660 111 q 807 397 807 263 l 807 972 l 940 972 l 940 397 q 831 99 940 207 q 531 -10 722 -10 q 228 99 338 -10 q 118 397 118 207 l 118 972 l 251 972 l 251 397 m 461 1261 l 572 1208 l 444 1058 l 347 1071 l 461 1261 m 676 1261 l 788 1208 l 660 1058 l 563 1071 l 676 1261 z "},"Ȗ":{"ha":1058,"x_min":118,"x_max":940,"o":"m 251 397 q 326 187 251 263 q 531 111 400 111 q 733 187 660 111 q 807 397 807 263 l 807 972 l 940 972 l 940 397 q 831 99 940 207 q 531 -10 722 -10 q 228 99 338 -10 q 118 397 118 207 l 118 972 l 251 972 l 251 397 m 346 1064 q 400 1199 349 1147 q 531 1250 451 1250 q 660 1199 608 1250 q 715 1064 713 1147 l 625 1064 q 596 1134 622 1107 q 531 1161 569 1161 q 465 1134 492 1161 q 436 1064 439 1107 l 346 1064 z "},"Ū":{"ha":1058,"x_min":118,"x_max":940,"o":"m 251 397 q 326 187 251 263 q 531 111 400 111 q 733 187 660 111 q 807 397 807 263 l 807 972 l 940 972 l 940 397 q 831 99 940 207 q 531 -10 722 -10 q 228 99 338 -10 q 118 397 118 207 l 118 972 l 251 972 l 251 397 m 317 1157 l 744 1157 l 744 1071 l 317 1071 l 317 1157 z "},"Ṻ":{"ha":1058,"x_min":118,"x_max":940,"o":"m 251 397 q 326 187 251 263 q 531 111 400 111 q 733 187 660 111 q 807 397 807 263 l 807 972 l 940 972 l 940 397 q 831 99 940 207 q 531 -10 722 -10 q 228 99 338 -10 q 118 397 118 207 l 118 972 l 251 972 l 251 397 z "},"Ų":{"ha":1058,"x_min":118,"x_max":940,"o":"m 940 972 l 940 397 q 902 202 940 286 q 793 65 864 118 q 697 -44 735 17 q 660 -150 660 -106 q 672 -188 660 -175 q 706 -201 683 -201 q 758 -187 731 -201 l 790 -274 q 676 -300 736 -300 q 577 -263 614 -300 q 540 -164 540 -226 q 608 -4 540 -85 q 531 -10 575 -10 q 228 99 338 -10 q 118 397 118 207 l 118 972 l 251 972 l 251 397 q 326 187 251 263 q 531 111 400 111 q 733 187 660 111 q 807 397 807 263 l 807 972 l 940 972 z "},"Ů":{"ha":1058,"x_min":118,"x_max":940,"o":"m 251 397 q 326 187 251 263 q 531 111 400 111 q 733 187 660 111 q 807 397 807 263 l 807 972 l 940 972 l 940 397 q 831 99 940 207 q 531 -10 722 -10 q 228 99 338 -10 q 118 397 118 207 l 118 972 l 251 972 l 251 397 m 531 1336 q 634 1292 590 1336 q 678 1189 678 1249 q 634 1085 678 1129 q 531 1042 590 1042 q 427 1085 471 1042 q 383 1189 383 1129 q 427 1292 383 1249 q 531 1336 471 1336 m 531 1264 q 476 1242 499 1264 q 453 1189 453 1219 q 476 1137 453 1158 q 531 1115 499 1115 q 586 1137 563 1115 q 610 1189 610 1158 q 586 1242 610 1219 q 531 1264 563 1264 z "},"Ũ":{"ha":1058,"x_min":118,"x_max":940,"o":"m 251 397 q 326 187 251 263 q 531 111 400 111 q 733 187 660 111 q 807 397 807 263 l 807 972 l 940 972 l 940 397 q 831 99 940 207 q 531 -10 722 -10 q 228 99 338 -10 q 118 397 118 207 l 118 972 l 251 972 l 251 397 m 744 1228 q 717 1106 744 1154 q 632 1058 690 1058 q 577 1069 603 1058 q 517 1103 551 1081 q 477 1125 492 1118 q 450 1132 463 1132 q 406 1064 406 1132 l 315 1064 q 342 1185 315 1138 q 428 1233 369 1233 q 481 1223 457 1233 q 543 1190 506 1213 q 583 1168 568 1175 q 610 1161 597 1161 q 654 1228 654 1161 l 744 1228 z "},"Ṹ":{"ha":1058,"x_min":118,"x_max":940,"o":"m 251 397 q 326 187 251 263 q 531 111 400 111 q 733 187 660 111 q 807 397 807 263 l 807 972 l 940 972 l 940 397 q 831 99 940 207 q 531 -10 722 -10 q 228 99 338 -10 q 118 397 118 207 l 118 972 l 251 972 l 251 397 m 742 1208 q 715 1101 742 1142 q 632 1061 689 1061 q 575 1072 601 1061 q 514 1100 549 1082 q 443 1128 465 1128 q 406 1112 417 1128 q 394 1065 394 1096 l 318 1065 q 345 1173 318 1132 q 429 1214 372 1214 q 484 1204 458 1214 q 547 1175 510 1194 q 588 1154 571 1161 q 619 1147 604 1147 q 667 1208 667 1147 l 742 1208 m 615 1439 l 726 1364 l 533 1260 l 435 1290 l 615 1439 z "},"V":{"ha":939,"x_min":7,"x_max":932,"o":"m 7 972 l 150 972 l 471 149 l 792 972 l 932 972 l 538 0 l 399 0 l 7 972 z "},"W":{"ha":1453,"x_min":7,"x_max":1447,"o":"m 1308 972 l 1447 972 l 1118 0 l 979 0 l 728 803 l 472 0 l 335 0 l 7 972 l 150 972 l 407 143 l 663 972 l 796 972 l 1053 143 l 1308 972 z "},"Ẃ":{"ha":1453,"x_min":7,"x_max":1447,"o":"m 1308 972 l 1447 972 l 1118 0 l 979 0 l 728 803 l 472 0 l 335 0 l 7 972 l 150 972 l 407 143 l 663 972 l 796 972 l 1053 143 l 1308 972 m 804 1253 l 938 1194 l 765 1058 l 656 1072 l 804 1253 z "},"Ŵ":{"ha":1453,"x_min":7,"x_max":1447,"o":"m 1308 972 l 1447 972 l 1118 0 l 979 0 l 728 803 l 472 0 l 335 0 l 7 972 l 150 972 l 407 143 l 663 972 l 796 972 l 1053 143 l 1308 972 m 942 1065 l 813 1065 l 728 1158 l 643 1065 l 514 1065 l 660 1250 l 796 1250 l 942 1065 z "},"Ẅ":{"ha":1453,"x_min":7,"x_max":1447,"o":"m 1308 972 l 1447 972 l 1118 0 l 979 0 l 728 803 l 472 0 l 335 0 l 7 972 l 150 972 l 407 143 l 663 972 l 796 972 l 1053 143 l 1308 972 m 610 1210 q 661 1189 640 1210 q 682 1135 682 1168 q 661 1081 682 1103 q 610 1058 640 1058 q 558 1081 579 1058 q 536 1135 536 1103 q 557 1189 536 1168 q 610 1210 578 1210 m 849 1210 q 901 1189 881 1210 q 922 1135 922 1168 q 901 1081 922 1103 q 849 1058 879 1058 q 797 1081 818 1058 q 775 1135 775 1103 q 796 1189 775 1168 q 849 1210 817 1210 z "},"Ẁ":{"ha":1453,"x_min":7,"x_max":1447,"o":"m 1308 972 l 1447 972 l 1118 0 l 979 0 l 728 803 l 472 0 l 335 0 l 7 972 l 150 972 l 407 143 l 663 972 l 796 972 l 1053 143 l 1308 972 m 647 1253 l 796 1072 l 686 1058 l 514 1194 l 647 1253 z "},"X":{"ha":940,"x_min":26,"x_max":904,"o":"m 51 972 l 207 972 l 463 610 l 719 972 l 876 972 l 547 506 l 904 0 l 744 0 l 463 393 l 183 0 l 26 0 l 382 500 l 51 972 z "},"Y":{"ha":875,"x_min":4,"x_max":871,"o":"m 871 972 l 507 333 l 507 0 l 374 0 l 374 328 l 4 972 l 140 972 l 440 476 l 735 972 l 871 972 z "},"Ý":{"ha":875,"x_min":4,"x_max":871,"o":"m 871 972 l 507 333 l 507 0 l 374 0 l 374 328 l 4 972 l 140 972 l 440 476 l 735 972 l 871 972 m 514 1253 l 647 1194 l 475 1058 l 365 1072 l 514 1253 z "},"Ŷ":{"ha":875,"x_min":4,"x_max":871,"o":"m 871 972 l 507 333 l 507 0 l 374 0 l 374 328 l 4 972 l 140 972 l 440 476 l 735 972 l 871 972 m 651 1065 l 522 1065 l 438 1158 l 353 1065 l 224 1065 l 369 1250 l 506 1250 l 651 1065 z "},"Ÿ":{"ha":875,"x_min":4,"x_max":871,"o":"m 871 972 l 507 333 l 507 0 l 374 0 l 374 328 l 4 972 l 140 972 l 440 476 l 735 972 l 871 972 m 319 1210 q 371 1189 350 1210 q 392 1135 392 1168 q 371 1081 392 1103 q 319 1058 350 1058 q 267 1081 289 1058 q 246 1135 246 1103 q 267 1189 246 1168 q 319 1210 288 1210 m 558 1210 q 611 1189 590 1210 q 632 1135 632 1168 q 610 1081 632 1103 q 558 1058 589 1058 q 506 1081 528 1058 q 485 1135 485 1103 q 506 1189 485 1168 q 558 1210 526 1210 z "},"Ẏ":{"ha":875,"x_min":4,"x_max":871,"o":"m 871 972 l 507 333 l 507 0 l 374 0 l 374 328 l 4 972 l 140 972 l 440 476 l 735 972 l 871 972 m 438 1225 q 494 1201 471 1225 q 518 1142 518 1178 q 494 1083 518 1107 q 438 1058 471 1058 q 380 1082 403 1058 q 357 1142 357 1106 q 380 1201 357 1178 q 438 1225 403 1225 z "},"Ỵ":{"ha":875,"x_min":4,"x_max":871,"o":"m 871 972 l 507 333 l 507 0 l 374 0 l 374 328 l 4 972 l 140 972 l 440 476 l 735 972 l 871 972 m 440 -103 q 498 -126 475 -103 q 521 -186 521 -150 q 498 -246 521 -222 q 440 -269 475 -269 q 383 -246 406 -269 q 360 -186 360 -222 q 383 -126 360 -150 q 440 -103 406 -103 z "},"Ỳ":{"ha":875,"x_min":4,"x_max":871,"o":"m 871 972 l 507 333 l 507 0 l 374 0 l 374 328 l 4 972 l 140 972 l 440 476 l 735 972 l 871 972 m 357 1253 l 506 1072 l 396 1058 l 224 1194 l 357 1253 z "},"Ỷ":{"ha":875,"x_min":4,"x_max":871,"o":"m 871 972 l 507 333 l 507 0 l 374 0 l 374 328 l 4 972 l 140 972 l 440 476 l 735 972 l 871 972 m 432 1314 q 526 1285 489 1314 q 564 1203 564 1256 q 536 1118 564 1164 q 464 1035 508 1072 l 392 1068 q 436 1126 419 1094 q 453 1181 453 1157 q 439 1211 453 1199 q 406 1224 425 1224 q 351 1206 379 1224 l 308 1275 q 432 1314 367 1314 z "},"Ȳ":{"ha":875,"x_min":4,"x_max":871,"o":"m 871 972 l 507 333 l 507 0 l 374 0 l 374 328 l 4 972 l 140 972 l 440 476 l 735 972 l 871 972 m 224 1157 l 651 1157 l 651 1071 l 224 1071 l 224 1157 z "},"Ỹ":{"ha":875,"x_min":4,"x_max":871,"o":"m 871 972 l 507 333 l 507 0 l 374 0 l 374 328 l 4 972 l 140 972 l 440 476 l 735 972 l 871 972 m 651 1228 q 624 1106 651 1154 q 539 1058 597 1058 q 484 1069 510 1058 q 424 1103 458 1081 q 384 1125 399 1118 q 357 1132 369 1132 q 313 1064 313 1132 l 222 1064 q 249 1185 222 1138 q 335 1233 276 1233 q 388 1223 364 1233 q 450 1190 413 1213 q 490 1168 475 1175 q 517 1161 504 1161 q 561 1228 561 1161 l 651 1228 z "},"Z":{"ha":919,"x_min":57,"x_max":864,"o":"m 75 972 l 857 972 l 857 874 l 235 121 l 864 121 l 863 0 l 57 0 l 57 99 l 679 851 l 74 851 l 75 972 z "},"Ź":{"ha":919,"x_min":57,"x_max":864,"o":"m 75 972 l 857 972 l 857 874 l 235 121 l 864 121 l 863 0 l 57 0 l 57 99 l 679 851 l 74 851 l 75 972 m 543 1253 l 676 1194 l 504 1058 l 394 1072 l 543 1253 z "},"Ž":{"ha":919,"x_min":57,"x_max":864,"o":"m 75 972 l 857 972 l 857 874 l 235 121 l 864 121 l 863 0 l 57 0 l 57 99 l 679 851 l 74 851 l 75 972 m 519 1249 l 649 1249 l 503 1064 l 367 1064 l 221 1249 l 350 1249 l 435 1156 l 519 1249 z "},"Ż":{"ha":919,"x_min":57,"x_max":864,"o":"m 75 972 l 857 972 l 857 874 l 235 121 l 864 121 l 863 0 l 57 0 l 57 99 l 679 851 l 74 851 l 75 972 m 467 1225 q 524 1201 500 1225 q 547 1142 547 1178 q 524 1083 547 1107 q 467 1058 500 1058 q 409 1082 432 1058 q 386 1142 386 1106 q 409 1201 386 1178 q 467 1225 432 1225 z "},"Ẓ":{"ha":919,"x_min":57,"x_max":864,"o":"m 75 972 l 857 972 l 857 874 l 235 121 l 864 121 l 863 0 l 57 0 l 57 99 l 679 851 l 74 851 l 75 972 m 460 -103 q 517 -126 494 -103 q 540 -186 540 -150 q 517 -246 540 -222 q 460 -269 494 -269 q 402 -246 425 -269 q 379 -186 379 -222 q 402 -126 379 -150 q 460 -103 425 -103 z "},"a":{"ha":807,"x_min":64,"x_max":703,"o":"m 575 0 l 575 103 q 318 -6 493 -6 q 184 24 242 -6 q 95 104 126 53 q 64 219 64 156 q 137 376 64 318 q 340 435 210 433 l 574 435 l 574 469 q 526 590 574 547 q 386 632 478 632 q 160 553 275 632 l 106 642 q 252 716 185 693 q 413 739 319 739 q 625 672 550 739 q 701 483 700 604 l 703 0 l 575 0 m 344 101 q 498 145 435 101 q 574 261 561 189 l 574 335 l 358 335 q 228 308 271 335 q 186 225 186 282 q 229 135 186 168 q 344 101 272 101 z "},"á":{"ha":807,"x_min":64,"x_max":703,"o":"m 575 0 l 575 103 q 318 -6 493 -6 q 184 24 242 -6 q 95 104 126 53 q 64 219 64 156 q 137 376 64 318 q 340 435 210 433 l 574 435 l 574 469 q 526 590 574 547 q 386 632 478 632 q 160 553 275 632 l 106 642 q 252 716 185 693 q 413 739 319 739 q 625 672 550 739 q 701 483 700 604 l 703 0 l 575 0 m 344 101 q 498 145 435 101 q 574 261 561 189 l 574 335 l 358 335 q 228 308 271 335 q 186 225 186 282 q 229 135 186 168 q 344 101 272 101 m 475 1044 l 608 986 l 436 850 l 326 864 l 475 1044 z "},"ă":{"ha":807,"x_min":64,"x_max":703,"o":"m 575 0 l 575 103 q 318 -6 493 -6 q 184 24 242 -6 q 95 104 126 53 q 64 219 64 156 q 137 376 64 318 q 340 435 210 433 l 574 435 l 574 469 q 526 590 574 547 q 386 632 478 632 q 160 553 275 632 l 106 642 q 252 716 185 693 q 413 739 319 739 q 625 672 550 739 q 701 483 700 604 l 703 0 l 575 0 m 344 101 q 498 145 435 101 q 574 261 561 189 l 574 335 l 358 335 q 228 308 271 335 q 186 225 186 282 q 229 135 186 168 q 344 101 272 101 m 304 1033 q 333 964 307 992 q 399 936 360 936 q 464 964 438 936 q 493 1033 490 992 l 583 1033 q 528 899 581 950 q 399 847 476 847 q 268 899 319 847 q 214 1033 217 950 l 304 1033 z "},"ắ":{"ha":807,"x_min":64,"x_max":703,"o":"m 575 0 l 575 103 q 318 -6 493 -6 q 184 24 242 -6 q 95 104 126 53 q 64 219 64 156 q 137 376 64 318 q 340 435 210 433 l 574 435 l 574 469 q 526 590 574 547 q 386 632 478 632 q 160 553 275 632 l 106 642 q 252 716 185 693 q 413 739 319 739 q 625 672 550 739 q 701 483 700 604 l 703 0 l 575 0 m 344 101 q 498 145 435 101 q 574 261 561 189 l 574 335 l 358 335 q 228 308 271 335 q 186 225 186 282 q 229 135 186 168 q 344 101 272 101 m 304 1001 q 332 949 306 969 q 399 929 358 929 q 464 949 438 929 q 492 1001 490 969 l 585 1001 q 530 886 582 931 q 399 842 478 842 q 267 886 319 842 q 211 1001 214 931 l 304 1001 m 482 1200 l 593 1125 l 400 1021 l 301 1051 l 482 1200 z "},"ặ":{"ha":807,"x_min":64,"x_max":703,"o":"m 575 0 l 575 103 q 318 -6 493 -6 q 184 24 242 -6 q 95 104 126 53 q 64 219 64 156 q 137 376 64 318 q 340 435 210 433 l 574 435 l 574 469 q 526 590 574 547 q 386 632 478 632 q 160 553 275 632 l 106 642 q 252 716 185 693 q 413 739 319 739 q 625 672 550 739 q 701 483 700 604 l 703 0 l 575 0 m 344 101 q 498 145 435 101 q 574 261 561 189 l 574 335 l 358 335 q 228 308 271 335 q 186 225 186 282 q 229 135 186 168 q 344 101 272 101 m 396 -103 q 453 -126 431 -103 q 476 -186 476 -150 q 453 -246 476 -222 q 396 -269 431 -269 q 338 -246 361 -269 q 315 -186 315 -222 q 338 -126 315 -150 q 396 -103 361 -103 m 301 1033 q 331 964 304 992 q 396 936 357 936 q 461 964 435 936 q 490 1033 488 992 l 581 1033 q 526 899 578 950 q 396 847 474 847 q 265 899 317 847 q 211 1033 214 950 l 301 1033 z "},"ằ":{"ha":807,"x_min":64,"x_max":703,"o":"m 575 0 l 575 103 q 318 -6 493 -6 q 184 24 242 -6 q 95 104 126 53 q 64 219 64 156 q 137 376 64 318 q 340 435 210 433 l 574 435 l 574 469 q 526 590 574 547 q 386 632 478 632 q 160 553 275 632 l 106 642 q 252 716 185 693 q 413 739 319 739 q 625 672 550 739 q 701 483 700 604 l 703 0 l 575 0 m 344 101 q 498 145 435 101 q 574 261 561 189 l 574 335 l 358 335 q 228 308 271 335 q 186 225 186 282 q 229 135 186 168 q 344 101 272 101 m 304 1001 q 332 949 306 969 q 399 929 358 929 q 464 949 438 929 q 492 1001 490 969 l 585 1001 q 530 886 582 931 q 399 842 478 842 q 267 886 319 842 q 211 1001 214 931 l 304 1001 m 303 1200 l 483 1051 l 385 1021 l 192 1125 l 303 1200 z "},"ẳ":{"ha":807,"x_min":64,"x_max":703,"o":"m 575 0 l 575 103 q 318 -6 493 -6 q 184 24 242 -6 q 95 104 126 53 q 64 219 64 156 q 137 376 64 318 q 340 435 210 433 l 574 435 l 574 469 q 526 590 574 547 q 386 632 478 632 q 160 553 275 632 l 106 642 q 252 716 185 693 q 413 739 319 739 q 625 672 550 739 q 701 483 700 604 l 703 0 l 575 0 m 344 101 q 498 145 435 101 q 574 261 561 189 l 574 335 l 358 335 q 228 308 271 335 q 186 225 186 282 q 229 135 186 168 q 344 101 272 101 m 304 1001 q 332 949 306 969 q 399 929 358 929 q 464 949 438 929 q 492 1001 490 969 l 585 1001 q 530 886 582 931 q 399 842 478 842 q 267 886 319 842 q 211 1001 214 931 l 304 1001 m 388 1239 q 470 1214 439 1239 q 501 1149 501 1189 q 477 1083 501 1117 q 411 1018 453 1049 l 343 1046 q 384 1087 369 1065 q 399 1125 399 1108 q 388 1148 399 1139 q 360 1157 376 1157 q 314 1143 336 1157 l 274 1203 q 388 1239 326 1239 z "},"ẵ":{"ha":807,"x_min":64,"x_max":703,"o":"m 575 0 l 575 103 q 318 -6 493 -6 q 184 24 242 -6 q 95 104 126 53 q 64 219 64 156 q 137 376 64 318 q 340 435 210 433 l 574 435 l 574 469 q 526 590 574 547 q 386 632 478 632 q 160 553 275 632 l 106 642 q 252 716 185 693 q 413 739 319 739 q 625 672 550 739 q 701 483 700 604 l 703 0 l 575 0 m 344 101 q 498 145 435 101 q 574 261 561 189 l 574 335 l 358 335 q 228 308 271 335 q 186 225 186 282 q 229 135 186 168 q 344 101 272 101 m 303 1001 q 331 949 304 969 q 397 929 357 929 q 463 949 436 929 q 490 1001 489 969 l 583 1001 q 528 886 581 931 q 397 842 476 842 q 265 886 318 842 q 210 1001 213 931 l 303 1001 m 610 1211 q 583 1104 610 1144 q 500 1064 557 1064 q 443 1074 469 1064 q 382 1103 417 1085 q 311 1131 333 1131 q 274 1115 285 1131 q 263 1068 263 1099 l 186 1068 q 213 1176 186 1135 q 297 1217 240 1217 q 352 1207 326 1217 q 415 1178 378 1197 q 456 1157 439 1164 q 488 1150 472 1150 q 535 1211 535 1150 l 610 1211 z "},"â":{"ha":807,"x_min":64,"x_max":703,"o":"m 575 0 l 575 103 q 318 -6 493 -6 q 184 24 242 -6 q 95 104 126 53 q 64 219 64 156 q 137 376 64 318 q 340 435 210 433 l 574 435 l 574 469 q 526 590 574 547 q 386 632 478 632 q 160 553 275 632 l 106 642 q 252 716 185 693 q 413 739 319 739 q 625 672 550 739 q 701 483 700 604 l 703 0 l 575 0 m 344 101 q 498 145 435 101 q 574 261 561 189 l 574 335 l 358 335 q 228 308 271 335 q 186 225 186 282 q 229 135 186 168 q 344 101 272 101 m 613 857 l 483 857 l 399 950 l 314 857 l 185 857 l 331 1042 l 467 1042 l 613 857 z "},"ấ":{"ha":807,"x_min":64,"x_max":703,"o":"m 575 0 l 575 103 q 318 -6 493 -6 q 184 24 242 -6 q 95 104 126 53 q 64 219 64 156 q 137 376 64 318 q 340 435 210 433 l 574 435 l 574 469 q 526 590 574 547 q 386 632 478 632 q 160 553 275 632 l 106 642 q 252 716 185 693 q 413 739 319 739 q 625 672 550 739 q 701 483 700 604 l 703 0 l 575 0 m 344 101 q 498 145 435 101 q 574 261 561 189 l 574 335 l 358 335 q 228 308 271 335 q 186 225 186 282 q 229 135 186 168 q 344 101 272 101 m 636 842 l 497 842 l 399 919 l 299 842 l 160 842 l 307 975 l 488 975 l 636 842 m 482 1197 l 593 1122 l 400 1018 l 301 1049 l 482 1197 z "},"ậ":{"ha":807,"x_min":64,"x_max":703,"o":"m 575 0 l 575 103 q 318 -6 493 -6 q 184 24 242 -6 q 95 104 126 53 q 64 219 64 156 q 137 376 64 318 q 340 435 210 433 l 574 435 l 574 469 q 526 590 574 547 q 386 632 478 632 q 160 553 275 632 l 106 642 q 252 716 185 693 q 413 739 319 739 q 625 672 550 739 q 701 483 700 604 l 703 0 l 575 0 m 344 101 q 498 145 435 101 q 574 261 561 189 l 574 335 l 358 335 q 228 308 271 335 q 186 225 186 282 q 229 135 186 168 q 344 101 272 101 m 396 -103 q 453 -126 431 -103 q 476 -186 476 -150 q 453 -246 476 -222 q 396 -269 431 -269 q 338 -246 361 -269 q 315 -186 315 -222 q 338 -126 315 -150 q 396 -103 361 -103 m 610 857 l 481 857 l 396 950 l 311 857 l 182 857 l 328 1042 l 464 1042 l 610 857 z "},"ầ":{"ha":807,"x_min":64,"x_max":703,"o":"m 575 0 l 575 103 q 318 -6 493 -6 q 184 24 242 -6 q 95 104 126 53 q 64 219 64 156 q 137 376 64 318 q 340 435 210 433 l 574 435 l 574 469 q 526 590 574 547 q 386 632 478 632 q 160 553 275 632 l 106 642 q 252 716 185 693 q 413 739 319 739 q 625 672 550 739 q 701 483 700 604 l 703 0 l 575 0 m 344 101 q 498 145 435 101 q 574 261 561 189 l 574 335 l 358 335 q 228 308 271 335 q 186 225 186 282 q 229 135 186 168 q 344 101 272 101 m 636 842 l 497 842 l 399 919 l 299 842 l 160 842 l 307 975 l 488 975 l 636 842 m 303 1197 l 483 1049 l 385 1018 l 192 1122 l 303 1197 z "},"ẩ":{"ha":807,"x_min":64,"x_max":703,"o":"m 575 0 l 575 103 q 318 -6 493 -6 q 184 24 242 -6 q 95 104 126 53 q 64 219 64 156 q 137 376 64 318 q 340 435 210 433 l 574 435 l 574 469 q 526 590 574 547 q 386 632 478 632 q 160 553 275 632 l 106 642 q 252 716 185 693 q 413 739 319 739 q 625 672 550 739 q 701 483 700 604 l 703 0 l 575 0 m 344 101 q 498 145 435 101 q 574 261 561 189 l 574 335 l 358 335 q 228 308 271 335 q 186 225 186 282 q 229 135 186 168 q 344 101 272 101 m 636 842 l 497 842 l 399 919 l 299 842 l 160 842 l 307 975 l 488 975 l 636 842 m 389 1236 q 472 1211 440 1236 q 503 1146 503 1186 q 478 1080 503 1114 q 413 1015 454 1046 l 344 1043 q 385 1084 371 1063 q 400 1122 400 1106 q 389 1145 400 1136 q 361 1154 378 1154 q 315 1140 338 1154 l 275 1200 q 389 1236 328 1236 z "},"ẫ":{"ha":807,"x_min":64,"x_max":703,"o":"m 575 0 l 575 103 q 318 -6 493 -6 q 184 24 242 -6 q 95 104 126 53 q 64 219 64 156 q 137 376 64 318 q 340 435 210 433 l 574 435 l 574 469 q 526 590 574 547 q 386 632 478 632 q 160 553 275 632 l 106 642 q 252 716 185 693 q 413 739 319 739 q 625 672 550 739 q 701 483 700 604 l 703 0 l 575 0 m 344 101 q 498 145 435 101 q 574 261 561 189 l 574 335 l 358 335 q 228 308 271 335 q 186 225 186 282 q 229 135 186 168 q 344 101 272 101 m 638 842 l 499 842 l 400 919 l 300 842 l 161 842 l 308 975 l 489 975 l 638 842 m 610 1176 q 583 1069 610 1110 q 500 1029 557 1029 q 443 1040 469 1029 q 382 1068 417 1050 q 311 1096 333 1096 q 274 1080 285 1096 q 263 1033 263 1064 l 186 1033 q 213 1141 186 1100 q 297 1182 240 1182 q 352 1172 326 1182 q 415 1143 378 1163 q 456 1122 439 1129 q 488 1115 472 1115 q 535 1176 535 1115 l 610 1176 z "},"ȁ":{"ha":807,"x_min":64,"x_max":703,"o":"m 575 0 l 575 103 q 318 -6 493 -6 q 184 24 242 -6 q 95 104 126 53 q 64 219 64 156 q 137 376 64 318 q 340 435 210 433 l 574 435 l 574 469 q 526 590 574 547 q 386 632 478 632 q 160 553 275 632 l 106 642 q 252 716 185 693 q 413 739 319 739 q 625 672 550 739 q 701 483 700 604 l 703 0 l 575 0 m 344 101 q 498 145 435 101 q 574 261 561 189 l 574 335 l 358 335 q 228 308 271 335 q 186 225 186 282 q 229 135 186 168 q 344 101 272 101 m 239 1053 l 354 863 l 256 850 l 128 1000 l 239 1053 m 454 1053 l 569 863 l 471 850 l 343 1000 l 454 1053 z "},"ä":{"ha":807,"x_min":64,"x_max":703,"o":"m 575 0 l 575 103 q 318 -6 493 -6 q 184 24 242 -6 q 95 104 126 53 q 64 219 64 156 q 137 376 64 318 q 340 435 210 433 l 574 435 l 574 469 q 526 590 574 547 q 386 632 478 632 q 160 553 275 632 l 106 642 q 252 716 185 693 q 413 739 319 739 q 625 672 550 739 q 701 483 700 604 l 703 0 l 575 0 m 344 101 q 498 145 435 101 q 574 261 561 189 l 574 335 l 358 335 q 228 308 271 335 q 186 225 186 282 q 229 135 186 168 q 344 101 272 101 m 279 1019 q 332 998 311 1019 q 353 943 353 976 q 332 890 353 911 q 279 868 311 868 q 226 890 247 868 q 206 943 206 911 q 226 998 206 976 q 279 1019 247 1019 m 518 1019 q 571 998 550 1019 q 592 943 592 976 q 571 890 592 911 q 518 868 550 868 q 465 890 486 868 q 444 943 444 911 q 465 998 444 976 q 518 1019 486 1019 z "},"ạ":{"ha":807,"x_min":64,"x_max":703,"o":"m 575 0 l 575 103 q 318 -6 493 -6 q 184 24 242 -6 q 95 104 126 53 q 64 219 64 156 q 137 376 64 318 q 340 435 210 433 l 574 435 l 574 469 q 526 590 574 547 q 386 632 478 632 q 160 553 275 632 l 106 642 q 252 716 185 693 q 413 739 319 739 q 625 672 550 739 q 701 483 700 604 l 703 0 l 575 0 m 344 101 q 498 145 435 101 q 574 261 561 189 l 574 335 l 358 335 q 228 308 271 335 q 186 225 186 282 q 229 135 186 168 q 344 101 272 101 m 396 -103 q 453 -126 431 -103 q 476 -186 476 -150 q 453 -246 476 -222 q 396 -269 431 -269 q 338 -246 361 -269 q 315 -186 315 -222 q 338 -126 315 -150 q 396 -103 361 -103 z "},"à":{"ha":807,"x_min":64,"x_max":703,"o":"m 575 0 l 575 103 q 318 -6 493 -6 q 184 24 242 -6 q 95 104 126 53 q 64 219 64 156 q 137 376 64 318 q 340 435 210 433 l 574 435 l 574 469 q 526 590 574 547 q 386 632 478 632 q 160 553 275 632 l 106 642 q 252 716 185 693 q 413 739 319 739 q 625 672 550 739 q 701 483 700 604 l 703 0 l 575 0 m 344 101 q 498 145 435 101 q 574 261 561 189 l 574 335 l 358 335 q 228 308 271 335 q 186 225 186 282 q 229 135 186 168 q 344 101 272 101 m 318 1044 l 467 864 l 357 850 l 185 986 l 318 1044 z "},"ả":{"ha":807,"x_min":64,"x_max":703,"o":"m 575 0 l 575 103 q 318 -6 493 -6 q 184 24 242 -6 q 95 104 126 53 q 64 219 64 156 q 137 376 64 318 q 340 435 210 433 l 574 435 l 574 469 q 526 590 574 547 q 386 632 478 632 q 160 553 275 632 l 106 642 q 252 716 185 693 q 413 739 319 739 q 625 672 550 739 q 701 483 700 604 l 703 0 l 575 0 m 344 101 q 498 145 435 101 q 574 261 561 189 l 574 335 l 358 335 q 228 308 271 335 q 186 225 186 282 q 229 135 186 168 q 344 101 272 101 m 393 1082 q 488 1053 450 1082 q 525 971 525 1024 q 497 886 525 932 q 425 803 469 840 l 353 836 q 397 894 381 863 q 414 949 414 925 q 400 979 414 967 q 367 992 386 992 q 313 974 340 992 l 269 1043 q 393 1082 328 1082 z "},"ȃ":{"ha":807,"x_min":64,"x_max":703,"o":"m 575 0 l 575 103 q 318 -6 493 -6 q 184 24 242 -6 q 95 104 126 53 q 64 219 64 156 q 137 376 64 318 q 340 435 210 433 l 574 435 l 574 469 q 526 590 574 547 q 386 632 478 632 q 160 553 275 632 l 106 642 q 252 716 185 693 q 413 739 319 739 q 625 672 550 739 q 701 483 700 604 l 703 0 l 575 0 m 344 101 q 498 145 435 101 q 574 261 561 189 l 574 335 l 358 335 q 228 308 271 335 q 186 225 186 282 q 229 135 186 168 q 344 101 272 101 m 214 847 q 268 982 217 931 q 399 1033 319 1033 q 528 982 476 1033 q 583 847 581 931 l 493 847 q 464 917 490 890 q 399 944 438 944 q 333 917 360 944 q 304 847 307 890 l 214 847 z "},"ā":{"ha":807,"x_min":64,"x_max":703,"o":"m 575 0 l 575 103 q 318 -6 493 -6 q 184 24 242 -6 q 95 104 126 53 q 64 219 64 156 q 137 376 64 318 q 340 435 210 433 l 574 435 l 574 469 q 526 590 574 547 q 386 632 478 632 q 160 553 275 632 l 106 642 q 252 716 185 693 q 413 739 319 739 q 625 672 550 739 q 701 483 700 604 l 703 0 l 575 0 m 344 101 q 498 145 435 101 q 574 261 561 189 l 574 335 l 358 335 q 228 308 271 335 q 186 225 186 282 q 229 135 186 168 q 344 101 272 101 m 199 986 l 597 986 l 597 900 l 199 900 l 199 986 z "},"ą":{"ha":807,"x_min":64,"x_max":703,"o":"m 615 -201 q 669 -187 643 -201 l 701 -274 q 589 -300 649 -300 q 489 -269 526 -300 q 451 -179 451 -237 q 575 15 451 -75 l 575 103 q 318 -6 493 -6 q 184 24 242 -6 q 95 104 126 53 q 64 219 64 156 q 137 376 64 318 q 340 435 210 433 l 574 435 l 574 469 q 526 590 574 547 q 386 632 478 632 q 160 553 275 632 l 106 642 q 252 716 185 693 q 413 739 319 739 q 625 672 550 739 q 701 483 700 604 l 703 0 q 602 -87 632 -51 q 572 -156 572 -122 q 615 -201 572 -201 m 344 101 q 498 145 435 101 q 574 261 561 189 l 574 335 l 358 335 q 228 308 271 335 q 186 225 186 282 q 229 135 186 168 q 344 101 272 101 z "},"å":{"ha":807,"x_min":64,"x_max":703,"o":"m 575 0 l 575 103 q 318 -6 493 -6 q 184 24 242 -6 q 95 104 126 53 q 64 219 64 156 q 137 376 64 318 q 340 435 210 433 l 574 435 l 574 469 q 526 590 574 547 q 386 632 478 632 q 160 553 275 632 l 106 642 q 252 716 185 693 q 413 739 319 739 q 625 672 550 739 q 701 483 700 604 l 703 0 l 575 0 m 344 101 q 498 145 435 101 q 574 261 561 189 l 574 335 l 358 335 q 228 308 271 335 q 186 225 186 282 q 229 135 186 168 q 344 101 272 101 m 399 1099 q 502 1055 458 1099 q 546 951 546 1011 q 502 848 546 892 q 399 804 458 804 q 295 848 339 804 q 251 951 251 892 q 295 1055 251 1011 q 399 1099 339 1099 m 399 1026 q 344 1004 367 1026 q 321 951 321 982 q 344 899 321 921 q 399 878 367 878 q 454 899 431 878 q 478 951 478 921 q 454 1004 478 982 q 399 1026 431 1026 z "},"ǻ":{"ha":807,"x_min":64,"x_max":703,"o":"m 575 0 l 575 103 q 318 -6 493 -6 q 184 24 242 -6 q 95 104 126 53 q 64 219 64 156 q 137 376 64 318 q 340 435 210 433 l 574 435 l 574 469 q 526 590 574 547 q 386 632 478 632 q 160 553 275 632 l 106 642 q 252 716 185 693 q 413 739 319 739 q 625 672 550 739 q 701 483 700 604 l 703 0 l 575 0 m 344 101 q 498 145 435 101 q 574 261 561 189 l 574 335 l 358 335 q 228 308 271 335 q 186 225 186 282 q 229 135 186 168 q 344 101 272 101 m 399 1099 q 502 1055 458 1099 q 546 951 546 1011 q 502 848 546 892 q 399 804 458 804 q 295 848 339 804 q 251 951 251 892 q 295 1055 251 1011 q 399 1099 339 1099 m 399 1026 q 344 1004 367 1026 q 321 951 321 982 q 344 899 321 921 q 399 878 367 878 q 454 899 431 878 q 478 951 478 921 q 454 1004 478 982 q 399 1026 431 1026 m 483 1317 l 594 1242 l 401 1138 l 303 1168 l 483 1317 z "},"ã":{"ha":807,"x_min":64,"x_max":703,"o":"m 575 0 l 575 103 q 318 -6 493 -6 q 184 24 242 -6 q 95 104 126 53 q 64 219 64 156 q 137 376 64 318 q 340 435 210 433 l 574 435 l 574 469 q 526 590 574 547 q 386 632 478 632 q 160 553 275 632 l 106 642 q 252 716 185 693 q 413 739 319 739 q 625 672 550 739 q 701 483 700 604 l 703 0 l 575 0 m 344 101 q 498 145 435 101 q 574 261 561 189 l 574 335 l 358 335 q 228 308 271 335 q 186 225 186 282 q 229 135 186 168 q 344 101 272 101 m 613 1014 q 585 892 613 940 q 500 844 558 844 q 445 856 471 844 q 385 889 419 867 q 345 911 360 904 q 318 918 331 918 q 274 850 274 918 l 183 850 q 210 972 183 924 q 296 1019 238 1019 q 349 1009 325 1019 q 411 976 374 999 q 451 954 436 961 q 478 947 465 947 q 522 1014 522 947 l 613 1014 z "},"æ":{"ha":1358,"x_min":64,"x_max":1310,"o":"m 708 317 q 743 211 708 261 q 836 131 778 161 q 960 101 894 101 q 1080 124 1024 101 q 1179 192 1136 147 l 1250 118 q 1118 27 1194 58 q 950 -4 1042 -4 q 758 44 842 -4 q 633 181 675 93 q 509 42 589 89 q 317 -6 429 -6 q 133 55 203 -6 q 64 214 64 115 q 137 363 64 310 q 342 417 210 417 l 576 417 l 576 469 q 526 590 575 549 q 386 632 478 632 q 140 553 269 632 l 106 646 q 413 739 263 739 q 574 706 507 739 q 671 610 640 672 q 788 706 717 672 q 947 739 860 739 q 1140 689 1057 739 q 1266 549 1222 639 q 1307 340 1310 458 l 708 340 l 708 317 m 1176 413 q 1110 578 1172 515 q 949 642 1047 642 q 785 578 851 642 q 708 413 718 515 l 1176 413 m 365 344 q 233 313 279 344 q 186 225 186 282 q 230 126 186 164 q 344 88 274 88 q 485 125 428 88 q 578 239 543 163 l 576 344 l 365 344 z "},"ǽ":{"ha":1358,"x_min":64,"x_max":1307,"o":"m 708 317 q 743 211 708 261 q 836 131 778 161 q 960 101 894 101 q 1080 124 1024 101 q 1179 192 1136 147 l 1250 118 q 1118 27 1194 58 q 950 -4 1042 -4 q 758 44 842 -4 q 633 181 675 93 q 509 42 589 89 q 317 -6 429 -6 q 133 55 203 -6 q 64 214 64 115 q 137 363 64 310 q 342 417 210 417 l 576 417 l 576 469 q 526 590 575 549 q 386 632 478 632 q 140 553 269 632 l 106 646 q 413 739 263 739 q 574 706 507 739 q 671 610 640 672 q 788 706 717 672 q 947 739 860 739 q 1140 689 1057 739 q 1266 549 1222 639 q 1307 340 1310 458 l 708 340 l 708 317 m 1176 413 q 1110 578 1172 515 q 949 642 1047 642 q 785 578 851 642 q 708 413 718 515 l 1176 413 m 365 344 q 233 313 279 344 q 186 225 186 282 q 230 126 186 164 q 344 88 274 88 q 485 125 428 88 q 578 239 543 163 l 576 344 l 365 344 m 756 1044 l 889 986 l 717 850 l 607 864 l 756 1044 z "},"b":{"ha":942,"x_min":133,"x_max":888,"o":"m 535 739 q 718 692 638 739 q 843 560 799 644 q 888 365 888 475 q 844 173 888 257 q 720 42 800 89 q 538 -4 640 -4 q 374 35 444 -4 q 263 146 303 74 l 263 0 l 133 0 l 133 1031 l 263 1031 l 263 589 q 373 700 303 661 q 535 739 443 739 m 510 108 q 637 142 581 108 q 724 235 693 175 q 756 369 756 294 q 724 503 756 443 q 636 596 692 563 q 510 629 581 629 q 383 596 439 629 q 294 503 326 563 q 263 369 263 443 q 294 234 263 293 q 383 142 326 175 q 510 108 439 108 z "},"c":{"ha":781,"x_min":54,"x_max":722,"o":"m 642 539 q 432 624 554 624 q 303 592 360 624 q 215 501 247 560 q 183 367 183 443 q 215 232 183 290 q 301 141 246 174 q 426 108 356 108 q 554 132 497 108 q 649 200 611 156 l 722 125 q 595 29 672 63 q 421 -4 518 -4 q 231 43 314 -4 q 101 174 147 90 q 54 367 54 258 q 101 560 54 475 q 231 692 147 644 q 421 739 314 739 q 588 710 514 739 q 713 628 663 682 l 642 539 z "},"ć":{"ha":781,"x_min":54,"x_max":722,"o":"m 642 539 q 432 624 554 624 q 303 592 360 624 q 215 501 247 560 q 183 367 183 443 q 215 232 183 290 q 301 141 246 174 q 426 108 356 108 q 554 132 497 108 q 649 200 611 156 l 722 125 q 595 29 672 63 q 421 -4 518 -4 q 231 43 314 -4 q 101 174 147 90 q 54 367 54 258 q 101 560 54 475 q 231 692 147 644 q 421 739 314 739 q 588 710 514 739 q 713 628 663 682 l 642 539 m 490 1044 l 624 986 l 451 850 l 342 864 l 490 1044 z "},"č":{"ha":781,"x_min":54,"x_max":722,"o":"m 642 539 q 432 624 554 624 q 303 592 360 624 q 215 501 247 560 q 183 367 183 443 q 215 232 183 290 q 301 141 246 174 q 426 108 356 108 q 554 132 497 108 q 649 200 611 156 l 722 125 q 595 29 672 63 q 421 -4 518 -4 q 231 43 314 -4 q 101 174 147 90 q 54 367 54 258 q 101 560 54 475 q 231 692 147 644 q 421 739 314 739 q 588 710 514 739 q 713 628 663 682 l 642 539 m 497 1040 l 626 1040 l 481 856 l 344 856 l 199 1040 l 328 1040 l 413 947 l 497 1040 z "},"ç":{"ha":781,"x_min":54,"x_max":722,"o":"m 722 125 q 610 36 678 69 q 458 -3 543 3 l 435 -72 q 519 -110 490 -81 q 547 -181 547 -140 q 504 -269 547 -236 q 394 -301 461 -301 q 267 -272 329 -301 l 294 -193 q 379 -211 339 -211 q 427 -198 410 -211 q 444 -168 444 -185 q 426 -138 444 -150 q 374 -126 407 -126 l 329 -126 l 368 -1 q 204 59 275 10 q 94 188 133 108 q 54 367 54 268 q 101 560 54 475 q 231 692 147 644 q 421 739 314 739 q 588 710 514 739 q 713 628 663 682 l 642 539 q 432 624 554 624 q 303 592 360 624 q 215 501 247 560 q 183 367 183 443 q 215 232 183 290 q 301 141 246 174 q 426 108 356 108 q 554 132 497 108 q 649 200 611 156 l 722 125 z "},"ḉ":{"ha":781,"x_min":54,"x_max":722,"o":"m 599 999 l 426 863 l 317 876 l 465 1057 l 599 999 m 722 125 q 610 36 678 69 q 458 -3 543 3 l 435 -72 q 519 -110 490 -81 q 547 -181 547 -140 q 504 -269 547 -236 q 394 -301 461 -301 q 267 -272 329 -301 l 294 -193 q 379 -211 339 -211 q 427 -198 410 -211 q 444 -168 444 -185 q 426 -138 444 -150 q 374 -126 407 -126 l 329 -126 l 368 -1 q 204 59 275 10 q 94 188 133 108 q 54 367 54 268 q 101 560 54 475 q 231 692 147 644 q 421 739 314 739 q 588 710 514 739 q 713 628 663 682 l 642 539 q 432 624 554 624 q 303 592 360 624 q 215 501 247 560 q 183 367 183 443 q 215 232 183 290 q 301 141 246 174 q 426 108 356 108 q 554 132 497 108 q 649 200 611 156 l 722 125 z "},"ĉ":{"ha":781,"x_min":54,"x_max":722,"o":"m 642 539 q 432 624 554 624 q 303 592 360 624 q 215 501 247 560 q 183 367 183 443 q 215 232 183 290 q 301 141 246 174 q 426 108 356 108 q 554 132 497 108 q 649 200 611 156 l 722 125 q 595 29 672 63 q 421 -4 518 -4 q 231 43 314 -4 q 101 174 147 90 q 54 367 54 258 q 101 560 54 475 q 231 692 147 644 q 421 739 314 739 q 588 710 514 739 q 713 628 663 682 l 642 539 m 628 857 l 499 857 l 414 950 l 329 857 l 200 857 l 346 1042 l 482 1042 l 628 857 z "},"ċ":{"ha":781,"x_min":54,"x_max":722,"o":"m 642 539 q 432 624 554 624 q 303 592 360 624 q 215 501 247 560 q 183 367 183 443 q 215 232 183 290 q 301 141 246 174 q 426 108 356 108 q 554 132 497 108 q 649 200 611 156 l 722 125 q 595 29 672 63 q 421 -4 518 -4 q 231 43 314 -4 q 101 174 147 90 q 54 367 54 258 q 101 560 54 475 q 231 692 147 644 q 421 739 314 739 q 588 710 514 739 q 713 628 663 682 l 642 539 m 414 1028 q 472 1004 449 1028 q 494 944 494 981 q 472 885 494 908 q 414 861 449 861 q 356 885 379 861 q 333 944 333 908 q 356 1004 333 981 q 414 1028 379 1028 z "},"d":{"ha":944,"x_min":54,"x_max":811,"o":"m 811 1031 l 811 0 l 682 0 l 682 146 q 570 33 640 72 q 407 -7 500 -7 q 223 41 303 -7 q 99 174 143 89 q 54 369 54 260 q 99 562 54 478 q 223 693 143 646 q 406 740 303 740 q 571 701 500 740 q 682 589 642 663 l 682 1031 l 811 1031 m 433 104 q 562 138 506 104 q 650 231 618 171 q 682 365 682 290 q 650 501 682 442 q 562 594 618 561 q 433 628 506 628 q 305 594 361 628 q 217 500 249 560 q 185 365 185 440 q 217 231 185 290 q 305 138 249 171 q 433 104 361 104 z "},"ð":{"ha":813,"x_min":57,"x_max":760,"o":"m 538 846 q 701 613 643 740 q 760 356 760 486 q 715 165 760 247 q 586 39 669 83 q 392 -6 503 -6 q 216 33 292 -6 q 99 144 140 72 q 57 311 57 215 q 96 470 57 401 q 206 576 135 539 q 372 614 278 614 q 526 580 456 614 q 629 488 596 546 q 563 648 613 568 q 436 800 513 728 l 192 686 l 158 758 l 369 857 q 181 974 279 928 l 267 1036 q 474 904 375 985 l 663 992 l 696 919 l 538 846 m 400 110 q 562 165 501 110 q 622 311 622 219 q 562 461 622 404 q 401 518 501 518 q 242 464 301 518 q 182 318 182 410 q 242 167 182 224 q 400 110 301 110 z "},"ď":{"ha":1033,"x_min":54,"x_max":1060,"o":"m 811 1031 l 811 0 l 682 0 l 682 146 q 570 33 640 72 q 407 -7 500 -7 q 223 41 303 -7 q 99 174 143 89 q 54 369 54 260 q 99 562 54 478 q 223 693 143 646 q 406 740 303 740 q 571 701 500 740 q 682 589 642 663 l 682 1031 l 811 1031 m 433 104 q 562 138 506 104 q 650 231 618 171 q 682 365 682 290 q 650 501 682 442 q 562 594 618 561 q 433 628 506 628 q 305 594 361 628 q 217 500 249 560 q 185 365 185 440 q 217 231 185 290 q 305 138 249 171 q 433 104 361 104 m 938 1031 l 1060 1031 l 1026 757 l 938 757 l 938 1031 z "},"đ":{"ha":943,"x_min":54,"x_max":913,"o":"m 913 826 l 811 826 l 811 0 l 682 0 l 682 151 q 567 35 639 76 q 404 -7 494 -7 q 223 40 303 -7 q 99 169 143 86 q 54 357 54 251 q 99 544 54 463 q 222 672 143 626 q 401 718 300 718 q 565 676 492 718 q 682 560 639 633 l 682 826 l 383 826 l 383 907 l 682 907 l 682 1031 l 811 1031 l 811 907 l 913 907 l 913 826 m 433 104 q 561 136 504 104 q 650 225 618 168 q 682 354 682 282 q 650 483 682 426 q 561 573 618 540 q 433 606 504 606 q 305 573 361 606 q 217 483 249 540 q 185 354 185 426 q 217 225 185 282 q 305 136 249 168 q 433 104 361 104 z "},"ḍ":{"ha":944,"x_min":54,"x_max":811,"o":"m 811 1031 l 811 0 l 682 0 l 682 146 q 570 33 640 72 q 407 -7 500 -7 q 223 41 303 -7 q 99 174 143 89 q 54 369 54 260 q 99 562 54 478 q 223 693 143 646 q 406 740 303 740 q 571 701 500 740 q 682 589 642 663 l 682 1031 l 811 1031 m 433 104 q 562 138 506 104 q 650 231 618 171 q 682 365 682 290 q 650 501 682 442 q 562 594 618 561 q 433 628 506 628 q 305 594 361 628 q 217 500 249 560 q 185 365 185 440 q 217 231 185 290 q 305 138 249 171 q 433 104 361 104 m 488 -103 q 545 -126 522 -103 q 568 -186 568 -150 q 545 -246 568 -222 q 488 -269 522 -269 q 430 -246 453 -269 q 407 -186 407 -222 q 430 -126 407 -150 q 488 -103 453 -103 z "},"ḏ":{"ha":944,"x_min":54,"x_max":811,"o":"m 811 1031 l 811 0 l 682 0 l 682 146 q 570 33 640 72 q 407 -7 500 -7 q 223 41 303 -7 q 99 174 143 89 q 54 369 54 260 q 99 562 54 478 q 223 693 143 646 q 406 740 303 740 q 571 701 500 740 q 682 589 642 663 l 682 1031 l 811 1031 m 433 104 q 562 138 506 104 q 650 231 618 171 q 682 365 682 290 q 650 501 682 442 q 562 594 618 561 q 433 628 506 628 q 305 594 361 628 q 217 500 249 560 q 185 365 185 440 q 217 231 185 290 q 305 138 249 171 q 433 104 361 104 m 288 -114 l 686 -114 l 686 -200 l 288 -200 l 288 -114 z "},"ǆ":{"ha":1682,"x_min":54,"x_max":1626,"o":"m 811 1031 l 811 0 l 682 0 l 682 146 q 570 33 640 72 q 407 -7 500 -7 q 223 41 303 -7 q 99 174 143 89 q 54 369 54 260 q 99 562 54 478 q 223 693 143 646 q 406 740 303 740 q 571 701 500 740 q 682 589 642 663 l 682 1031 l 811 1031 m 433 104 q 562 138 506 104 q 650 231 618 171 q 682 365 682 290 q 650 501 682 442 q 562 594 618 561 q 433 628 506 628 q 305 594 361 628 q 217 500 249 560 q 185 365 185 440 q 217 231 185 290 q 305 138 249 171 q 433 104 361 104 m 1025 735 l 1615 733 l 1615 642 l 1171 107 l 1626 106 l 1626 -1 l 1013 0 l 1013 92 l 1456 626 l 1025 628 l 1025 735 m 1401 1040 l 1531 1040 l 1385 856 l 1249 856 l 1103 1040 l 1232 1040 l 1317 947 l 1401 1040 z "},"e":{"ha":817,"x_min":54,"x_max":767,"o":"m 421 739 q 679 638 592 739 q 767 358 767 538 q 765 317 767 331 l 185 317 q 267 160 200 218 q 433 101 335 101 q 555 125 499 101 q 653 192 611 149 l 724 118 q 593 28 669 60 q 424 -4 517 -4 q 231 42 315 -4 q 101 174 147 89 q 54 367 54 258 q 101 559 54 475 q 231 691 147 643 q 421 739 314 739 m 650 417 q 583 574 644 517 q 422 632 522 632 q 260 574 325 632 q 183 417 196 515 l 650 417 z "},"é":{"ha":817,"x_min":54,"x_max":767,"o":"m 421 739 q 679 638 592 739 q 767 358 767 538 q 765 317 767 331 l 185 317 q 267 160 200 218 q 433 101 335 101 q 555 125 499 101 q 653 192 611 149 l 724 118 q 593 28 669 60 q 424 -4 517 -4 q 231 42 315 -4 q 101 174 147 89 q 54 367 54 258 q 101 559 54 475 q 231 691 147 643 q 421 739 314 739 m 650 417 q 583 574 644 517 q 422 632 522 632 q 260 574 325 632 q 183 417 196 515 l 650 417 m 490 1044 l 624 986 l 451 850 l 342 864 l 490 1044 z "},"ĕ":{"ha":817,"x_min":54,"x_max":767,"o":"m 421 739 q 679 638 592 739 q 767 358 767 538 q 765 317 767 331 l 185 317 q 267 160 200 218 q 433 101 335 101 q 555 125 499 101 q 653 192 611 149 l 724 118 q 593 28 669 60 q 424 -4 517 -4 q 231 42 315 -4 q 101 174 147 89 q 54 367 54 258 q 101 559 54 475 q 231 691 147 643 q 421 739 314 739 m 650 417 q 583 574 644 517 q 422 632 522 632 q 260 574 325 632 q 183 417 196 515 l 650 417 m 319 1033 q 349 964 322 992 q 414 936 375 936 q 479 964 453 936 q 508 1033 506 992 l 599 1033 q 544 899 596 950 q 414 847 492 847 q 283 899 335 847 q 229 1033 232 950 l 319 1033 z "},"ě":{"ha":817,"x_min":54,"x_max":767,"o":"m 421 739 q 679 638 592 739 q 767 358 767 538 q 765 317 767 331 l 185 317 q 267 160 200 218 q 433 101 335 101 q 555 125 499 101 q 653 192 611 149 l 724 118 q 593 28 669 60 q 424 -4 517 -4 q 231 42 315 -4 q 101 174 147 89 q 54 367 54 258 q 101 559 54 475 q 231 691 147 643 q 421 739 314 739 m 650 417 q 583 574 644 517 q 422 632 522 632 q 260 574 325 632 q 183 417 196 515 l 650 417 m 497 1040 l 626 1040 l 481 856 l 344 856 l 199 1040 l 328 1040 l 413 947 l 497 1040 z "},"ḝ":{"ha":817,"x_min":54,"x_max":767,"o":"m 403 860 q 273 911 325 860 q 218 1046 221 963 l 308 1046 q 338 976 311 1004 q 403 949 364 949 q 468 976 442 949 q 497 1046 494 1004 l 588 1046 q 533 911 585 963 q 403 860 482 860 m 421 739 q 679 638 592 739 q 767 358 767 538 q 765 317 767 331 l 185 317 q 267 160 200 218 q 433 101 335 101 q 555 125 499 101 q 653 192 611 149 l 724 118 q 614 37 678 68 q 474 -1 550 6 l 449 -72 q 533 -110 504 -81 q 561 -181 561 -140 q 518 -269 561 -236 q 408 -301 475 -301 q 281 -272 344 -301 l 308 -193 q 393 -211 353 -211 q 441 -198 424 -211 q 458 -168 458 -185 q 440 -138 458 -150 q 388 -126 421 -126 l 343 -126 l 382 -3 q 210 55 285 6 q 95 185 136 104 q 54 367 54 265 q 101 559 54 475 q 231 691 147 643 q 421 739 314 739 m 650 417 q 583 574 644 517 q 422 632 522 632 q 260 574 325 632 q 183 417 196 515 l 650 417 z "},"ê":{"ha":817,"x_min":54,"x_max":767,"o":"m 421 739 q 679 638 592 739 q 767 358 767 538 q 765 317 767 331 l 185 317 q 267 160 200 218 q 433 101 335 101 q 555 125 499 101 q 653 192 611 149 l 724 118 q 593 28 669 60 q 424 -4 517 -4 q 231 42 315 -4 q 101 174 147 89 q 54 367 54 258 q 101 559 54 475 q 231 691 147 643 q 421 739 314 739 m 650 417 q 583 574 644 517 q 422 632 522 632 q 260 574 325 632 q 183 417 196 515 l 650 417 m 628 857 l 499 857 l 414 950 l 329 857 l 200 857 l 346 1042 l 482 1042 l 628 857 z "},"ế":{"ha":817,"x_min":54,"x_max":767,"o":"m 421 739 q 679 638 592 739 q 767 358 767 538 q 765 317 767 331 l 185 317 q 267 160 200 218 q 433 101 335 101 q 555 125 499 101 q 653 192 611 149 l 724 118 q 593 28 669 60 q 424 -4 517 -4 q 231 42 315 -4 q 101 174 147 89 q 54 367 54 258 q 101 559 54 475 q 231 691 147 643 q 421 739 314 739 m 650 417 q 583 574 644 517 q 422 632 522 632 q 260 574 325 632 q 183 417 196 515 l 650 417 m 651 842 l 513 842 l 414 919 l 314 842 l 175 842 l 322 975 l 503 975 l 651 842 m 497 1197 l 608 1122 l 415 1018 l 317 1049 l 497 1197 z "},"ệ":{"ha":817,"x_min":54,"x_max":767,"o":"m 421 739 q 679 638 592 739 q 767 358 767 538 q 765 317 767 331 l 185 317 q 267 160 200 218 q 433 101 335 101 q 555 125 499 101 q 653 192 611 149 l 724 118 q 593 28 669 60 q 424 -4 517 -4 q 231 42 315 -4 q 101 174 147 89 q 54 367 54 258 q 101 559 54 475 q 231 691 147 643 q 421 739 314 739 m 650 417 q 583 574 644 517 q 422 632 522 632 q 260 574 325 632 q 183 417 196 515 l 650 417 m 415 -103 q 473 -126 450 -103 q 496 -186 496 -150 q 473 -246 496 -222 q 415 -269 450 -269 q 358 -246 381 -269 q 335 -186 335 -222 q 358 -126 335 -150 q 415 -103 381 -103 m 629 857 l 500 857 l 415 950 l 331 857 l 201 857 l 347 1042 l 483 1042 l 629 857 z "},"ề":{"ha":817,"x_min":54,"x_max":767,"o":"m 421 739 q 679 638 592 739 q 767 358 767 538 q 765 317 767 331 l 185 317 q 267 160 200 218 q 433 101 335 101 q 555 125 499 101 q 653 192 611 149 l 724 118 q 593 28 669 60 q 424 -4 517 -4 q 231 42 315 -4 q 101 174 147 89 q 54 367 54 258 q 101 559 54 475 q 231 691 147 643 q 421 739 314 739 m 650 417 q 583 574 644 517 q 422 632 522 632 q 260 574 325 632 q 183 417 196 515 l 650 417 m 651 842 l 513 842 l 414 919 l 314 842 l 175 842 l 322 975 l 503 975 l 651 842 m 318 1197 l 499 1049 l 400 1018 l 207 1122 l 318 1197 z "},"ể":{"ha":817,"x_min":54,"x_max":767,"o":"m 421 739 q 679 638 592 739 q 767 358 767 538 q 765 317 767 331 l 185 317 q 267 160 200 218 q 433 101 335 101 q 555 125 499 101 q 653 192 611 149 l 724 118 q 593 28 669 60 q 424 -4 517 -4 q 231 42 315 -4 q 101 174 147 89 q 54 367 54 258 q 101 559 54 475 q 231 691 147 643 q 421 739 314 739 m 650 417 q 583 574 644 517 q 422 632 522 632 q 260 574 325 632 q 183 417 196 515 l 650 417 m 651 842 l 513 842 l 414 919 l 314 842 l 175 842 l 322 975 l 503 975 l 651 842 m 404 1236 q 487 1211 456 1236 q 518 1146 518 1186 q 494 1080 518 1114 q 428 1015 469 1046 l 360 1043 q 401 1084 386 1063 q 415 1122 415 1106 q 404 1145 415 1136 q 376 1154 393 1154 q 331 1140 353 1154 l 290 1200 q 404 1236 343 1236 z "},"ễ":{"ha":817,"x_min":54,"x_max":767,"o":"m 421 739 q 679 638 592 739 q 767 358 767 538 q 765 317 767 331 l 185 317 q 267 160 200 218 q 433 101 335 101 q 555 125 499 101 q 653 192 611 149 l 724 118 q 593 28 669 60 q 424 -4 517 -4 q 231 42 315 -4 q 101 174 147 89 q 54 367 54 258 q 101 559 54 475 q 231 691 147 643 q 421 739 314 739 m 650 417 q 583 574 644 517 q 422 632 522 632 q 260 574 325 632 q 183 417 196 515 l 650 417 m 653 842 l 514 842 l 415 919 l 315 842 l 176 842 l 324 975 l 504 975 l 653 842 m 625 1176 q 599 1069 625 1110 q 515 1029 572 1029 q 458 1040 485 1029 q 397 1068 432 1050 q 326 1096 349 1096 q 289 1080 300 1096 q 278 1033 278 1064 l 201 1033 q 228 1141 201 1100 q 313 1182 256 1182 q 367 1172 342 1182 q 431 1143 393 1163 q 471 1122 454 1129 q 503 1115 488 1115 q 550 1176 550 1115 l 625 1176 z "},"ȅ":{"ha":817,"x_min":54,"x_max":767,"o":"m 421 739 q 679 638 592 739 q 767 358 767 538 q 765 317 767 331 l 185 317 q 267 160 200 218 q 433 101 335 101 q 555 125 499 101 q 653 192 611 149 l 724 118 q 593 28 669 60 q 424 -4 517 -4 q 231 42 315 -4 q 101 174 147 89 q 54 367 54 258 q 101 559 54 475 q 231 691 147 643 q 421 739 314 739 m 650 417 q 583 574 644 517 q 422 632 522 632 q 260 574 325 632 q 183 417 196 515 l 650 417 m 254 1053 l 369 863 l 271 850 l 143 1000 l 254 1053 m 469 1053 l 585 863 l 486 850 l 358 1000 l 469 1053 z "},"ë":{"ha":817,"x_min":54,"x_max":767,"o":"m 421 739 q 679 638 592 739 q 767 358 767 538 q 765 317 767 331 l 185 317 q 267 160 200 218 q 433 101 335 101 q 555 125 499 101 q 653 192 611 149 l 724 118 q 593 28 669 60 q 424 -4 517 -4 q 231 42 315 -4 q 101 174 147 89 q 54 367 54 258 q 101 559 54 475 q 231 691 147 643 q 421 739 314 739 m 650 417 q 583 574 644 517 q 422 632 522 632 q 260 574 325 632 q 183 417 196 515 l 650 417 m 294 1019 q 347 998 326 1019 q 368 943 368 976 q 347 890 368 911 q 294 868 326 868 q 242 890 263 868 q 221 943 221 911 q 242 998 221 976 q 294 1019 263 1019 m 533 1019 q 586 998 565 1019 q 607 943 607 976 q 586 890 607 911 q 533 868 565 868 q 481 890 501 868 q 460 943 460 911 q 481 998 460 976 q 533 1019 501 1019 z "},"ė":{"ha":817,"x_min":54,"x_max":767,"o":"m 421 739 q 679 638 592 739 q 767 358 767 538 q 765 317 767 331 l 185 317 q 267 160 200 218 q 433 101 335 101 q 555 125 499 101 q 653 192 611 149 l 724 118 q 593 28 669 60 q 424 -4 517 -4 q 231 42 315 -4 q 101 174 147 89 q 54 367 54 258 q 101 559 54 475 q 231 691 147 643 q 421 739 314 739 m 650 417 q 583 574 644 517 q 422 632 522 632 q 260 574 325 632 q 183 417 196 515 l 650 417 m 414 1028 q 472 1004 449 1028 q 494 944 494 981 q 472 885 494 908 q 414 861 449 861 q 356 885 379 861 q 333 944 333 908 q 356 1004 333 981 q 414 1028 379 1028 z "},"ẹ":{"ha":817,"x_min":54,"x_max":767,"o":"m 421 739 q 679 638 592 739 q 767 358 767 538 q 765 317 767 331 l 185 317 q 267 160 200 218 q 433 101 335 101 q 555 125 499 101 q 653 192 611 149 l 724 118 q 593 28 669 60 q 424 -4 517 -4 q 231 42 315 -4 q 101 174 147 89 q 54 367 54 258 q 101 559 54 475 q 231 691 147 643 q 421 739 314 739 m 650 417 q 583 574 644 517 q 422 632 522 632 q 260 574 325 632 q 183 417 196 515 l 650 417 m 415 -103 q 473 -126 450 -103 q 496 -186 496 -150 q 473 -246 496 -222 q 415 -269 450 -269 q 358 -246 381 -269 q 335 -186 335 -222 q 358 -126 335 -150 q 415 -103 381 -103 z "},"è":{"ha":817,"x_min":54,"x_max":767,"o":"m 421 739 q 679 638 592 739 q 767 358 767 538 q 765 317 767 331 l 185 317 q 267 160 200 218 q 433 101 335 101 q 555 125 499 101 q 653 192 611 149 l 724 118 q 593 28 669 60 q 424 -4 517 -4 q 231 42 315 -4 q 101 174 147 89 q 54 367 54 258 q 101 559 54 475 q 231 691 147 643 q 421 739 314 739 m 650 417 q 583 574 644 517 q 422 632 522 632 q 260 574 325 632 q 183 417 196 515 l 650 417 m 333 1044 l 482 864 l 372 850 l 200 986 l 333 1044 z "},"ẻ":{"ha":817,"x_min":54,"x_max":767,"o":"m 421 739 q 679 638 592 739 q 767 358 767 538 q 765 317 767 331 l 185 317 q 267 160 200 218 q 433 101 335 101 q 555 125 499 101 q 653 192 611 149 l 724 118 q 593 28 669 60 q 424 -4 517 -4 q 231 42 315 -4 q 101 174 147 89 q 54 367 54 258 q 101 559 54 475 q 231 691 147 643 q 421 739 314 739 m 650 417 q 583 574 644 517 q 422 632 522 632 q 260 574 325 632 q 183 417 196 515 l 650 417 m 408 1082 q 503 1053 465 1082 q 540 971 540 1024 q 513 886 540 932 q 440 803 485 840 l 368 836 q 413 894 396 863 q 429 949 429 925 q 415 979 429 967 q 382 992 401 992 q 328 974 356 992 l 285 1043 q 408 1082 343 1082 z "},"ȇ":{"ha":817,"x_min":54,"x_max":767,"o":"m 421 739 q 679 638 592 739 q 767 358 767 538 q 765 317 767 331 l 185 317 q 267 160 200 218 q 433 101 335 101 q 555 125 499 101 q 653 192 611 149 l 724 118 q 593 28 669 60 q 424 -4 517 -4 q 231 42 315 -4 q 101 174 147 89 q 54 367 54 258 q 101 559 54 475 q 231 691 147 643 q 421 739 314 739 m 650 417 q 583 574 644 517 q 422 632 522 632 q 260 574 325 632 q 183 417 196 515 l 650 417 m 229 847 q 283 982 232 931 q 414 1033 335 1033 q 544 982 492 1033 q 599 847 596 931 l 508 847 q 479 917 506 890 q 414 944 453 944 q 349 917 375 944 q 319 847 322 890 l 229 847 z "},"ē":{"ha":817,"x_min":54,"x_max":767,"o":"m 421 739 q 679 638 592 739 q 767 358 767 538 q 765 317 767 331 l 185 317 q 267 160 200 218 q 433 101 335 101 q 555 125 499 101 q 653 192 611 149 l 724 118 q 593 28 669 60 q 424 -4 517 -4 q 231 42 315 -4 q 101 174 147 89 q 54 367 54 258 q 101 559 54 475 q 231 691 147 643 q 421 739 314 739 m 650 417 q 583 574 644 517 q 422 632 522 632 q 260 574 325 632 q 183 417 196 515 l 650 417 m 214 986 l 613 986 l 613 900 l 214 900 l 214 986 z "},"ḗ":{"ha":817,"x_min":54,"x_max":767,"o":"m 421 739 q 679 638 592 739 q 767 358 767 538 q 765 317 767 331 l 185 317 q 267 160 200 218 q 433 101 335 101 q 555 125 499 101 q 653 192 611 149 l 724 118 q 593 28 669 60 q 424 -4 517 -4 q 231 42 315 -4 q 101 174 147 89 q 54 367 54 258 q 101 559 54 475 q 231 691 147 643 q 421 739 314 739 m 650 417 q 583 574 644 517 q 422 632 522 632 q 260 574 325 632 q 183 417 196 515 l 650 417 m 244 926 l 586 926 l 586 842 l 244 842 l 244 926 m 499 1169 l 610 1094 l 417 990 l 318 1021 l 499 1169 z "},"ḕ":{"ha":817,"x_min":54,"x_max":767,"o":"m 421 739 q 679 638 592 739 q 767 358 767 538 q 765 317 767 331 l 185 317 q 267 160 200 218 q 433 101 335 101 q 555 125 499 101 q 653 192 611 149 l 724 118 q 593 28 669 60 q 424 -4 517 -4 q 231 42 315 -4 q 101 174 147 89 q 54 367 54 258 q 101 559 54 475 q 231 691 147 643 q 421 739 314 739 m 650 417 q 583 574 644 517 q 422 632 522 632 q 260 574 325 632 q 183 417 196 515 l 650 417 m 238 926 l 579 926 l 579 842 l 238 842 l 238 926 m 313 1169 l 493 1021 l 394 990 l 201 1094 l 313 1169 z "},"ę":{"ha":817,"x_min":54,"x_max":767,"o":"m 421 739 q 679 638 592 739 q 767 358 767 538 q 765 317 767 331 l 185 317 q 267 160 200 218 q 433 101 335 101 q 555 125 499 101 q 653 192 611 149 l 724 118 q 657 61 696 86 q 565 -47 601 13 q 529 -150 529 -106 q 541 -188 529 -175 q 575 -201 553 -201 q 628 -187 600 -201 l 660 -274 q 546 -300 606 -300 q 447 -263 483 -300 q 410 -164 410 -226 q 482 -1 410 -83 q 424 -4 443 -4 q 231 42 315 -4 q 101 174 147 89 q 54 367 54 258 q 101 559 54 475 q 231 691 147 643 q 421 739 314 739 m 650 417 q 583 574 644 517 q 422 632 522 632 q 260 574 325 632 q 183 417 196 515 l 650 417 z "},"ẽ":{"ha":817,"x_min":54,"x_max":767,"o":"m 421 739 q 679 638 592 739 q 767 358 767 538 q 765 317 767 331 l 185 317 q 267 160 200 218 q 433 101 335 101 q 555 125 499 101 q 653 192 611 149 l 724 118 q 593 28 669 60 q 424 -4 517 -4 q 231 42 315 -4 q 101 174 147 89 q 54 367 54 258 q 101 559 54 475 q 231 691 147 643 q 421 739 314 739 m 650 417 q 583 574 644 517 q 422 632 522 632 q 260 574 325 632 q 183 417 196 515 l 650 417 m 628 1014 q 601 892 628 940 q 515 844 574 844 q 460 856 486 844 q 400 889 435 867 q 360 911 375 904 q 333 918 346 918 q 289 850 289 918 l 199 850 q 226 972 199 924 q 311 1019 253 1019 q 365 1009 340 1019 q 426 976 389 999 q 466 954 451 961 q 493 947 481 947 q 538 1014 538 947 l 628 1014 z "},"ə":{"ha":817,"x_min":50,"x_max":763,"o":"m 393 739 q 585 692 501 739 q 716 561 669 646 q 763 368 763 476 q 716 176 763 260 q 586 44 669 92 q 396 -4 503 -4 q 138 97 225 -4 q 50 376 50 197 q 51 418 50 404 l 632 418 q 549 575 617 517 q 383 633 482 633 q 262 610 318 633 q 164 543 206 586 l 93 617 q 224 707 147 675 q 393 739 300 739 m 394 103 q 556 161 492 103 q 633 318 621 219 l 167 318 q 233 160 172 218 q 394 103 294 103 z "},"f":{"ha":475,"x_min":56,"x_max":522,"o":"m 397 924 q 314 893 347 924 q 281 806 281 863 l 281 710 l 483 710 l 483 611 l 281 611 l 281 0 l 151 0 l 151 611 l 56 611 l 56 710 l 151 710 l 151 789 q 185 926 151 869 q 275 1010 219 982 q 394 1039 331 1039 q 522 1006 456 1039 l 492 900 q 397 924 442 924 z "},"g":{"ha":886,"x_min":54,"x_max":776,"o":"m 776 735 l 776 75 q 730 -110 776 -31 q 599 -231 683 -189 q 401 -274 514 -274 q 99 -171 239 -274 l 156 -76 q 268 -142 210 -121 q 396 -164 326 -164 q 578 -100 510 -164 q 646 71 646 -36 l 646 174 q 540 70 607 107 q 388 33 474 33 q 213 78 289 33 q 96 204 138 124 q 54 389 54 285 q 96 571 54 492 q 213 694 138 650 q 388 739 289 739 q 541 703 475 739 q 646 600 607 667 l 646 735 l 776 735 m 413 138 q 533 169 481 138 q 616 258 586 201 q 646 385 646 314 q 616 513 646 457 q 533 601 586 569 q 413 633 481 633 q 291 601 344 633 q 207 513 238 569 q 176 385 176 457 q 243 207 178 276 q 413 138 308 138 z "},"ğ":{"ha":886,"x_min":54,"x_max":776,"o":"m 776 735 l 776 75 q 730 -110 776 -31 q 599 -231 683 -189 q 401 -274 514 -274 q 99 -171 239 -274 l 156 -76 q 268 -142 210 -121 q 396 -164 326 -164 q 578 -100 510 -164 q 646 71 646 -36 l 646 174 q 540 70 607 107 q 388 33 474 33 q 213 78 289 33 q 96 204 138 124 q 54 389 54 285 q 96 571 54 492 q 213 694 138 650 q 388 739 289 739 q 541 703 475 739 q 646 600 607 667 l 646 735 l 776 735 m 413 138 q 533 169 481 138 q 616 258 586 201 q 646 385 646 314 q 616 513 646 457 q 533 601 586 569 q 413 633 481 633 q 291 601 344 633 q 207 513 238 569 q 176 385 176 457 q 243 207 178 276 q 413 138 308 138 m 328 1033 q 357 964 331 992 q 422 936 383 936 q 488 964 461 936 q 517 1033 514 992 l 607 1033 q 552 899 604 950 q 422 847 500 847 q 292 899 343 847 q 238 1033 240 950 l 328 1033 z "},"ǧ":{"ha":886,"x_min":54,"x_max":776,"o":"m 776 735 l 776 75 q 730 -110 776 -31 q 599 -231 683 -189 q 401 -274 514 -274 q 99 -171 239 -274 l 156 -76 q 268 -142 210 -121 q 396 -164 326 -164 q 578 -100 510 -164 q 646 71 646 -36 l 646 174 q 540 70 607 107 q 388 33 474 33 q 213 78 289 33 q 96 204 138 124 q 54 389 54 285 q 96 571 54 492 q 213 694 138 650 q 388 739 289 739 q 541 703 475 739 q 646 600 607 667 l 646 735 l 776 735 m 413 138 q 533 169 481 138 q 616 258 586 201 q 646 385 646 314 q 616 513 646 457 q 533 601 586 569 q 413 633 481 633 q 291 601 344 633 q 207 513 238 569 q 176 385 176 457 q 243 207 178 276 q 413 138 308 138 m 506 1040 l 635 1040 l 489 856 l 353 856 l 207 1040 l 336 1040 l 421 947 l 506 1040 z "},"ĝ":{"ha":886,"x_min":54,"x_max":776,"o":"m 776 735 l 776 75 q 730 -110 776 -31 q 599 -231 683 -189 q 401 -274 514 -274 q 99 -171 239 -274 l 156 -76 q 268 -142 210 -121 q 396 -164 326 -164 q 578 -100 510 -164 q 646 71 646 -36 l 646 174 q 540 70 607 107 q 388 33 474 33 q 213 78 289 33 q 96 204 138 124 q 54 389 54 285 q 96 571 54 492 q 213 694 138 650 q 388 739 289 739 q 541 703 475 739 q 646 600 607 667 l 646 735 l 776 735 m 413 138 q 533 169 481 138 q 616 258 586 201 q 646 385 646 314 q 616 513 646 457 q 533 601 586 569 q 413 633 481 633 q 291 601 344 633 q 207 513 238 569 q 176 385 176 457 q 243 207 178 276 q 413 138 308 138 m 636 857 l 507 857 l 422 950 l 338 857 l 208 857 l 354 1042 l 490 1042 l 636 857 z "},"ģ":{"ha":886,"x_min":54,"x_max":776,"o":"m 776 735 l 776 75 q 730 -110 776 -31 q 599 -231 683 -189 q 401 -274 514 -274 q 99 -171 239 -274 l 156 -76 q 268 -142 210 -121 q 396 -164 326 -164 q 578 -100 510 -164 q 646 71 646 -36 l 646 174 q 540 70 607 107 q 388 33 474 33 q 213 78 289 33 q 96 204 138 124 q 54 389 54 285 q 96 571 54 492 q 213 694 138 650 q 388 739 289 739 q 541 703 475 739 q 646 600 607 667 l 646 735 l 776 735 m 413 138 q 533 169 481 138 q 616 258 586 201 q 646 385 646 314 q 616 513 646 457 q 533 601 586 569 q 413 633 481 633 q 291 601 344 633 q 207 513 238 569 q 176 385 176 457 q 243 207 178 276 q 413 138 308 138 m 481 851 l 358 851 l 435 1072 l 529 1072 l 481 851 z "},"ġ":{"ha":886,"x_min":54,"x_max":776,"o":"m 776 735 l 776 75 q 730 -110 776 -31 q 599 -231 683 -189 q 401 -274 514 -274 q 99 -171 239 -274 l 156 -76 q 268 -142 210 -121 q 396 -164 326 -164 q 578 -100 510 -164 q 646 71 646 -36 l 646 174 q 540 70 607 107 q 388 33 474 33 q 213 78 289 33 q 96 204 138 124 q 54 389 54 285 q 96 571 54 492 q 213 694 138 650 q 388 739 289 739 q 541 703 475 739 q 646 600 607 667 l 646 735 l 776 735 m 413 138 q 533 169 481 138 q 616 258 586 201 q 646 385 646 314 q 616 513 646 457 q 533 601 586 569 q 413 633 481 633 q 291 601 344 633 q 207 513 238 569 q 176 385 176 457 q 243 207 178 276 q 413 138 308 138 m 422 1028 q 480 1004 457 1028 q 503 944 503 981 q 480 885 503 908 q 422 861 457 861 q 365 885 388 861 q 342 944 342 908 q 365 1004 342 981 q 422 1028 388 1028 z "},"ḡ":{"ha":886,"x_min":54,"x_max":776,"o":"m 776 735 l 776 75 q 730 -110 776 -31 q 599 -231 683 -189 q 401 -274 514 -274 q 99 -171 239 -274 l 156 -76 q 268 -142 210 -121 q 396 -164 326 -164 q 578 -100 510 -164 q 646 71 646 -36 l 646 174 q 540 70 607 107 q 388 33 474 33 q 213 78 289 33 q 96 204 138 124 q 54 389 54 285 q 96 571 54 492 q 213 694 138 650 q 388 739 289 739 q 541 703 475 739 q 646 600 607 667 l 646 735 l 776 735 m 413 138 q 533 169 481 138 q 616 258 586 201 q 646 385 646 314 q 616 513 646 457 q 533 601 586 569 q 413 633 481 633 q 291 601 344 633 q 207 513 238 569 q 176 385 176 457 q 243 207 178 276 q 413 138 308 138 m 222 986 l 621 986 l 621 900 l 222 900 l 222 986 z "},"h":{"ha":924,"x_min":133,"x_max":819,"o":"m 543 739 q 746 663 672 739 q 819 454 819 588 l 819 0 l 690 0 l 690 419 q 638 565 690 513 q 494 617 586 617 q 325 544 388 615 q 263 361 263 474 l 263 0 l 133 0 l 133 1031 l 263 1031 l 263 576 q 543 739 336 736 z "},"ħ":{"ha":924,"x_min":32,"x_max":819,"o":"m 543 717 q 747 641 674 717 q 819 432 819 565 l 819 0 l 690 0 l 690 397 q 638 542 690 490 q 494 594 586 594 q 325 523 388 594 q 263 339 263 451 l 263 0 l 133 0 l 133 826 l 32 826 l 32 907 l 133 907 l 133 1031 l 263 1031 l 263 907 l 561 907 l 561 826 l 263 826 l 263 554 q 543 717 336 717 z "},"ḫ":{"ha":924,"x_min":133,"x_max":819,"o":"m 543 739 q 746 663 672 739 q 819 454 819 588 l 819 0 l 690 0 l 690 419 q 638 565 690 513 q 494 617 586 617 q 325 544 388 615 q 263 361 263 474 l 263 0 l 133 0 l 133 1031 l 263 1031 l 263 576 q 543 739 336 736 m 382 -69 q 411 -139 385 -111 q 476 -167 438 -167 q 542 -139 515 -167 q 571 -69 568 -111 l 661 -69 q 606 -204 658 -153 q 476 -256 554 -256 q 346 -204 397 -256 q 292 -69 294 -153 l 382 -69 z "},"ĥ":{"ha":924,"x_min":-17,"x_max":819,"o":"m 543 739 q 746 663 672 739 q 819 454 819 588 l 819 0 l 690 0 l 690 419 q 638 565 690 513 q 494 617 586 617 q 325 544 388 615 q 263 361 263 474 l 263 0 l 133 0 l 133 1031 l 263 1031 l 263 576 q 543 739 336 736 m 411 1153 l 282 1153 l 197 1246 l 113 1153 l -17 1153 l 129 1338 l 265 1338 l 411 1153 z "},"ḥ":{"ha":924,"x_min":133,"x_max":819,"o":"m 543 739 q 746 663 672 739 q 819 454 819 588 l 819 0 l 690 0 l 690 419 q 638 565 690 513 q 494 617 586 617 q 325 544 388 615 q 263 361 263 474 l 263 0 l 133 0 l 133 1031 l 263 1031 l 263 576 q 543 739 336 736 m 476 -103 q 534 -126 511 -103 q 557 -186 557 -150 q 534 -246 557 -222 q 476 -269 511 -269 q 419 -246 442 -269 q 396 -186 396 -222 q 419 -126 396 -150 q 476 -103 442 -103 z "},"i":{"ha":381,"x_min":110,"x_max":271,"o":"m 126 735 l 256 735 l 256 0 l 126 0 l 126 735 m 190 1028 q 248 1004 225 1028 q 271 944 271 981 q 248 885 271 908 q 190 861 225 861 q 133 885 156 861 q 110 944 110 908 q 133 1004 110 981 q 190 1028 156 1028 z "},"ı":{"ha":381,"x_min":126,"x_max":256,"o":"m 126 735 l 256 735 l 256 0 l 126 0 l 126 735 z "},"í":{"ha":381,"x_min":118,"x_max":400,"o":"m 126 735 l 256 735 l 256 0 l 126 0 l 126 735 m 267 1044 l 400 986 l 228 850 l 118 864 l 267 1044 z "},"ĭ":{"ha":381,"x_min":6,"x_max":375,"o":"m 126 735 l 256 735 l 256 0 l 126 0 l 126 735 m 96 1033 q 125 964 99 992 q 190 936 151 936 q 256 964 229 936 q 285 1033 282 992 l 375 1033 q 320 899 372 950 q 190 847 268 847 q 60 899 111 847 q 6 1033 8 950 l 96 1033 z "},"î":{"ha":381,"x_min":-24,"x_max":404,"o":"m 126 735 l 256 735 l 256 0 l 126 0 l 126 735 m 404 857 l 275 857 l 190 950 l 106 857 l -24 857 l 122 1042 l 258 1042 l 404 857 z "},"ȉ":{"ha":381,"x_min":-81,"x_max":361,"o":"m 126 735 l 256 735 l 256 0 l 126 0 l 126 735 m 31 1053 l 146 863 l 47 850 l -81 1000 l 31 1053 m 246 1053 l 361 863 l 263 850 l 135 1000 l 246 1053 z "},"ï":{"ha":381,"x_min":14,"x_max":365,"o":"m 126 735 l 256 735 l 256 0 l 126 0 l 126 735 m 89 1019 q 141 998 121 1019 q 161 943 161 976 q 140 889 161 911 q 89 867 119 867 q 35 889 57 867 q 14 943 14 911 q 35 998 14 976 q 89 1019 57 1019 m 293 1019 q 345 998 325 1019 q 365 943 365 976 q 344 889 365 911 q 293 867 324 867 q 241 889 263 867 q 219 943 219 911 q 240 998 219 976 q 293 1019 261 1019 z "},"ḯ":{"ha":381,"x_min":3,"x_max":381,"o":"m 126 735 l 256 735 l 256 0 l 126 0 l 126 735 m 75 986 q 124 965 104 986 q 144 914 144 944 q 124 860 144 882 q 75 839 104 839 q 24 860 44 839 q 3 914 3 882 q 23 966 3 946 q 75 986 43 986 m 299 986 q 349 965 328 986 q 369 914 369 944 q 349 861 369 883 q 299 839 328 839 q 247 860 268 839 q 226 914 226 882 q 247 965 226 944 q 299 986 268 986 m 269 1186 l 381 1111 l 188 1007 l 89 1038 l 269 1186 z "},"ị":{"ha":381,"x_min":110,"x_max":271,"o":"m 126 735 l 256 735 l 256 0 l 126 0 l 126 735 m 190 1028 q 248 1004 225 1028 q 271 944 271 981 q 248 885 271 908 q 190 861 225 861 q 133 885 156 861 q 110 944 110 908 q 133 1004 110 981 q 190 1028 156 1028 m 190 -103 q 248 -126 225 -103 q 271 -186 271 -150 q 248 -246 271 -222 q 190 -269 225 -269 q 133 -246 156 -269 q 110 -186 110 -222 q 133 -126 110 -150 q 190 -103 156 -103 z "},"ì":{"ha":381,"x_min":-24,"x_max":258,"o":"m 126 735 l 256 735 l 256 0 l 126 0 l 126 735 m 110 1044 l 258 864 l 149 850 l -24 986 l 110 1044 z "},"ỉ":{"ha":381,"x_min":61,"x_max":317,"o":"m 126 735 l 256 735 l 256 0 l 126 0 l 126 735 m 185 1082 q 279 1053 242 1082 q 317 971 317 1024 q 289 886 317 932 q 217 803 261 840 l 144 836 q 189 894 172 863 q 206 949 206 925 q 192 979 206 967 q 158 992 178 992 q 104 974 132 992 l 61 1043 q 185 1082 119 1082 z "},"ȋ":{"ha":381,"x_min":21,"x_max":360,"o":"m 126 735 l 256 735 l 256 0 l 126 0 l 126 735 m 21 847 q 71 984 24 932 q 190 1036 118 1036 q 310 984 264 1036 q 360 847 357 932 l 268 847 q 244 917 265 889 q 190 944 222 944 q 137 917 158 944 q 113 847 115 889 l 21 847 z "},"ĳ":{"ha":760,"x_min":110,"x_max":649,"o":"m 126 735 l 256 735 l 256 0 l 126 0 l 126 735 m 190 1028 q 248 1004 225 1028 q 271 944 271 981 q 248 885 271 908 q 190 861 225 861 q 133 885 156 861 q 110 944 110 908 q 133 1004 110 981 q 190 1028 156 1028 m 329 -150 q 396 -164 360 -161 q 476 -128 449 -165 q 504 -18 504 -90 l 504 735 l 635 735 l 635 -36 q 580 -212 635 -150 q 425 -274 525 -274 q 299 -249 363 -274 l 329 -150 m 568 1028 q 626 1004 603 1028 q 649 944 649 981 q 626 885 649 908 q 568 861 603 861 q 510 885 533 861 q 488 944 488 908 q 510 1004 488 981 q 568 1028 533 1028 z "},"ī":{"ha":381,"x_min":18,"x_max":361,"o":"m 126 735 l 256 735 l 256 0 l 126 0 l 126 735 m 18 986 l 361 986 l 361 900 l 18 900 l 18 986 z "},"į":{"ha":381,"x_min":4,"x_max":271,"o":"m 190 861 q 133 885 156 861 q 110 944 110 908 q 133 1004 110 981 q 190 1028 156 1028 q 248 1004 225 1028 q 271 944 271 981 q 248 885 271 908 q 190 861 225 861 m 126 735 l 256 735 l 256 0 q 155 -87 185 -51 q 125 -156 125 -122 q 168 -201 125 -201 q 222 -187 196 -201 l 254 -274 q 142 -300 201 -300 q 42 -269 79 -300 q 4 -179 4 -237 q 126 14 4 -76 l 126 735 z "},"ĩ":{"ha":381,"x_min":1,"x_max":385,"o":"m 126 735 l 256 735 l 256 0 l 126 0 l 126 735 m 385 1013 q 360 890 385 936 q 282 843 335 843 q 233 854 256 843 q 183 886 210 865 q 168 897 181 889 q 147 908 156 904 q 129 913 138 913 q 92 849 92 913 l 1 849 q 26 972 1 925 q 104 1018 51 1018 q 151 1008 129 1018 q 201 979 172 999 q 231 961 217 969 q 257 953 246 953 q 294 1013 294 953 l 385 1013 z "},"j":{"ha":365,"x_min":-82,"x_max":268,"o":"m -51 -150 q 15 -164 -21 -161 q 96 -128 68 -165 q 124 -18 124 -90 l 124 735 l 254 735 l 254 -36 q 199 -212 254 -150 q 44 -274 144 -274 q -82 -249 -18 -274 l -51 -150 m 188 1028 q 245 1004 222 1028 q 268 944 268 981 q 245 885 268 908 q 188 861 222 861 q 130 885 153 861 q 107 944 107 908 q 130 1004 107 981 q 188 1028 153 1028 z "},"ȷ":{"ha":365,"x_min":-82,"x_max":254,"o":"m -51 -150 q 15 -164 -21 -161 q 96 -128 68 -165 q 124 -18 124 -90 l 124 735 l 254 735 l 254 -36 q 199 -212 254 -150 q 44 -274 144 -274 q -82 -249 -18 -274 l -51 -150 z "},"ĵ":{"ha":365,"x_min":-82,"x_max":401,"o":"m -51 -150 q 15 -164 -21 -161 q 96 -128 68 -165 q 124 -18 124 -90 l 124 735 l 254 735 l 254 -36 q 199 -212 254 -150 q 44 -274 144 -274 q -82 -249 -18 -274 l -51 -150 m 401 857 l 272 857 l 188 950 l 103 857 l -26 857 l 119 1042 l 256 1042 l 401 857 z "},"k":{"ha":808,"x_min":133,"x_max":796,"o":"m 640 0 l 406 357 l 263 208 l 263 0 l 133 0 l 133 1031 l 263 1031 l 263 374 l 618 735 l 769 735 l 496 450 l 796 0 l 640 0 z "},"ķ":{"ha":808,"x_min":133,"x_max":796,"o":"m 640 0 l 406 357 l 263 208 l 263 0 l 133 0 l 133 1031 l 263 1031 l 263 374 l 618 735 l 769 735 l 496 450 l 796 0 l 640 0 m 382 -82 l 504 -82 l 428 -303 l 333 -303 l 382 -82 z "},"ĸ":{"ha":803,"x_min":126,"x_max":789,"o":"m 635 0 l 400 358 l 256 208 l 256 0 l 126 0 l 126 735 l 256 735 l 256 374 l 613 735 l 764 735 l 490 451 l 789 0 l 635 0 z "},"l":{"ha":396,"x_min":133,"x_max":263,"o":"m 133 1031 l 263 1031 l 263 0 l 133 0 l 133 1031 z "},"ĺ":{"ha":396,"x_min":126,"x_max":408,"o":"m 133 1031 l 263 1031 l 263 0 l 133 0 l 133 1031 m 275 1340 l 408 1282 l 236 1146 l 126 1160 l 275 1340 z "},"ľ":{"ha":396,"x_min":133,"x_max":497,"o":"m 133 1031 l 263 1031 l 263 0 l 133 0 l 133 1031 m 375 1031 l 497 1031 l 464 757 l 375 757 l 375 1031 z "},"ļ":{"ha":396,"x_min":90,"x_max":263,"o":"m 133 1031 l 263 1031 l 263 0 l 133 0 l 133 1031 m 139 -82 l 261 -82 l 185 -303 l 90 -303 l 139 -82 z "},"ŀ":{"ha":533,"x_min":133,"x_max":531,"o":"m 133 1031 l 263 1031 l 263 0 l 133 0 l 133 1031 m 450 636 q 508 613 485 636 q 531 553 531 589 q 508 493 531 517 q 450 469 485 469 q 392 493 415 469 q 369 553 369 517 q 392 613 369 589 q 450 636 415 636 z "},"ḷ":{"ha":396,"x_min":118,"x_max":279,"o":"m 133 1031 l 263 1031 l 263 0 l 133 0 l 133 1031 m 199 -103 q 256 -126 233 -103 q 279 -186 279 -150 q 256 -246 279 -222 q 199 -269 233 -269 q 141 -246 164 -269 q 118 -186 118 -222 q 141 -126 118 -150 q 199 -103 164 -103 z "},"ǉ":{"ha":761,"x_min":133,"x_max":664,"o":"m 133 1031 l 263 1031 l 263 0 l 133 0 l 133 1031 m 344 -150 q 411 -164 375 -161 q 492 -128 464 -165 q 519 -18 519 -90 l 519 735 l 650 735 l 650 -36 q 595 -212 650 -150 q 440 -274 540 -274 q 314 -249 378 -274 l 344 -150 m 583 1028 q 641 1004 618 1028 q 664 944 664 981 q 641 885 664 908 q 583 861 618 861 q 526 885 549 861 q 503 944 503 908 q 526 1004 503 981 q 583 1028 549 1028 z "},"ḻ":{"ha":396,"x_min":-1,"x_max":397,"o":"m 133 1031 l 263 1031 l 263 0 l 133 0 l 133 1031 m -1 -114 l 397 -114 l 397 -200 l -1 -200 l -1 -114 z "},"ł":{"ha":522,"x_min":49,"x_max":492,"o":"m 492 696 l 492 603 l 336 519 l 336 0 l 207 0 l 207 449 l 49 364 l 49 458 l 207 543 l 207 1031 l 336 1031 l 336 613 l 492 696 z "},"m":{"ha":1450,"x_min":126,"x_max":1346,"o":"m 1075 739 q 1274 663 1201 739 q 1346 454 1346 586 l 1346 0 l 1215 0 l 1215 419 q 1165 565 1215 513 q 1025 618 1114 618 q 861 544 921 615 q 801 363 801 474 l 801 0 l 671 0 l 671 419 q 621 565 671 513 q 481 618 571 618 q 316 544 376 615 q 256 363 256 474 l 256 0 l 126 0 l 126 735 l 256 735 l 256 581 q 529 739 328 736 q 698 690 631 739 q 789 554 765 642 q 1075 739 857 736 z "},"ṃ":{"ha":1450,"x_min":126,"x_max":1346,"o":"m 1075 739 q 1274 663 1201 739 q 1346 454 1346 586 l 1346 0 l 1215 0 l 1215 419 q 1165 565 1215 513 q 1025 618 1114 618 q 861 544 921 615 q 801 363 801 474 l 801 0 l 671 0 l 671 419 q 621 565 671 513 q 481 618 571 618 q 316 544 376 615 q 256 363 256 474 l 256 0 l 126 0 l 126 735 l 256 735 l 256 581 q 529 739 328 736 q 698 690 631 739 q 789 554 765 642 q 1075 739 857 736 m 736 -103 q 794 -126 771 -103 q 817 -186 817 -150 q 794 -246 817 -222 q 736 -269 771 -269 q 678 -246 701 -269 q 656 -186 656 -222 q 678 -126 656 -150 q 736 -103 701 -103 z "},"n":{"ha":915,"x_min":126,"x_max":811,"o":"m 535 739 q 738 663 664 739 q 811 454 811 588 l 811 0 l 682 0 l 682 419 q 630 565 682 513 q 486 617 578 617 q 326 553 388 615 q 256 393 264 492 l 256 0 l 126 0 l 126 735 l 256 735 l 256 579 q 535 739 329 736 z "},"ń":{"ha":915,"x_min":126,"x_max":811,"o":"m 535 739 q 738 663 664 739 q 811 454 811 588 l 811 0 l 682 0 l 682 419 q 630 565 682 513 q 486 617 578 617 q 326 553 388 615 q 256 393 264 492 l 256 0 l 126 0 l 126 735 l 256 735 l 256 579 q 535 739 329 736 m 556 1044 l 689 986 l 517 850 l 407 864 l 556 1044 z "},"ŉ":{"ha":1056,"x_min":47,"x_max":951,"o":"m 49 972 l 150 972 l 132 611 l 47 611 l 49 972 m 675 739 q 878 663 804 739 q 951 454 951 588 l 951 0 l 822 0 l 822 419 q 770 565 822 513 q 626 617 718 617 q 466 553 528 615 q 396 393 404 492 l 396 0 l 267 0 l 267 735 l 396 735 l 396 579 q 675 739 469 736 z "},"ň":{"ha":915,"x_min":126,"x_max":811,"o":"m 535 739 q 738 663 664 739 q 811 454 811 588 l 811 0 l 682 0 l 682 419 q 630 565 682 513 q 486 617 578 617 q 326 553 388 615 q 256 393 264 492 l 256 0 l 126 0 l 126 735 l 256 735 l 256 579 q 535 739 329 736 m 563 1040 l 692 1040 l 546 856 l 410 856 l 264 1040 l 393 1040 l 478 947 l 563 1040 z "},"ņ":{"ha":915,"x_min":126,"x_max":811,"o":"m 535 739 q 738 663 664 739 q 811 454 811 588 l 811 0 l 682 0 l 682 419 q 630 565 682 513 q 486 617 578 617 q 326 553 388 615 q 256 393 264 492 l 256 0 l 126 0 l 126 735 l 256 735 l 256 579 q 535 739 329 736 m 404 -82 l 526 -82 l 450 -303 l 356 -303 l 404 -82 z "},"ṅ":{"ha":915,"x_min":126,"x_max":811,"o":"m 535 739 q 738 663 664 739 q 811 454 811 588 l 811 0 l 682 0 l 682 419 q 630 565 682 513 q 486 617 578 617 q 326 553 388 615 q 256 393 264 492 l 256 0 l 126 0 l 126 735 l 256 735 l 256 579 q 535 739 329 736 m 479 1028 q 537 1004 514 1028 q 560 944 560 981 q 537 885 560 908 q 479 861 514 861 q 422 885 444 861 q 399 944 399 908 q 422 1004 399 981 q 479 1028 444 1028 z "},"ṇ":{"ha":915,"x_min":126,"x_max":811,"o":"m 535 739 q 738 663 664 739 q 811 454 811 588 l 811 0 l 682 0 l 682 419 q 630 565 682 513 q 486 617 578 617 q 326 553 388 615 q 256 393 264 492 l 256 0 l 126 0 l 126 735 l 256 735 l 256 579 q 535 739 329 736 m 464 -103 q 522 -126 499 -103 q 544 -186 544 -150 q 522 -246 544 -222 q 464 -269 499 -269 q 406 -246 429 -269 q 383 -186 383 -222 q 406 -126 383 -150 q 464 -103 429 -103 z "},"ŋ":{"ha":915,"x_min":126,"x_max":811,"o":"m 535 739 q 738 663 664 739 q 811 454 811 588 l 811 -25 q 747 -211 811 -147 q 589 -275 682 -275 q 438 -225 506 -275 l 482 -122 q 532 -150 506 -140 q 583 -160 558 -160 q 655 -131 628 -160 q 682 -42 682 -101 l 682 419 q 630 565 682 513 q 486 617 578 617 q 326 553 388 615 q 256 393 264 492 l 256 0 l 126 0 l 126 735 l 256 735 l 256 579 q 535 739 329 736 z "},"ǌ":{"ha":1279,"x_min":126,"x_max":1183,"o":"m 535 739 q 738 663 664 739 q 811 454 811 588 l 811 0 l 682 0 l 682 419 q 630 565 682 513 q 486 617 578 617 q 326 553 388 615 q 256 393 264 492 l 256 0 l 126 0 l 126 735 l 256 735 l 256 579 q 535 739 329 736 m 864 -150 q 931 -164 894 -161 q 1011 -128 983 -165 q 1039 -18 1039 -90 l 1039 735 l 1169 735 l 1169 -36 q 1115 -212 1169 -150 q 960 -274 1060 -274 q 833 -249 897 -274 l 864 -150 m 1103 1028 q 1160 1004 1138 1028 q 1183 944 1183 981 q 1160 885 1183 908 q 1103 861 1138 861 q 1045 885 1068 861 q 1022 944 1022 908 q 1045 1004 1022 981 q 1103 1028 1068 1028 z "},"ṉ":{"ha":915,"x_min":126,"x_max":811,"o":"m 535 739 q 738 663 664 739 q 811 454 811 588 l 811 0 l 682 0 l 682 419 q 630 565 682 513 q 486 617 578 617 q 326 553 388 615 q 256 393 264 492 l 256 0 l 126 0 l 126 735 l 256 735 l 256 579 q 535 739 329 736 m 264 -114 l 663 -114 l 663 -200 l 264 -200 l 264 -114 z "},"ñ":{"ha":915,"x_min":126,"x_max":811,"o":"m 535 739 q 738 663 664 739 q 811 454 811 588 l 811 0 l 682 0 l 682 419 q 630 565 682 513 q 486 617 578 617 q 326 553 388 615 q 256 393 264 492 l 256 0 l 126 0 l 126 735 l 256 735 l 256 579 q 535 739 329 736 m 693 1014 q 666 892 693 940 q 581 844 639 844 q 526 856 551 844 q 465 889 500 867 q 426 911 440 904 q 399 918 411 918 q 354 850 354 918 l 264 850 q 291 972 264 924 q 376 1019 318 1019 q 430 1009 406 1019 q 492 976 454 999 q 531 954 517 961 q 558 947 546 947 q 603 1014 603 947 l 693 1014 z "},"o":{"ha":863,"x_min":54,"x_max":808,"o":"m 432 739 q 627 692 542 739 q 760 560 713 644 q 808 368 808 476 q 760 175 808 260 q 627 43 713 90 q 432 -4 542 -4 q 235 43 321 -4 q 102 174 150 90 q 54 368 54 258 q 102 560 54 476 q 235 692 150 644 q 432 739 321 739 m 432 626 q 303 593 360 626 q 216 501 247 560 q 185 367 185 442 q 216 231 185 290 q 303 138 247 171 q 432 106 360 106 q 559 138 503 106 q 647 231 615 171 q 678 367 678 290 q 647 501 678 442 q 559 593 615 560 q 432 626 503 626 z "},"ó":{"ha":863,"x_min":54,"x_max":808,"o":"m 432 739 q 627 692 542 739 q 760 560 713 644 q 808 368 808 476 q 760 175 808 260 q 627 43 713 90 q 432 -4 542 -4 q 235 43 321 -4 q 102 174 150 90 q 54 368 54 258 q 102 560 54 476 q 235 692 150 644 q 432 739 321 739 m 432 626 q 303 593 360 626 q 216 501 247 560 q 185 367 185 442 q 216 231 185 290 q 303 138 247 171 q 432 106 360 106 q 559 138 503 106 q 647 231 615 171 q 678 367 678 290 q 647 501 678 442 q 559 593 615 560 q 432 626 503 626 m 508 1044 l 642 986 l 469 850 l 360 864 l 508 1044 z "},"ŏ":{"ha":863,"x_min":54,"x_max":808,"o":"m 432 739 q 627 692 542 739 q 760 560 713 644 q 808 368 808 476 q 760 175 808 260 q 627 43 713 90 q 432 -4 542 -4 q 235 43 321 -4 q 102 174 150 90 q 54 368 54 258 q 102 560 54 476 q 235 692 150 644 q 432 739 321 739 m 432 626 q 303 593 360 626 q 216 501 247 560 q 185 367 185 442 q 216 231 185 290 q 303 138 247 171 q 432 106 360 106 q 559 138 503 106 q 647 231 615 171 q 678 367 678 290 q 647 501 678 442 q 559 593 615 560 q 432 626 503 626 m 338 1033 q 367 964 340 992 q 432 936 393 936 q 497 964 471 936 q 526 1033 524 992 l 617 1033 q 562 899 614 950 q 432 847 510 847 q 301 899 353 847 q 247 1033 250 950 l 338 1033 z "},"ô":{"ha":863,"x_min":54,"x_max":808,"o":"m 432 739 q 627 692 542 739 q 760 560 713 644 q 808 368 808 476 q 760 175 808 260 q 627 43 713 90 q 432 -4 542 -4 q 235 43 321 -4 q 102 174 150 90 q 54 368 54 258 q 102 560 54 476 q 235 692 150 644 q 432 739 321 739 m 432 626 q 303 593 360 626 q 216 501 247 560 q 185 367 185 442 q 216 231 185 290 q 303 138 247 171 q 432 106 360 106 q 559 138 503 106 q 647 231 615 171 q 678 367 678 290 q 647 501 678 442 q 559 593 615 560 q 432 626 503 626 m 646 857 l 517 857 l 432 950 l 347 857 l 218 857 l 364 1042 l 500 1042 l 646 857 z "},"ố":{"ha":863,"x_min":54,"x_max":808,"o":"m 432 739 q 627 692 542 739 q 760 560 713 644 q 808 368 808 476 q 760 175 808 260 q 627 43 713 90 q 432 -4 542 -4 q 235 43 321 -4 q 102 174 150 90 q 54 368 54 258 q 102 560 54 476 q 235 692 150 644 q 432 739 321 739 m 432 626 q 303 593 360 626 q 216 501 247 560 q 185 367 185 442 q 216 231 185 290 q 303 138 247 171 q 432 106 360 106 q 559 138 503 106 q 647 231 615 171 q 678 367 678 290 q 647 501 678 442 q 559 593 615 560 q 432 626 503 626 m 669 842 l 531 842 l 432 919 l 332 842 l 193 842 l 340 975 l 521 975 l 669 842 m 515 1197 l 626 1122 l 433 1018 l 335 1049 l 515 1197 z "},"ộ":{"ha":863,"x_min":54,"x_max":808,"o":"m 432 739 q 627 692 542 739 q 760 560 713 644 q 808 368 808 476 q 760 175 808 260 q 627 43 713 90 q 432 -4 542 -4 q 235 43 321 -4 q 102 174 150 90 q 54 368 54 258 q 102 560 54 476 q 235 692 150 644 q 432 739 321 739 m 432 626 q 303 593 360 626 q 216 501 247 560 q 185 367 185 442 q 216 231 185 290 q 303 138 247 171 q 432 106 360 106 q 559 138 503 106 q 647 231 615 171 q 678 367 678 290 q 647 501 678 442 q 559 593 615 560 q 432 626 503 626 m 432 -103 q 490 -126 467 -103 q 513 -186 513 -150 q 490 -246 513 -222 q 432 -269 467 -269 q 374 -246 397 -269 q 351 -186 351 -222 q 374 -126 351 -150 q 432 -103 397 -103 m 646 857 l 517 857 l 432 950 l 347 857 l 218 857 l 364 1042 l 500 1042 l 646 857 z "},"ồ":{"ha":863,"x_min":54,"x_max":808,"o":"m 432 739 q 627 692 542 739 q 760 560 713 644 q 808 368 808 476 q 760 175 808 260 q 627 43 713 90 q 432 -4 542 -4 q 235 43 321 -4 q 102 174 150 90 q 54 368 54 258 q 102 560 54 476 q 235 692 150 644 q 432 739 321 739 m 432 626 q 303 593 360 626 q 216 501 247 560 q 185 367 185 442 q 216 231 185 290 q 303 138 247 171 q 432 106 360 106 q 559 138 503 106 q 647 231 615 171 q 678 367 678 290 q 647 501 678 442 q 559 593 615 560 q 432 626 503 626 m 669 842 l 531 842 l 432 919 l 332 842 l 193 842 l 340 975 l 521 975 l 669 842 m 336 1197 l 517 1049 l 418 1018 l 225 1122 l 336 1197 z "},"ổ":{"ha":863,"x_min":54,"x_max":808,"o":"m 432 739 q 627 692 542 739 q 760 560 713 644 q 808 368 808 476 q 760 175 808 260 q 627 43 713 90 q 432 -4 542 -4 q 235 43 321 -4 q 102 174 150 90 q 54 368 54 258 q 102 560 54 476 q 235 692 150 644 q 432 739 321 739 m 432 626 q 303 593 360 626 q 216 501 247 560 q 185 367 185 442 q 216 231 185 290 q 303 138 247 171 q 432 106 360 106 q 559 138 503 106 q 647 231 615 171 q 678 367 678 290 q 647 501 678 442 q 559 593 615 560 q 432 626 503 626 m 669 842 l 531 842 l 432 919 l 332 842 l 193 842 l 340 975 l 521 975 l 669 842 m 422 1236 q 505 1211 474 1236 q 536 1146 536 1186 q 512 1080 536 1114 q 446 1015 488 1046 l 378 1043 q 419 1084 404 1063 q 433 1122 433 1106 q 422 1145 433 1136 q 394 1154 411 1154 q 349 1140 371 1154 l 308 1200 q 422 1236 361 1236 z "},"ỗ":{"ha":863,"x_min":54,"x_max":808,"o":"m 432 739 q 627 692 542 739 q 760 560 713 644 q 808 368 808 476 q 760 175 808 260 q 627 43 713 90 q 432 -4 542 -4 q 235 43 321 -4 q 102 174 150 90 q 54 368 54 258 q 102 560 54 476 q 235 692 150 644 q 432 739 321 739 m 432 626 q 303 593 360 626 q 216 501 247 560 q 185 367 185 442 q 216 231 185 290 q 303 138 247 171 q 432 106 360 106 q 559 138 503 106 q 647 231 615 171 q 678 367 678 290 q 647 501 678 442 q 559 593 615 560 q 432 626 503 626 m 671 842 l 532 842 l 433 919 l 333 842 l 194 842 l 342 975 l 522 975 l 671 842 m 643 1176 q 617 1069 643 1110 q 533 1029 590 1029 q 476 1040 503 1029 q 415 1068 450 1050 q 344 1096 367 1096 q 307 1080 318 1096 q 296 1033 296 1064 l 219 1033 q 247 1141 219 1100 q 331 1182 274 1182 q 385 1172 360 1182 q 449 1143 411 1163 q 489 1122 472 1129 q 521 1115 506 1115 q 568 1176 568 1115 l 643 1176 z "},"ȍ":{"ha":863,"x_min":54,"x_max":808,"o":"m 432 739 q 627 692 542 739 q 760 560 713 644 q 808 368 808 476 q 760 175 808 260 q 627 43 713 90 q 432 -4 542 -4 q 235 43 321 -4 q 102 174 150 90 q 54 368 54 258 q 102 560 54 476 q 235 692 150 644 q 432 739 321 739 m 432 626 q 303 593 360 626 q 216 501 247 560 q 185 367 185 442 q 216 231 185 290 q 303 138 247 171 q 432 106 360 106 q 559 138 503 106 q 647 231 615 171 q 678 367 678 290 q 647 501 678 442 q 559 593 615 560 q 432 626 503 626 m 272 1053 l 388 863 l 289 850 l 161 1000 l 272 1053 m 488 1053 l 603 863 l 504 850 l 376 1000 l 488 1053 z "},"ö":{"ha":863,"x_min":54,"x_max":808,"o":"m 432 739 q 627 692 542 739 q 760 560 713 644 q 808 368 808 476 q 760 175 808 260 q 627 43 713 90 q 432 -4 542 -4 q 235 43 321 -4 q 102 174 150 90 q 54 368 54 258 q 102 560 54 476 q 235 692 150 644 q 432 739 321 739 m 432 626 q 303 593 360 626 q 216 501 247 560 q 185 367 185 442 q 216 231 185 290 q 303 138 247 171 q 432 106 360 106 q 559 138 503 106 q 647 231 615 171 q 678 367 678 290 q 647 501 678 442 q 559 593 615 560 q 432 626 503 626 m 313 1019 q 365 998 344 1019 q 386 943 386 976 q 365 890 386 911 q 313 868 344 868 q 260 890 281 868 q 239 943 239 911 q 260 998 239 976 q 313 1019 281 1019 m 551 1019 q 604 998 583 1019 q 625 943 625 976 q 604 890 625 911 q 551 868 583 868 q 499 890 519 868 q 478 943 478 911 q 499 998 478 976 q 551 1019 519 1019 z "},"ȫ":{"ha":863,"x_min":54,"x_max":808,"o":"m 432 739 q 627 692 542 739 q 760 560 713 644 q 808 368 808 476 q 760 175 808 260 q 627 43 713 90 q 432 -4 542 -4 q 235 43 321 -4 q 102 174 150 90 q 54 368 54 258 q 102 560 54 476 q 235 692 150 644 q 432 739 321 739 m 432 626 q 303 593 360 626 q 216 501 247 560 q 185 367 185 442 q 216 231 185 290 q 303 138 247 171 q 432 106 360 106 q 559 138 503 106 q 647 231 615 171 q 678 367 678 290 q 647 501 678 442 q 559 593 615 560 q 432 626 503 626 m 321 986 q 370 965 350 986 q 390 914 390 944 q 370 860 390 882 q 321 839 350 839 q 269 860 290 839 q 249 914 249 882 q 269 966 249 946 q 321 986 289 986 m 544 986 q 594 965 574 986 q 615 914 615 944 q 594 861 615 883 q 544 839 574 839 q 493 860 514 839 q 472 914 472 882 q 493 965 472 944 q 544 986 514 986 m 261 1122 l 603 1122 l 603 1038 l 261 1038 l 261 1122 z "},"ȱ":{"ha":863,"x_min":54,"x_max":808,"o":"m 432 739 q 627 692 542 739 q 760 560 713 644 q 808 368 808 476 q 760 175 808 260 q 627 43 713 90 q 432 -4 542 -4 q 235 43 321 -4 q 102 174 150 90 q 54 368 54 258 q 102 560 54 476 q 235 692 150 644 q 432 739 321 739 m 432 626 q 303 593 360 626 q 216 501 247 560 q 185 367 185 442 q 216 231 185 290 q 303 138 247 171 q 432 106 360 106 q 559 138 503 106 q 647 231 615 171 q 678 367 678 290 q 647 501 678 442 q 559 593 615 560 q 432 626 503 626 m 429 996 q 483 973 461 996 q 506 917 506 950 q 483 862 506 885 q 429 839 461 839 q 376 862 399 839 q 354 917 354 885 q 376 973 354 950 q 429 996 397 996 m 260 1122 l 601 1122 l 601 1038 l 260 1038 l 260 1122 z "},"ọ":{"ha":863,"x_min":54,"x_max":808,"o":"m 432 739 q 627 692 542 739 q 760 560 713 644 q 808 368 808 476 q 760 175 808 260 q 627 43 713 90 q 432 -4 542 -4 q 235 43 321 -4 q 102 174 150 90 q 54 368 54 258 q 102 560 54 476 q 235 692 150 644 q 432 739 321 739 m 432 626 q 303 593 360 626 q 216 501 247 560 q 185 367 185 442 q 216 231 185 290 q 303 138 247 171 q 432 106 360 106 q 559 138 503 106 q 647 231 615 171 q 678 367 678 290 q 647 501 678 442 q 559 593 615 560 q 432 626 503 626 m 432 -103 q 490 -126 467 -103 q 513 -186 513 -150 q 490 -246 513 -222 q 432 -269 467 -269 q 374 -246 397 -269 q 351 -186 351 -222 q 374 -126 351 -150 q 432 -103 397 -103 z "},"ò":{"ha":863,"x_min":54,"x_max":808,"o":"m 432 739 q 627 692 542 739 q 760 560 713 644 q 808 368 808 476 q 760 175 808 260 q 627 43 713 90 q 432 -4 542 -4 q 235 43 321 -4 q 102 174 150 90 q 54 368 54 258 q 102 560 54 476 q 235 692 150 644 q 432 739 321 739 m 432 626 q 303 593 360 626 q 216 501 247 560 q 185 367 185 442 q 216 231 185 290 q 303 138 247 171 q 432 106 360 106 q 559 138 503 106 q 647 231 615 171 q 678 367 678 290 q 647 501 678 442 q 559 593 615 560 q 432 626 503 626 m 351 1044 l 500 864 l 390 850 l 218 986 l 351 1044 z "},"ỏ":{"ha":863,"x_min":54,"x_max":808,"o":"m 432 739 q 627 692 542 739 q 760 560 713 644 q 808 368 808 476 q 760 175 808 260 q 627 43 713 90 q 432 -4 542 -4 q 235 43 321 -4 q 102 174 150 90 q 54 368 54 258 q 102 560 54 476 q 235 692 150 644 q 432 739 321 739 m 432 626 q 303 593 360 626 q 216 501 247 560 q 185 367 185 442 q 216 231 185 290 q 303 138 247 171 q 432 106 360 106 q 559 138 503 106 q 647 231 615 171 q 678 367 678 290 q 647 501 678 442 q 559 593 615 560 q 432 626 503 626 m 426 1082 q 521 1053 483 1082 q 558 971 558 1024 q 531 886 558 932 q 458 803 503 840 l 386 836 q 431 894 414 863 q 447 949 447 925 q 433 979 447 967 q 400 992 419 992 q 346 974 374 992 l 303 1043 q 426 1082 361 1082 z "},"ơ":{"ha":904,"x_min":54,"x_max":883,"o":"m 849 918 q 883 792 883 854 q 842 669 883 721 q 732 603 801 617 q 808 368 808 507 q 760 175 808 260 q 627 43 713 90 q 432 -4 542 -4 q 235 43 321 -4 q 102 174 150 90 q 54 368 54 258 q 102 560 54 476 q 235 692 150 644 q 432 739 321 739 q 621 696 538 739 q 679 685 647 685 q 747 714 722 685 q 771 786 771 743 q 740 878 771 835 l 849 918 m 432 106 q 559 138 503 106 q 647 231 615 171 q 678 367 678 290 q 647 501 678 442 q 559 593 615 560 q 432 626 503 626 q 303 593 360 626 q 216 501 247 560 q 185 367 185 442 q 216 231 185 290 q 303 138 247 171 q 432 106 360 106 z "},"ớ":{"ha":904,"x_min":54,"x_max":883,"o":"m 849 918 q 883 792 883 854 q 842 669 883 721 q 732 603 801 617 q 808 368 808 507 q 760 175 808 260 q 627 43 713 90 q 432 -4 542 -4 q 235 43 321 -4 q 102 174 150 90 q 54 368 54 258 q 102 560 54 476 q 235 692 150 644 q 432 739 321 739 q 621 696 538 739 q 679 685 647 685 q 747 714 722 685 q 771 786 771 743 q 740 878 771 835 l 849 918 m 432 106 q 559 138 503 106 q 647 231 615 171 q 678 367 678 290 q 647 501 678 442 q 559 593 615 560 q 432 626 503 626 q 303 593 360 626 q 216 501 247 560 q 185 367 185 442 q 216 231 185 290 q 303 138 247 171 q 432 106 360 106 m 508 1044 l 642 986 l 469 850 l 360 864 l 508 1044 z "},"ợ":{"ha":906,"x_min":54,"x_max":883,"o":"m 849 918 q 883 792 883 854 q 842 669 883 721 q 732 603 801 617 q 808 368 808 507 q 760 175 808 260 q 627 43 713 90 q 432 -4 542 -4 q 235 43 321 -4 q 102 174 150 90 q 54 368 54 258 q 102 560 54 476 q 235 692 150 644 q 432 739 321 739 q 621 696 538 739 q 679 685 647 685 q 747 714 722 685 q 771 786 771 743 q 740 878 771 835 l 849 918 m 432 106 q 559 138 503 106 q 647 231 615 171 q 678 367 678 290 q 647 501 678 442 q 559 593 615 560 q 432 626 503 626 q 303 593 360 626 q 216 501 247 560 q 185 367 185 442 q 216 231 185 290 q 303 138 247 171 q 432 106 360 106 m 432 -103 q 490 -126 467 -103 q 513 -186 513 -150 q 490 -246 513 -222 q 432 -269 467 -269 q 374 -246 397 -269 q 351 -186 351 -222 q 374 -126 351 -150 q 432 -103 397 -103 z "},"ờ":{"ha":904,"x_min":54,"x_max":883,"o":"m 849 918 q 883 792 883 854 q 842 669 883 721 q 732 603 801 617 q 808 368 808 507 q 760 175 808 260 q 627 43 713 90 q 432 -4 542 -4 q 235 43 321 -4 q 102 174 150 90 q 54 368 54 258 q 102 560 54 476 q 235 692 150 644 q 432 739 321 739 q 621 696 538 739 q 679 685 647 685 q 747 714 722 685 q 771 786 771 743 q 740 878 771 835 l 849 918 m 432 106 q 559 138 503 106 q 647 231 615 171 q 678 367 678 290 q 647 501 678 442 q 559 593 615 560 q 432 626 503 626 q 303 593 360 626 q 216 501 247 560 q 185 367 185 442 q 216 231 185 290 q 303 138 247 171 q 432 106 360 106 m 351 1044 l 500 864 l 390 850 l 218 986 l 351 1044 z "},"ở":{"ha":904,"x_min":54,"x_max":883,"o":"m 849 918 q 883 792 883 854 q 842 669 883 721 q 732 603 801 617 q 808 368 808 507 q 760 175 808 260 q 627 43 713 90 q 432 -4 542 -4 q 235 43 321 -4 q 102 174 150 90 q 54 368 54 258 q 102 560 54 476 q 235 692 150 644 q 432 739 321 739 q 621 696 538 739 q 679 685 647 685 q 747 714 722 685 q 771 786 771 743 q 740 878 771 835 l 849 918 m 432 106 q 559 138 503 106 q 647 231 615 171 q 678 367 678 290 q 647 501 678 442 q 559 593 615 560 q 432 626 503 626 q 303 593 360 626 q 216 501 247 560 q 185 367 185 442 q 216 231 185 290 q 303 138 247 171 q 432 106 360 106 m 426 1082 q 521 1053 483 1082 q 558 971 558 1024 q 531 886 558 932 q 458 803 503 840 l 386 836 q 431 894 414 863 q 447 949 447 925 q 433 979 447 967 q 400 992 419 992 q 346 974 374 992 l 303 1043 q 426 1082 361 1082 z "},"ỡ":{"ha":904,"x_min":54,"x_max":883,"o":"m 849 918 q 883 792 883 854 q 842 669 883 721 q 732 603 801 617 q 808 368 808 507 q 760 175 808 260 q 627 43 713 90 q 432 -4 542 -4 q 235 43 321 -4 q 102 174 150 90 q 54 368 54 258 q 102 560 54 476 q 235 692 150 644 q 432 739 321 739 q 621 696 538 739 q 679 685 647 685 q 747 714 722 685 q 771 786 771 743 q 740 878 771 835 l 849 918 m 432 106 q 559 138 503 106 q 647 231 615 171 q 678 367 678 290 q 647 501 678 442 q 559 593 615 560 q 432 626 503 626 q 303 593 360 626 q 216 501 247 560 q 185 367 185 442 q 216 231 185 290 q 303 138 247 171 q 432 106 360 106 m 646 1014 q 619 892 646 940 q 533 844 592 844 q 478 856 504 844 q 418 889 453 867 q 378 911 393 904 q 351 918 364 918 q 307 850 307 918 l 217 850 q 244 972 217 924 q 329 1019 271 1019 q 383 1009 358 1019 q 444 976 407 999 q 484 954 469 961 q 511 947 499 947 q 556 1014 556 947 l 646 1014 z "},"ő":{"ha":863,"x_min":54,"x_max":808,"o":"m 432 739 q 627 692 542 739 q 760 560 713 644 q 808 368 808 476 q 760 175 808 260 q 627 43 713 90 q 432 -4 542 -4 q 235 43 321 -4 q 102 174 150 90 q 54 368 54 258 q 102 560 54 476 q 235 692 150 644 q 432 739 321 739 m 432 626 q 303 593 360 626 q 216 501 247 560 q 185 367 185 442 q 216 231 185 290 q 303 138 247 171 q 432 106 360 106 q 559 138 503 106 q 647 231 615 171 q 678 367 678 290 q 647 501 678 442 q 559 593 615 560 q 432 626 503 626 m 363 1053 l 474 1000 l 346 850 l 249 863 l 363 1053 m 578 1053 l 689 1000 l 561 850 l 464 863 l 578 1053 z "},"ȏ":{"ha":863,"x_min":54,"x_max":808,"o":"m 432 739 q 627 692 542 739 q 760 560 713 644 q 808 368 808 476 q 760 175 808 260 q 627 43 713 90 q 432 -4 542 -4 q 235 43 321 -4 q 102 174 150 90 q 54 368 54 258 q 102 560 54 476 q 235 692 150 644 q 432 739 321 739 m 432 626 q 303 593 360 626 q 216 501 247 560 q 185 367 185 442 q 216 231 185 290 q 303 138 247 171 q 432 106 360 106 q 559 138 503 106 q 647 231 615 171 q 678 367 678 290 q 647 501 678 442 q 559 593 615 560 q 432 626 503 626 m 247 847 q 301 982 250 931 q 432 1033 353 1033 q 562 982 510 1033 q 617 847 614 931 l 526 847 q 497 917 524 890 q 432 944 471 944 q 367 917 393 944 q 338 847 340 890 l 247 847 z "},"ō":{"ha":863,"x_min":54,"x_max":808,"o":"m 432 739 q 627 692 542 739 q 760 560 713 644 q 808 368 808 476 q 760 175 808 260 q 627 43 713 90 q 432 -4 542 -4 q 235 43 321 -4 q 102 174 150 90 q 54 368 54 258 q 102 560 54 476 q 235 692 150 644 q 432 739 321 739 m 432 626 q 303 593 360 626 q 216 501 247 560 q 185 367 185 442 q 216 231 185 290 q 303 138 247 171 q 432 106 360 106 q 559 138 503 106 q 647 231 615 171 q 678 367 678 290 q 647 501 678 442 q 559 593 615 560 q 432 626 503 626 m 232 986 l 631 986 l 631 900 l 232 900 l 232 986 z "},"ṓ":{"ha":863,"x_min":54,"x_max":808,"o":"m 432 739 q 627 692 542 739 q 760 560 713 644 q 808 368 808 476 q 760 175 808 260 q 627 43 713 90 q 432 -4 542 -4 q 235 43 321 -4 q 102 174 150 90 q 54 368 54 258 q 102 560 54 476 q 235 692 150 644 q 432 739 321 739 m 432 626 q 303 593 360 626 q 216 501 247 560 q 185 367 185 442 q 216 231 185 290 q 303 138 247 171 q 432 106 360 106 q 559 138 503 106 q 647 231 615 171 q 678 367 678 290 q 647 501 678 442 q 559 593 615 560 q 432 626 503 626 m 263 926 l 604 926 l 604 842 l 263 842 l 263 926 m 517 1169 l 628 1094 l 435 990 l 336 1021 l 517 1169 z "},"ṑ":{"ha":863,"x_min":54,"x_max":808,"o":"m 432 739 q 627 692 542 739 q 760 560 713 644 q 808 368 808 476 q 760 175 808 260 q 627 43 713 90 q 432 -4 542 -4 q 235 43 321 -4 q 102 174 150 90 q 54 368 54 258 q 102 560 54 476 q 235 692 150 644 q 432 739 321 739 m 432 626 q 303 593 360 626 q 216 501 247 560 q 185 367 185 442 q 216 231 185 290 q 303 138 247 171 q 432 106 360 106 q 559 138 503 106 q 647 231 615 171 q 678 367 678 290 q 647 501 678 442 q 559 593 615 560 q 432 626 503 626 m 256 926 l 597 926 l 597 842 l 256 842 l 256 926 m 331 1169 l 511 1021 l 413 990 l 219 1094 l 331 1169 z "},"ǫ":{"ha":863,"x_min":54,"x_max":808,"o":"m 665 67 q 569 -42 607 19 q 531 -150 531 -104 q 542 -188 531 -175 q 576 -201 554 -201 q 629 -187 601 -201 l 661 -274 q 547 -300 607 -300 q 448 -263 485 -300 q 411 -164 411 -226 q 482 -1 411 -85 q 432 -4 449 -4 q 235 43 321 -4 q 102 174 150 90 q 54 368 54 258 q 102 560 54 476 q 235 692 150 644 q 432 739 321 739 q 627 692 542 739 q 760 560 713 644 q 808 368 808 476 q 771 194 808 272 q 665 67 733 117 m 185 367 q 216 231 185 290 q 303 138 247 171 q 432 106 360 106 q 559 138 503 106 q 647 231 615 171 q 678 367 678 290 q 647 501 678 442 q 559 593 615 560 q 432 626 503 626 q 303 593 360 626 q 216 501 247 560 q 185 367 185 442 z "},"ø":{"ha":863,"x_min":39,"x_max":824,"o":"m 678 658 q 774 533 740 608 q 808 368 808 458 q 760 175 808 260 q 627 43 713 90 q 432 -4 542 -4 q 251 35 333 -4 l 135 -136 l 39 -136 l 185 76 q 88 201 122 126 q 54 368 54 276 q 102 560 54 476 q 235 692 150 644 q 432 739 321 739 q 613 700 531 739 l 729 871 l 824 871 l 678 658 m 178 367 q 249 169 178 247 l 550 610 q 432 636 494 636 q 300 602 358 636 q 210 507 242 568 q 178 367 178 446 m 432 94 q 563 129 506 94 q 653 226 621 164 q 686 367 686 288 q 667 476 686 426 q 613 563 649 526 l 311 122 q 432 94 367 94 z "},"ǿ":{"ha":863,"x_min":39,"x_max":824,"o":"m 678 658 q 774 533 740 608 q 808 368 808 458 q 760 175 808 260 q 627 43 713 90 q 432 -4 542 -4 q 251 35 333 -4 l 135 -136 l 39 -136 l 185 76 q 88 201 122 126 q 54 368 54 276 q 102 560 54 476 q 235 692 150 644 q 432 739 321 739 q 613 700 531 739 l 729 871 l 824 871 l 678 658 m 178 367 q 249 169 178 247 l 550 610 q 432 636 494 636 q 300 602 358 636 q 210 507 242 568 q 178 367 178 446 m 432 94 q 563 129 506 94 q 653 226 621 164 q 686 367 686 288 q 667 476 686 426 q 613 563 649 526 l 311 122 q 432 94 367 94 m 508 1044 l 642 986 l 469 850 l 360 864 l 508 1044 z "},"õ":{"ha":863,"x_min":54,"x_max":808,"o":"m 432 739 q 627 692 542 739 q 760 560 713 644 q 808 368 808 476 q 760 175 808 260 q 627 43 713 90 q 432 -4 542 -4 q 235 43 321 -4 q 102 174 150 90 q 54 368 54 258 q 102 560 54 476 q 235 692 150 644 q 432 739 321 739 m 432 626 q 303 593 360 626 q 216 501 247 560 q 185 367 185 442 q 216 231 185 290 q 303 138 247 171 q 432 106 360 106 q 559 138 503 106 q 647 231 615 171 q 678 367 678 290 q 647 501 678 442 q 559 593 615 560 q 432 626 503 626 m 646 1014 q 619 892 646 940 q 533 844 592 844 q 478 856 504 844 q 418 889 453 867 q 378 911 393 904 q 351 918 364 918 q 307 850 307 918 l 217 850 q 244 972 217 924 q 329 1019 271 1019 q 383 1009 358 1019 q 444 976 407 999 q 484 954 469 961 q 511 947 499 947 q 556 1014 556 947 l 646 1014 z "},"ṍ":{"ha":863,"x_min":54,"x_max":808,"o":"m 432 739 q 627 692 542 739 q 760 560 713 644 q 808 368 808 476 q 760 175 808 260 q 627 43 713 90 q 432 -4 542 -4 q 235 43 321 -4 q 102 174 150 90 q 54 368 54 258 q 102 560 54 476 q 235 692 150 644 q 432 739 321 739 m 432 626 q 303 593 360 626 q 216 501 247 560 q 185 367 185 442 q 216 231 185 290 q 303 138 247 171 q 432 106 360 106 q 559 138 503 106 q 647 231 615 171 q 678 367 678 290 q 647 501 678 442 q 559 593 615 560 q 432 626 503 626 m 643 985 q 617 878 643 918 q 533 838 590 838 q 476 848 503 838 q 415 876 450 858 q 344 904 367 904 q 307 888 318 904 q 296 842 296 872 l 219 842 q 247 949 219 908 q 331 990 274 990 q 385 981 360 990 q 449 951 411 971 q 489 931 472 938 q 521 924 506 924 q 568 985 568 924 l 643 985 m 517 1215 l 628 1140 l 435 1036 l 336 1067 l 517 1215 z "},"ṏ":{"ha":863,"x_min":54,"x_max":808,"o":"m 432 739 q 627 692 542 739 q 760 560 713 644 q 808 368 808 476 q 760 175 808 260 q 627 43 713 90 q 432 -4 542 -4 q 235 43 321 -4 q 102 174 150 90 q 54 368 54 258 q 102 560 54 476 q 235 692 150 644 q 432 739 321 739 m 432 626 q 303 593 360 626 q 216 501 247 560 q 185 367 185 442 q 216 231 185 290 q 303 138 247 171 q 432 106 360 106 q 559 138 503 106 q 647 231 615 171 q 678 367 678 290 q 647 501 678 442 q 559 593 615 560 q 432 626 503 626 m 628 985 q 601 878 628 918 q 518 838 575 838 q 461 848 488 838 q 400 876 435 858 q 329 904 351 904 q 292 888 303 904 q 281 842 281 872 l 204 842 q 231 949 204 908 q 315 990 258 990 q 370 981 344 990 q 433 951 396 971 q 474 931 457 938 q 506 924 490 924 q 553 985 553 924 l 628 985 m 307 1182 q 356 1161 336 1182 q 376 1110 376 1140 q 356 1056 376 1078 q 307 1035 336 1035 q 256 1056 276 1035 q 235 1110 235 1078 q 255 1162 235 1142 q 307 1182 275 1182 m 531 1182 q 581 1161 560 1182 q 601 1110 601 1140 q 581 1057 601 1079 q 531 1035 560 1035 q 479 1056 500 1035 q 458 1110 458 1078 q 479 1161 458 1140 q 531 1182 500 1182 z "},"ȭ":{"ha":863,"x_min":54,"x_max":808,"o":"m 432 739 q 627 692 542 739 q 760 560 713 644 q 808 368 808 476 q 760 175 808 260 q 627 43 713 90 q 432 -4 542 -4 q 235 43 321 -4 q 102 174 150 90 q 54 368 54 258 q 102 560 54 476 q 235 692 150 644 q 432 739 321 739 m 432 626 q 303 593 360 626 q 216 501 247 560 q 185 367 185 442 q 216 231 185 290 q 303 138 247 171 q 432 106 360 106 q 559 138 503 106 q 647 231 615 171 q 678 367 678 290 q 647 501 678 442 q 559 593 615 560 q 432 626 503 626 m 643 985 q 617 878 643 918 q 533 838 590 838 q 476 848 503 838 q 415 876 450 858 q 344 904 367 904 q 307 888 318 904 q 296 842 296 872 l 219 842 q 247 949 219 908 q 331 990 274 990 q 385 981 360 990 q 449 951 411 971 q 489 931 472 938 q 521 924 506 924 q 568 985 568 924 l 643 985 m 261 1124 l 603 1124 l 603 1039 l 261 1039 l 261 1124 z "},"œ":{"ha":1457,"x_min":54,"x_max":1407,"o":"m 1044 739 q 1238 689 1154 739 q 1364 548 1321 639 q 1404 340 1407 457 l 801 340 q 881 166 811 231 q 1057 101 951 101 q 1178 125 1122 101 q 1276 192 1235 149 l 1347 118 q 1216 28 1293 60 q 1047 -4 1139 -4 q 862 43 942 -4 q 740 175 782 90 q 617 43 697 90 q 432 -4 538 -4 q 236 43 322 -4 q 102 174 150 90 q 54 368 54 258 q 102 560 54 476 q 236 692 150 644 q 432 739 322 739 q 618 692 538 739 q 742 558 699 644 q 862 692 783 644 q 1044 739 940 739 m 1275 413 q 1207 578 1269 515 q 1044 642 1144 642 q 880 578 946 642 q 803 413 814 514 l 1275 413 m 432 106 q 559 138 503 106 q 647 231 615 171 q 678 367 678 290 q 647 501 678 442 q 559 593 615 560 q 432 626 503 626 q 305 593 361 626 q 217 501 249 560 q 185 367 185 442 q 216 231 185 290 q 303 138 247 171 q 432 106 360 106 z "},"p":{"ha":942,"x_min":133,"x_max":888,"o":"m 535 739 q 718 692 638 739 q 843 560 799 644 q 888 365 888 475 q 844 173 888 257 q 720 42 800 89 q 538 -4 640 -4 q 374 35 444 -4 q 263 146 303 74 l 263 -269 l 133 -269 l 133 735 l 263 735 l 263 589 q 373 700 303 661 q 535 739 443 739 m 510 108 q 637 142 581 108 q 724 235 693 175 q 756 369 756 294 q 724 503 756 443 q 636 596 692 563 q 510 629 581 629 q 383 596 439 629 q 294 503 326 563 q 263 369 263 443 q 294 234 263 293 q 383 142 326 175 q 510 108 439 108 z "},"þ":{"ha":942,"x_min":133,"x_max":888,"o":"m 263 593 q 373 701 303 664 q 535 739 443 739 q 718 692 638 739 q 843 560 799 644 q 888 365 888 475 q 844 173 888 257 q 720 42 800 89 q 538 -4 640 -4 q 374 33 444 -4 q 263 142 303 71 l 263 -269 l 133 -269 l 133 1031 l 263 1031 l 263 593 m 510 629 q 383 596 439 629 q 294 503 326 563 q 263 369 263 443 q 294 234 263 293 q 383 142 326 175 q 510 108 439 108 q 637 142 581 108 q 724 235 693 175 q 756 369 756 294 q 724 503 756 443 q 636 596 692 563 q 510 629 581 629 z "},"q":{"ha":944,"x_min":54,"x_max":811,"o":"m 811 735 l 811 -269 l 682 -269 l 682 146 q 570 33 640 72 q 407 -7 500 -7 q 223 41 303 -7 q 99 174 143 89 q 54 369 54 260 q 99 562 54 478 q 223 693 143 646 q 406 740 303 740 q 571 701 500 740 q 682 589 642 663 l 682 735 l 811 735 m 433 104 q 562 138 506 104 q 650 231 618 171 q 682 365 682 290 q 650 501 682 442 q 562 594 618 561 q 433 628 506 628 q 305 594 361 628 q 217 500 249 560 q 185 365 185 440 q 217 231 185 290 q 305 138 249 171 q 433 104 361 104 z "},"r":{"ha":531,"x_min":126,"x_max":517,"o":"m 256 576 q 358 697 292 656 q 517 739 425 738 l 517 614 q 335 556 404 618 q 256 388 265 493 l 256 0 l 126 0 l 126 735 l 256 735 l 256 576 z "},"ŕ":{"ha":531,"x_min":126,"x_max":535,"o":"m 256 576 q 358 697 292 656 q 517 739 425 738 l 517 614 q 335 556 404 618 q 256 388 265 493 l 256 0 l 126 0 l 126 735 l 256 735 l 256 576 m 401 1044 l 535 986 l 363 850 l 253 864 l 401 1044 z "},"ř":{"ha":531,"x_min":110,"x_max":538,"o":"m 256 576 q 358 697 292 656 q 517 739 425 738 l 517 614 q 335 556 404 618 q 256 388 265 493 l 256 0 l 126 0 l 126 735 l 256 735 l 256 576 m 408 1040 l 538 1040 l 392 856 l 256 856 l 110 1040 l 239 1040 l 324 947 l 408 1040 z "},"ŗ":{"ha":531,"x_min":81,"x_max":517,"o":"m 256 576 q 358 697 292 656 q 517 739 425 738 l 517 614 q 335 556 404 618 q 256 388 265 493 l 256 0 l 126 0 l 126 735 l 256 735 l 256 576 m 129 -82 l 251 -82 l 175 -303 l 81 -303 l 129 -82 z "},"ȑ":{"ha":531,"x_min":54,"x_max":517,"o":"m 256 576 q 358 697 292 656 q 517 739 425 738 l 517 614 q 335 556 404 618 q 256 388 265 493 l 256 0 l 126 0 l 126 735 l 256 735 l 256 576 m 165 1053 l 281 863 l 182 850 l 54 1000 l 165 1053 m 381 1053 l 496 863 l 397 850 l 269 1000 l 381 1053 z "},"ṛ":{"ha":531,"x_min":108,"x_max":517,"o":"m 256 576 q 358 697 292 656 q 517 739 425 738 l 517 614 q 335 556 404 618 q 256 388 265 493 l 256 0 l 126 0 l 126 735 l 256 735 l 256 576 m 189 -103 q 247 -126 224 -103 q 269 -186 269 -150 q 247 -246 269 -222 q 189 -269 224 -269 q 131 -246 154 -269 q 108 -186 108 -222 q 131 -126 108 -150 q 189 -103 154 -103 z "},"ȓ":{"ha":531,"x_min":126,"x_max":517,"o":"m 256 576 q 358 697 292 656 q 517 739 425 738 l 517 614 q 335 556 404 618 q 256 388 265 493 l 256 0 l 126 0 l 126 735 l 256 735 l 256 576 m 140 847 q 194 982 143 931 q 325 1033 246 1033 q 455 982 403 1033 q 510 847 507 931 l 419 847 q 390 917 417 890 q 325 944 364 944 q 260 917 286 944 q 231 847 233 890 l 140 847 z "},"ṟ":{"ha":531,"x_min":39,"x_max":517,"o":"m 256 576 q 358 697 292 656 q 517 739 425 738 l 517 614 q 335 556 404 618 q 256 388 265 493 l 256 0 l 126 0 l 126 735 l 256 735 l 256 576 m 39 -114 l 438 -114 l 438 -200 l 39 -200 l 39 -114 z "},"s":{"ha":639,"x_min":32,"x_max":594,"o":"m 528 572 q 427 617 482 600 q 322 633 372 633 q 228 612 264 633 q 193 546 193 590 q 233 478 193 501 q 353 432 272 456 q 478 388 429 410 q 560 322 526 365 q 594 208 594 279 q 516 50 594 104 q 321 -4 438 -4 q 162 22 239 -4 q 32 97 85 49 l 81 192 q 194 125 126 150 q 325 100 261 100 q 428 124 389 100 q 467 196 467 147 q 426 271 467 246 q 301 321 385 296 q 181 363 228 342 q 102 426 135 385 q 69 535 69 468 q 144 689 69 638 q 332 740 219 740 q 463 722 399 740 q 575 671 528 703 l 528 572 z "},"ś":{"ha":639,"x_min":32,"x_max":594,"o":"m 528 572 q 427 617 482 600 q 322 633 372 633 q 228 612 264 633 q 193 546 193 590 q 233 478 193 501 q 353 432 272 456 q 478 388 429 410 q 560 322 526 365 q 594 208 594 279 q 516 50 594 104 q 321 -4 438 -4 q 162 22 239 -4 q 32 97 85 49 l 81 192 q 194 125 126 150 q 325 100 261 100 q 428 124 389 100 q 467 196 467 147 q 426 271 467 246 q 301 321 385 296 q 181 363 228 342 q 102 426 135 385 q 69 535 69 468 q 144 689 69 638 q 332 740 219 740 q 463 722 399 740 q 575 671 528 703 l 528 572 m 403 1044 l 536 986 l 364 850 l 254 864 l 403 1044 z "},"ṥ":{"ha":639,"x_min":32,"x_max":594,"o":"m 528 572 q 427 617 482 600 q 322 633 372 633 q 228 612 264 633 q 193 546 193 590 q 233 478 193 501 q 353 432 272 456 q 478 388 429 410 q 560 322 526 365 q 594 208 594 279 q 516 50 594 104 q 321 -4 438 -4 q 162 22 239 -4 q 32 97 85 49 l 81 192 q 194 125 126 150 q 325 100 261 100 q 428 124 389 100 q 467 196 467 147 q 426 271 467 246 q 301 321 385 296 q 181 363 228 342 q 102 426 135 385 q 69 535 69 468 q 144 689 69 638 q 332 740 219 740 q 463 722 399 740 q 575 671 528 703 l 528 572 m 361 1018 l 472 943 l 279 839 l 181 869 l 361 1018 m 322 1201 q 376 1178 354 1201 q 399 1122 399 1156 q 376 1067 399 1090 q 322 1044 354 1044 q 269 1067 292 1044 q 247 1122 247 1090 q 269 1178 247 1156 q 322 1201 290 1201 z "},"ꞌ":{"ha":351,"x_min":110,"x_max":240,"o":"m 111 915 l 240 915 l 224 418 l 110 418 l 111 915 z "},"š":{"ha":639,"x_min":32,"x_max":594,"o":"m 528 572 q 427 617 482 600 q 322 633 372 633 q 228 612 264 633 q 193 546 193 590 q 233 478 193 501 q 353 432 272 456 q 478 388 429 410 q 560 322 526 365 q 594 208 594 279 q 516 50 594 104 q 321 -4 438 -4 q 162 22 239 -4 q 32 97 85 49 l 81 192 q 194 125 126 150 q 325 100 261 100 q 428 124 389 100 q 467 196 467 147 q 426 271 467 246 q 301 321 385 296 q 181 363 228 342 q 102 426 135 385 q 69 535 69 468 q 144 689 69 638 q 332 740 219 740 q 463 722 399 740 q 575 671 528 703 l 528 572 m 410 1040 l 539 1040 l 393 856 l 257 856 l 111 1040 l 240 1040 l 325 947 l 410 1040 z "},"ṧ":{"ha":639,"x_min":32,"x_max":594,"o":"m 528 572 q 427 617 482 600 q 322 633 372 633 q 228 612 264 633 q 193 546 193 590 q 233 478 193 501 q 353 432 272 456 q 478 388 429 410 q 560 322 526 365 q 594 208 594 279 q 516 50 594 104 q 321 -4 438 -4 q 162 22 239 -4 q 32 97 85 49 l 81 192 q 194 125 126 150 q 325 100 261 100 q 428 124 389 100 q 467 196 467 147 q 426 271 467 246 q 301 321 385 296 q 181 363 228 342 q 102 426 135 385 q 69 535 69 468 q 144 689 69 638 q 332 740 219 740 q 463 722 399 740 q 575 671 528 703 l 528 572 m 440 975 l 579 975 l 432 842 l 251 842 l 103 975 l 242 975 l 340 897 l 440 975 m 339 1168 q 393 1145 371 1168 q 415 1089 415 1122 q 393 1034 415 1057 q 339 1011 371 1011 q 286 1034 308 1011 q 264 1089 264 1057 q 285 1145 264 1122 q 339 1168 307 1168 z "},"ş":{"ha":639,"x_min":32,"x_max":594,"o":"m 193 546 q 233 478 193 501 q 353 432 272 456 q 478 388 429 410 q 560 322 526 365 q 594 208 594 279 q 533 65 594 118 q 376 -1 472 11 l 351 -72 q 435 -110 407 -81 q 464 -181 464 -140 q 421 -269 464 -236 q 311 -301 378 -301 q 183 -272 247 -301 l 211 -193 q 296 -211 256 -211 q 344 -198 326 -211 q 361 -168 361 -185 q 342 -138 361 -150 q 290 -126 324 -126 l 246 -126 l 285 -3 q 144 28 211 3 q 32 97 78 54 l 81 192 q 194 125 126 150 q 325 100 261 100 q 428 124 389 100 q 467 196 467 147 q 426 271 467 246 q 301 321 385 296 q 181 363 228 342 q 102 426 135 385 q 69 535 69 468 q 144 689 69 638 q 332 740 219 740 q 463 722 399 740 q 575 671 528 703 l 528 572 q 427 617 482 600 q 322 633 372 633 q 228 612 264 633 q 193 546 193 590 z "},"ŝ":{"ha":639,"x_min":32,"x_max":594,"o":"m 528 572 q 427 617 482 600 q 322 633 372 633 q 228 612 264 633 q 193 546 193 590 q 233 478 193 501 q 353 432 272 456 q 478 388 429 410 q 560 322 526 365 q 594 208 594 279 q 516 50 594 104 q 321 -4 438 -4 q 162 22 239 -4 q 32 97 85 49 l 81 192 q 194 125 126 150 q 325 100 261 100 q 428 124 389 100 q 467 196 467 147 q 426 271 467 246 q 301 321 385 296 q 181 363 228 342 q 102 426 135 385 q 69 535 69 468 q 144 689 69 638 q 332 740 219 740 q 463 722 399 740 q 575 671 528 703 l 528 572 m 540 857 l 411 857 l 326 950 l 242 857 l 113 857 l 258 1042 l 394 1042 l 540 857 z "},"ș":{"ha":639,"x_min":32,"x_max":594,"o":"m 528 572 q 427 617 482 600 q 322 633 372 633 q 228 612 264 633 q 193 546 193 590 q 233 478 193 501 q 353 432 272 456 q 478 388 429 410 q 560 322 526 365 q 594 208 594 279 q 516 50 594 104 q 321 -4 438 -4 q 162 22 239 -4 q 32 97 85 49 l 81 192 q 194 125 126 150 q 325 100 261 100 q 428 124 389 100 q 467 196 467 147 q 426 271 467 246 q 301 321 385 296 q 181 363 228 342 q 102 426 135 385 q 69 535 69 468 q 144 689 69 638 q 332 740 219 740 q 463 722 399 740 q 575 671 528 703 l 528 572 m 258 -82 l 381 -82 l 304 -303 l 210 -303 l 258 -82 z "},"ṡ":{"ha":639,"x_min":32,"x_max":594,"o":"m 528 572 q 427 617 482 600 q 322 633 372 633 q 228 612 264 633 q 193 546 193 590 q 233 478 193 501 q 353 432 272 456 q 478 388 429 410 q 560 322 526 365 q 594 208 594 279 q 516 50 594 104 q 321 -4 438 -4 q 162 22 239 -4 q 32 97 85 49 l 81 192 q 194 125 126 150 q 325 100 261 100 q 428 124 389 100 q 467 196 467 147 q 426 271 467 246 q 301 321 385 296 q 181 363 228 342 q 102 426 135 385 q 69 535 69 468 q 144 689 69 638 q 332 740 219 740 q 463 722 399 740 q 575 671 528 703 l 528 572 m 326 1028 q 384 1004 361 1028 q 407 944 407 981 q 384 885 407 908 q 326 861 361 861 q 269 885 292 861 q 246 944 246 908 q 269 1004 246 981 q 326 1028 292 1028 z "},"ṣ":{"ha":639,"x_min":32,"x_max":594,"o":"m 528 572 q 427 617 482 600 q 322 633 372 633 q 228 612 264 633 q 193 546 193 590 q 233 478 193 501 q 353 432 272 456 q 478 388 429 410 q 560 322 526 365 q 594 208 594 279 q 516 50 594 104 q 321 -4 438 -4 q 162 22 239 -4 q 32 97 85 49 l 81 192 q 194 125 126 150 q 325 100 261 100 q 428 124 389 100 q 467 196 467 147 q 426 271 467 246 q 301 321 385 296 q 181 363 228 342 q 102 426 135 385 q 69 535 69 468 q 144 689 69 638 q 332 740 219 740 q 463 722 399 740 q 575 671 528 703 l 528 572 m 318 -103 q 376 -126 353 -103 q 399 -186 399 -150 q 376 -246 399 -222 q 318 -269 353 -269 q 260 -246 283 -269 q 238 -186 238 -222 q 260 -126 238 -150 q 318 -103 283 -103 z "},"ṩ":{"ha":639,"x_min":32,"x_max":594,"o":"m 528 572 q 427 617 482 600 q 322 633 372 633 q 228 612 264 633 q 193 546 193 590 q 233 478 193 501 q 353 432 272 456 q 478 388 429 410 q 560 322 526 365 q 594 208 594 279 q 516 50 594 104 q 321 -4 438 -4 q 162 22 239 -4 q 32 97 85 49 l 81 192 q 194 125 126 150 q 325 100 261 100 q 428 124 389 100 q 467 196 467 147 q 426 271 467 246 q 301 321 385 296 q 181 363 228 342 q 102 426 135 385 q 69 535 69 468 q 144 689 69 638 q 332 740 219 740 q 463 722 399 740 q 575 671 528 703 l 528 572 m 318 -103 q 376 -126 353 -103 q 399 -186 399 -150 q 376 -246 399 -222 q 318 -269 353 -269 q 260 -246 283 -269 q 238 -186 238 -222 q 260 -126 238 -150 q 318 -103 283 -103 m 318 1028 q 376 1004 353 1028 q 399 944 399 981 q 376 885 399 908 q 318 861 353 861 q 260 885 283 861 q 238 944 238 908 q 260 1004 238 981 q 318 1028 283 1028 z "},"ß":{"ha":904,"x_min":118,"x_max":831,"o":"m 118 679 q 160 868 118 788 q 279 992 201 949 q 463 1036 357 1036 q 625 1003 554 1036 q 735 910 696 971 q 775 771 775 850 q 728 620 775 686 q 604 528 682 554 q 769 448 707 510 q 831 289 831 386 q 786 139 831 204 q 660 37 742 74 q 472 0 579 0 l 400 0 l 400 101 l 482 101 q 642 153 581 101 q 703 285 703 204 q 635 416 703 368 q 453 464 567 464 l 436 464 l 436 565 q 592 616 533 565 q 650 753 650 667 q 598 882 650 833 q 460 931 546 931 q 305 865 363 931 q 247 688 247 799 l 247 0 l 118 0 l 118 679 z "},"t":{"ha":551,"x_min":49,"x_max":521,"o":"m 521 49 q 349 -6 436 -6 q 207 47 261 -6 q 153 204 153 99 l 153 611 l 49 611 l 49 710 l 153 710 l 153 907 l 283 907 l 283 710 l 508 710 l 508 611 l 283 611 l 283 228 q 306 140 283 167 q 372 114 328 114 q 486 149 425 114 l 521 49 z "},"ŧ":{"ha":551,"x_min":49,"x_max":521,"o":"m 521 49 q 349 -6 436 -6 q 207 47 261 -6 q 153 204 153 99 l 153 358 l 49 358 l 49 458 l 153 458 l 153 611 l 49 611 l 49 710 l 153 710 l 153 907 l 283 907 l 283 710 l 508 710 l 508 611 l 283 611 l 283 458 l 508 458 l 508 358 l 283 358 l 283 228 q 306 140 283 167 q 372 114 328 114 q 486 149 425 114 l 521 49 z "},"ť":{"ha":551,"x_min":49,"x_max":521,"o":"m 521 49 q 349 -6 436 -6 q 207 47 261 -6 q 153 204 153 99 l 153 611 l 49 611 l 49 710 l 153 710 l 153 907 l 283 907 l 283 710 l 508 710 l 508 611 l 283 611 l 283 228 q 306 140 283 167 q 372 114 328 114 q 486 149 425 114 l 521 49 m 379 1031 l 501 1031 l 468 801 l 379 801 l 379 1031 z "},"ţ":{"ha":551,"x_min":49,"x_max":521,"o":"m 382 -72 q 466 -110 438 -81 q 494 -181 494 -140 q 451 -269 494 -236 q 342 -301 408 -301 q 214 -272 278 -301 l 242 -193 q 326 -211 286 -211 q 374 -198 357 -211 q 392 -168 392 -185 q 373 -138 392 -150 q 321 -126 354 -126 l 276 -126 l 315 -3 q 197 58 242 6 q 153 204 153 110 l 153 611 l 49 611 l 49 710 l 153 710 l 153 907 l 283 907 l 283 710 l 508 710 l 508 611 l 283 611 l 283 228 q 306 140 283 167 q 372 114 328 114 q 486 149 425 114 l 521 49 q 406 0 464 13 l 407 0 l 382 -72 z "},"ț":{"ha":551,"x_min":49,"x_max":521,"o":"m 521 49 q 349 -6 436 -6 q 207 47 261 -6 q 153 204 153 99 l 153 611 l 49 611 l 49 710 l 153 710 l 153 907 l 283 907 l 283 710 l 508 710 l 508 611 l 283 611 l 283 228 q 306 140 283 167 q 372 114 328 114 q 486 149 425 114 l 521 49 m 289 -82 l 411 -82 l 335 -303 l 240 -303 l 289 -82 z "},"ẗ":{"ha":551,"x_min":25,"x_max":521,"o":"m 521 49 q 349 -6 436 -6 q 207 47 261 -6 q 153 204 153 99 l 153 611 l 49 611 l 49 710 l 153 710 l 153 907 l 283 907 l 283 710 l 508 710 l 508 611 l 283 611 l 283 228 q 306 140 283 167 q 372 114 328 114 q 486 149 425 114 l 521 49 m 99 1192 q 151 1170 131 1192 q 172 1115 172 1149 q 151 1062 172 1083 q 99 1040 131 1040 q 46 1062 67 1040 q 25 1115 25 1083 q 46 1170 25 1149 q 99 1192 67 1192 m 338 1192 q 390 1170 369 1192 q 411 1115 411 1149 q 390 1062 411 1083 q 338 1040 369 1040 q 285 1062 306 1040 q 264 1115 264 1083 q 285 1170 264 1149 q 338 1192 306 1192 z "},"ṭ":{"ha":551,"x_min":49,"x_max":521,"o":"m 521 49 q 349 -6 436 -6 q 207 47 261 -6 q 153 204 153 99 l 153 611 l 49 611 l 49 710 l 153 710 l 153 907 l 283 907 l 283 710 l 508 710 l 508 611 l 283 611 l 283 228 q 306 140 283 167 q 372 114 328 114 q 486 149 425 114 l 521 49 m 349 -103 q 406 -126 383 -103 q 429 -186 429 -150 q 406 -246 429 -222 q 349 -269 383 -269 q 291 -246 314 -269 q 268 -186 268 -222 q 291 -126 268 -150 q 349 -103 314 -103 z "}}}
